<svg width="18" height="18" viewBox="0 0 18 18" fill="none" xmlns="http://www.w3.org/2000/svg">
<path d="M7.86185 17.4443C5.95597 17.259 4.02361 16.3326 3.07067 14.6649C2.1442 12.9973 2.38244 10.8796 3.0442 9.05314L3.60008 10.6414C3.65303 10.8002 3.73244 10.9855 3.86479 11.0649C4.07655 11.1973 4.36773 11.0914 4.52655 10.8796C4.65891 10.6678 4.68538 10.4031 4.65891 10.1649C4.5795 9.10608 3.97067 8.12667 3.9442 7.06785C3.91773 5.8502 4.68538 4.73843 5.63832 3.97079C5.66479 4.39432 5.77067 4.84432 5.90302 5.24137C5.95597 5.4002 6.06185 5.55902 6.22067 5.58549C6.32655 5.58549 6.43244 5.53255 6.51185 5.45314C7.30597 4.79137 7.78244 3.83843 7.96773 2.83255C8.04714 2.32961 8.04714 1.8002 7.94126 1.29726C7.91479 1.19137 7.70303 0.661963 7.75597 0.582551C7.83538 0.423728 8.28538 0.767845 8.39126 0.820787C10.1383 1.93255 11.303 3.91785 11.3295 5.98255C11.3295 6.3002 11.3824 6.72373 11.7001 6.77667C11.8854 6.80314 12.0707 6.69726 12.1766 6.53843C12.2824 6.37961 12.2824 6.19432 12.3089 6.00902C13.553 7.12079 14.453 8.49726 15.0619 10.0326C15.406 10.9326 15.6442 11.912 15.4589 12.8649C15.3001 13.7384 14.8766 14.5326 14.2677 15.1943C13.2619 16.3326 11.9118 17.2325 10.403 17.3914C9.60891 17.4708 8.76185 17.4973 7.86185 17.4443Z" fill="#F95353"/>
<path d="M12.5207 16.2269C12.4678 16.4122 12.3883 16.6239 12.3089 16.8092C11.7266 17.1269 11.0913 17.3386 10.4295 17.3916C9.92659 17.4445 9.42364 17.471 8.89423 17.471C8.57658 17.471 8.23247 17.471 7.88835 17.4445C7.27953 17.3916 6.6707 17.2592 6.08835 17.0475C5.7707 16.5975 5.55894 16.0681 5.47953 15.5386C5.29423 14.3739 5.63835 13.1828 6.30011 12.2033C6.406 12.0445 6.64423 12.0975 6.69717 12.2828C6.88247 12.8916 7.27953 13.4475 7.72953 13.9239C7.86188 14.0563 8.07364 13.9769 8.10011 13.7916C8.15306 13.1563 8.28541 11.9651 8.52364 11.3298C8.81482 10.5357 9.26482 9.76805 9.92658 9.21217C10.0589 9.10629 10.2442 9.15923 10.2707 9.34452C10.4031 10.1386 10.8001 10.8798 11.1972 11.5945C11.6736 12.3886 12.2031 13.1828 12.4413 14.0828C12.6795 14.7445 12.706 15.5122 12.5207 16.2269Z" fill="white"/>
<path d="M12.5207 16.2269C12.4678 16.4122 12.3883 16.6239 12.3089 16.8092C11.7266 17.1269 11.0913 17.3386 10.4295 17.3916C9.92659 17.4445 9.42364 17.471 8.89423 17.471C8.57658 17.471 8.23247 17.471 7.88835 17.4445C7.27953 17.3916 6.6707 17.2592 6.08835 17.0475C5.7707 16.5975 5.55894 16.0681 5.47953 15.5386C5.29423 14.3739 5.63835 13.1828 6.30011 12.2033C6.406 12.0445 6.64423 12.0975 6.69717 12.2828C6.88247 12.8916 7.27953 13.4475 7.72953 13.9239C7.86188 14.0563 8.07364 13.9769 8.10011 13.7916C8.15306 13.1563 8.28541 11.9651 8.52364 11.3298C8.81482 10.5357 9.26482 9.76805 9.92658 9.21217C10.0589 9.10629 10.2442 9.15923 10.2707 9.34452C10.4031 10.1386 10.8001 10.8798 11.1972 11.5945C11.6736 12.3886 12.2031 13.1828 12.4413 14.0828C12.6795 14.7445 12.706 15.5122 12.5207 16.2269Z" fill="#FFD550"/>
<path d="M12.5207 16.2269C12.4678 16.4122 12.3883 16.6239 12.3089 16.8092C11.7266 17.1269 11.0913 17.3386 10.4295 17.3916C9.92659 17.4445 9.42364 17.471 8.89423 17.471C8.57658 17.471 8.23247 17.471 7.88835 17.4445C7.27953 17.3916 6.6707 17.2592 6.08835 17.0475C5.7707 16.5975 5.55894 16.0681 5.47953 15.5386C5.29423 14.3739 5.63835 13.1828 6.30011 12.2033C6.406 12.0445 6.64423 12.0975 6.69717 12.2828C6.88247 12.8916 7.27953 13.4475 7.72953 13.9239C7.86188 14.0563 8.07364 13.9769 8.10011 13.7916C8.15306 13.1563 8.28541 11.9651 8.52364 11.3298C8.81482 10.5357 9.26482 9.76805 9.92658 9.21217C10.0589 9.10629 10.2442 9.15923 10.2707 9.34452C10.4031 10.1386 10.8001 10.8798 11.1972 11.5945C11.6736 12.3886 12.2031 13.1828 12.4413 14.0828C12.6795 14.7445 12.706 15.5122 12.5207 16.2269Z" fill="#FFD550"/>
</svg>
