<svg width="44" height="44" viewBox="0 0 44 44" fill="none" xmlns="http://www.w3.org/2000/svg">
<g clip-path="url(#clip0_236_31071)">
<path d="M7.79163 0.549805H36.2083C40.5115 0.549805 44 4.03829 44 8.34143V35.6581C44 39.9613 40.5115 43.4498 36.2083 43.4498H7.79163C3.48848 43.4497 0 39.9613 0 35.6581V8.34143C0 4.0382 3.48848 0.549805 7.79163 0.549805Z" fill="#181C32"/>
<path d="M17.676 26.2162H10.8576L9.47036 30.5339C9.43144 30.696 9.28272 30.8075 9.11612 30.7995H5.66269C5.46577 30.7995 5.39687 30.6913 5.45606 30.4748L11.3594 13.5435C11.4184 13.3664 11.4775 13.1933 11.5365 12.9668C11.6138 12.573 11.6533 12.1727 11.6545 11.7714C11.6404 11.6715 11.7098 11.579 11.8097 11.5648C11.8268 11.5624 11.8441 11.5624 11.8612 11.5648H16.5544C16.6918 11.5648 16.7705 11.614 16.7906 11.7124L23.4908 30.5043C23.5498 30.7012 23.4908 30.7997 23.3137 30.7995H19.4765C19.3401 30.8146 19.2138 30.7262 19.1814 30.5929L17.676 26.2162ZM14.252 14.9308H14.2224L11.9202 22.5756H16.5838L14.252 14.9308Z" fill="#6470B5"/>
<path d="M34.3532 24.5355H28.5385C28.6097 25.1108 28.8008 25.6649 29.0993 26.1617C29.4294 26.6538 29.8962 27.0385 30.4423 27.2686C31.1824 27.5888 31.9828 27.7457 32.7889 27.7285C33.4285 27.7162 34.0657 27.6463 34.6928 27.5195C35.2535 27.4438 35.8032 27.3005 36.3297 27.0928C36.4279 27.0144 36.4773 27.0633 36.4773 27.2404V30.0445C36.4822 30.1208 36.4669 30.1972 36.4329 30.2659C36.3992 30.3196 36.3537 30.3649 36.3001 30.3987C35.7162 30.6573 35.1016 30.8404 34.4714 30.9435C33.6153 31.1043 32.745 31.1785 31.874 31.1649C30.4766 31.1649 29.3057 30.9485 28.3615 30.5156C27.4689 30.1223 26.6805 29.526 26.0592 28.7741C25.4789 28.0656 25.0472 27.2474 24.79 26.3685C24.5352 25.5009 24.406 24.6014 24.4063 23.6973C24.4035 22.71 24.558 21.7286 24.8638 20.7899C25.1583 19.8742 25.6241 19.0229 26.2363 18.281C27.5856 16.6462 29.4425 15.9648 31.5198 15.9648C33.3099 15.9648 35.1461 16.5577 36.3015 17.9858C36.785 18.6098 37.1547 19.3142 37.3936 20.0667C37.6261 20.7918 37.7456 21.5484 37.7478 22.31C37.7478 22.743 37.733 23.1366 37.7035 23.4906C37.674 23.8448 37.6494 24.1007 37.6298 24.2581C37.6139 24.3928 37.4997 24.4942 37.3641 24.4942C37.246 24.4942 37.0443 24.509 36.7591 24.5385C36.4736 24.568 36.1194 24.5876 35.6965 24.5975C35.2728 24.6075 34.8255 24.5355 34.3532 24.5355ZM28.5385 21.8465H32.4051C32.8774 21.8465 33.2267 21.8416 33.453 21.8318C33.6044 21.8166 33.7506 21.7682 33.8811 21.6899V21.5128C33.8752 21.2819 33.8354 21.0532 33.7631 20.8339C33.4357 19.7989 32.457 19.1102 31.3723 19.1515C30.3572 19.0902 29.4019 19.6344 28.9371 20.5387C28.7347 20.9504 28.6001 21.392 28.5385 21.8465Z" fill="#6470B5"/>
</g>
<defs>
<clipPath id="clip0_236_31071">
<rect width="44" height="44" fill="white"/>
</clipPath>
</defs>
</svg>
