<svg width="44" height="44" viewBox="0 0 44 44" fill="none" xmlns="http://www.w3.org/2000/svg">
<g clip-path="url(#clip0_23_4001)">
<path d="M7.79163 0.550049H36.2083C40.5115 0.550049 44 4.03853 44 8.34168V35.6583C44 39.9616 40.5115 43.4501 36.2083 43.4501H7.79163C3.48848 43.45 0 39.9616 0 35.6583V8.34168C0 4.03844 3.48848 0.550049 7.79163 0.550049Z" fill="#181C32"/>
<path d="M17.676 26.2164H10.8576L9.47036 30.5341C9.43144 30.6962 9.28272 30.8077 9.11612 30.7998H5.66269C5.46577 30.7998 5.39687 30.6915 5.45606 30.4751L11.3594 13.5437C11.4184 13.3666 11.4775 13.1935 11.5365 12.967C11.6138 12.5733 11.6533 12.173 11.6545 11.7717C11.6404 11.6717 11.7098 11.5792 11.8097 11.565C11.8268 11.5626 11.8441 11.5626 11.8612 11.565H16.5544C16.6918 11.565 16.7705 11.6143 16.7906 11.7126L23.4908 30.5045C23.5498 30.7015 23.4908 30.7999 23.3137 30.7998H19.4765C19.3401 30.8149 19.2138 30.7265 19.1814 30.5931L17.676 26.2164ZM14.252 14.931H14.2224L11.9202 22.5758H16.5838L14.252 14.931Z" fill="#3E97FF"/>
<path d="M34.353 24.536H28.5382C28.6094 25.1113 28.8005 25.6653 29.0991 26.1622C29.4292 26.6542 29.896 27.039 30.442 27.2691C31.1821 27.5893 31.9825 27.7462 32.7887 27.729C33.4283 27.7167 34.0655 27.6468 34.6925 27.5199C35.2533 27.4443 35.8029 27.3009 36.3294 27.0933C36.4276 27.0149 36.477 27.0638 36.477 27.2409V30.045C36.4819 30.1213 36.4666 30.1977 36.4327 30.2664C36.3989 30.3201 36.3535 30.3654 36.2999 30.3992C35.716 30.6578 35.1014 30.8409 34.4712 30.944C33.615 31.1048 32.7448 31.179 31.8738 31.1654C30.4763 31.1654 29.3055 30.949 28.3612 30.516C27.4686 30.1228 26.6803 29.5265 26.059 28.7746C25.4786 28.0661 25.047 27.2479 24.7897 26.369C24.535 25.5014 24.4058 24.6019 24.406 23.6978C24.4033 22.7105 24.5578 21.7291 24.8636 20.7904C25.1581 19.8747 25.6238 19.0234 26.2361 18.2815C27.5853 16.6467 29.4422 15.9653 31.5195 15.9653C33.3096 15.9653 35.1458 16.5582 36.3012 17.9863C36.7848 18.6103 37.1545 19.3147 37.3933 20.0672C37.6259 20.7923 37.7453 21.5489 37.7476 22.3105C37.7476 22.7435 37.7328 23.1371 37.7032 23.4911C37.6738 23.8453 37.6492 24.1011 37.6295 24.2585C37.6136 24.3933 37.4994 24.4947 37.3639 24.4947C37.2458 24.4947 37.0441 24.5095 36.7588 24.539C36.4733 24.5684 36.1192 24.5881 35.6963 24.598C35.2725 24.608 34.8253 24.536 34.353 24.536ZM28.5382 21.847H32.4049C32.8772 21.847 33.2264 21.8421 33.4527 21.8323C33.6041 21.8171 33.7504 21.7687 33.8809 21.6904V21.5132C33.8749 21.2824 33.8352 21.0537 33.7628 20.8344C33.4355 19.7994 32.4568 19.1107 31.372 19.152C30.357 19.0906 29.4017 19.6348 28.9369 20.5392C28.7344 20.9509 28.5999 21.3925 28.5382 21.847Z" fill="#3E97FF"/>
</g>
<defs>
<clipPath id="clip0_23_4001">
<rect width="44" height="44" fill="white"/>
</clipPath>
</defs>
</svg>
