<svg width="44" height="44" viewBox="0 0 44 44" fill="none" xmlns="http://www.w3.org/2000/svg">
<g clip-path="url(#clip0_72_1627)">
<path d="M7.7917 0.549805H36.2084C40.5167 0.549805 44 4.03311 44 8.3415V35.6582C44 39.9665 40.5167 43.4499 36.2083 43.4499H7.7917C3.4833 43.4498 0 39.9665 0 35.6581V8.3415C0 4.03311 3.4833 0.549805 7.7917 0.549805Z" fill="#181C32"/>
<path d="M21.3219 26.2901H14.5019L13.1086 30.5984C13.0719 30.7634 12.9253 30.8734 12.7603 30.8551H9.31358C9.11188 30.8551 9.05688 30.7451 9.11188 30.5251L15.0152 13.5301C15.0702 13.3468 15.1252 13.1451 15.1985 12.9251C15.2718 12.5401 15.3085 12.1368 15.3085 11.7334C15.2902 11.6417 15.3635 11.5501 15.4552 11.5317H15.5102H20.2035C20.3502 11.5317 20.4235 11.5867 20.4418 11.6784L27.1335 30.5617C27.1885 30.7634 27.1335 30.855 26.9502 30.855H23.1185C22.9902 30.8733 22.8618 30.7817 22.8252 30.6533L21.3219 26.2901ZM15.5652 22.5684H20.2219L17.8752 14.9234L15.5652 22.5684Z" fill="#6470B5"/>
<path d="M31.1301 14.6667C30.5251 14.685 29.9384 14.4467 29.4984 14.025C29.0767 13.5667 28.8567 12.9617 28.8751 12.3383C28.8568 11.715 29.0951 11.1283 29.5351 10.7066C29.9751 10.2849 30.5618 10.0649 31.1668 10.0649C31.8818 10.0649 32.4318 10.2849 32.8351 10.7066C33.2384 11.1466 33.4584 11.7333 33.4401 12.3383C33.4584 12.9616 33.2384 13.5666 32.7984 14.025C32.3768 14.465 31.7534 14.7033 31.1301 14.6667Z" fill="#6470B5"/>
<path d="M29.0767 30.5799V16.4632C29.0767 16.2799 29.15 16.2065 29.315 16.2065H32.945C33.11 16.2065 33.1833 16.2982 33.1833 16.4632V30.5799C33.1833 30.7816 33.11 30.8732 32.945 30.8732H29.3517C29.1683 30.8732 29.0767 30.7632 29.0767 30.5799Z" fill="#6470B5"/>
</g>
<defs>
<clipPath id="clip0_72_1627">
<rect width="44" height="44" fill="white"/>
</clipPath>
</defs>
</svg>
