<svg width="44" height="44" viewBox="0 0 44 44" fill="none" xmlns="http://www.w3.org/2000/svg">
<g clip-path="url(#clip0_51_9132)">
<path d="M7.7917 0.549805H36.2084C40.5167 0.549805 44 4.03311 44 8.3415V35.6582C44 39.9665 40.5167 43.4499 36.2083 43.4499H7.7917C3.4833 43.4498 0 39.9665 0 35.6581V8.3415C0 4.03311 3.4833 0.549805 7.7917 0.549805Z" fill="#181C32"/>
<path d="M21.3216 26.2901H14.5016L13.1083 30.5984C13.0716 30.7634 12.925 30.8734 12.76 30.8551H9.31333C9.11164 30.8551 9.05664 30.7451 9.11164 30.5251L15.0149 13.5301C15.0699 13.3468 15.1249 13.1451 15.1982 12.9251C15.2716 12.5401 15.3082 12.1368 15.3082 11.7334C15.2899 11.6417 15.3632 11.5501 15.4549 11.5317H15.5099H20.2032C20.3499 11.5317 20.4232 11.5867 20.4416 11.6784L27.1332 30.5617C27.1882 30.7634 27.1332 30.855 26.9499 30.855H23.1182C22.9899 30.8733 22.8616 30.7817 22.8249 30.6533L21.3216 26.2901ZM15.5649 22.5684H20.2216L17.8749 14.9234L15.5649 22.5684Z" fill="#FF9A00"/>
<path d="M31.1298 14.6667C30.5248 14.685 29.9381 14.4467 29.4981 14.025C29.0765 13.5667 28.8565 12.9617 28.8748 12.3383C28.8565 11.715 29.0948 11.1283 29.5348 10.7066C29.9748 10.2849 30.5615 10.0649 31.1665 10.0649C31.8815 10.0649 32.4315 10.2849 32.8348 10.7066C33.2381 11.1466 33.4581 11.7333 33.4398 12.3383C33.4581 12.9616 33.2382 13.5666 32.7982 14.025C32.3765 14.465 31.7531 14.7033 31.1298 14.6667Z" fill="#FF9A00"/>
<path d="M29.0767 30.5799V16.4632C29.0767 16.2799 29.15 16.2065 29.315 16.2065H32.945C33.11 16.2065 33.1833 16.2982 33.1833 16.4632V30.5799C33.1833 30.7816 33.11 30.8732 32.945 30.8732H29.3517C29.1683 30.8732 29.0767 30.7632 29.0767 30.5799Z" fill="#FF9A00"/>
</g>
<defs>
<clipPath id="clip0_51_9132">
<rect width="44" height="44" fill="white"/>
</clipPath>
</defs>
</svg>
