<svg width="44" height="44" viewBox="0 0 44 44" fill="none" xmlns="http://www.w3.org/2000/svg">
<g clip-path="url(#clip0_33_2179)">
<rect x="6.6001" y="7.72314" width="30.8" height="30.8" fill="#6470B5"/>
<path d="M27.5719 24.5595C26.8098 23.8693 25.7602 23.5386 24.3941 23.5386H16.4497V31.5621H24.3941C25.7601 31.5621 26.8242 31.2099 27.5719 30.498C28.3268 29.7934 28.7078 28.7869 28.7078 27.4928C28.7078 26.2203 28.334 25.2497 27.5719 24.5595Z" fill="#181C32"/>
<path d="M26.4791 19.3903C27.1981 18.772 27.5576 17.8949 27.5576 16.7445C27.5576 15.4504 27.234 14.5373 26.587 14.0125C25.94 13.4877 25.0053 13.2217 23.783 13.2217H16.4497V20.3106H23.783C24.8615 20.3106 25.7602 20.0086 26.4791 19.3903Z" fill="#181C32"/>
<path d="M36.6667 0H7.3333C3.3 0 0 3.3 0 7.3333V36.6666C0 40.7 3.3 44 7.3333 44H36.6666C40.7 44 44 40.7 44 36.6667V7.3333C44 3.3 40.7 0 36.6667 0ZM32.6621 30.8935C32.3026 31.7706 31.7419 32.5255 30.9726 33.1582C30.2033 33.7909 29.2255 34.2941 28.0249 34.668C26.8243 35.0419 25.4007 35.2288 23.7471 35.2288H11.9562V9.56209H24.4301C26.7307 9.56209 28.5784 10.0869 29.966 11.1438C31.3535 12.2006 32.0509 13.7895 32.0509 15.9248C32.0509 17.219 31.7346 18.3261 31.1019 19.2464C30.4692 20.1667 29.5634 20.8856 28.3842 21.3889V21.4608C29.9659 21.7987 31.1666 22.5465 31.979 23.704C32.7913 24.8687 33.2012 26.3209 33.2012 28.0752C33.2013 29.0817 33.0216 30.0236 32.6621 30.8935Z" fill="#181C32"/>
</g>
<defs>
<clipPath id="clip0_33_2179">
<rect width="44" height="44" fill="white"/>
</clipPath>
</defs>
</svg>
