<svg width="44" height="44" viewBox="0 0 44 44" fill="none" xmlns="http://www.w3.org/2000/svg">
<rect width="44" height="44" rx="8" fill="#181C32"/>
<g clip-path="url(#clip0_33_2185)">
<path d="M10.637 9.8817L12.3244 31.4696C12.3498 31.7938 12.5692 32.0702 12.8792 32.1685L21.7586 34.9837C21.9156 35.0335 22.0842 35.0335 22.2412 34.9837L31.1206 32.1685C31.4306 32.0702 31.65 31.7938 31.6754 31.4696L33.3628 9.8817C33.3991 9.41757 33.0323 9.021 32.5668 9.021H11.4331C10.9676 9.021 10.6008 9.41757 10.637 9.8817ZM29.0355 16.5797H18.038L18.3699 19.6403H28.7963L28.1142 28.3655L21.9999 30.304L15.8857 28.3655L15.5293 23.8071H18.7386V26.043L22.0857 26.9413L25.4128 26.043L25.6709 22.4795H15.4255L14.7453 13.7772H29.2545L29.0355 16.5797Z" fill="#6470B5"/>
</g>
<defs>
<clipPath id="clip0_33_2185">
<rect width="26" height="26" fill="white" transform="translate(9 9.021)"/>
</clipPath>
</defs>
</svg>
