<svg width="44" height="44" viewBox="0 0 44 44" fill="none" xmlns="http://www.w3.org/2000/svg">
<rect width="44" height="44" rx="8" fill="#181C32"/>
<g clip-path="url(#clip0_23_4018)">
<path d="M10.6371 9.8817L12.3246 31.4696C12.3499 31.7938 12.5693 32.0702 12.8793 32.1685L21.7587 34.9837C21.9157 35.0335 22.0843 35.0335 22.2413 34.9837L31.1208 32.1685C31.4307 32.0702 31.6502 31.7938 31.6755 31.4696L33.3629 9.8817C33.3992 9.41757 33.0324 9.021 32.5669 9.021H11.4332C10.9677 9.021 10.6009 9.41757 10.6371 9.8817ZM29.0356 16.5797H18.0381L18.37 19.6403H28.7964L28.1143 28.3655L22.0001 30.304L15.8858 28.3655L15.5294 23.8071H18.7387V26.043L22.0858 26.9413L25.4129 26.043L25.671 22.4795H15.4257L14.7455 13.7772H29.2546L29.0356 16.5797Z" fill="#FC490B"/>
</g>
<defs>
<clipPath id="clip0_23_4018">
<rect width="26" height="26" fill="white" transform="translate(9 9.021)"/>
</clipPath>
</defs>
</svg>
