<svg width="44" height="44" viewBox="0 0 44 44" fill="none" xmlns="http://www.w3.org/2000/svg">
<path d="M7.7917 0H36.2084C40.5167 0 44 3.57261 44 7.99147V36.0085C44 40.4273 40.5167 44 36.2083 44H7.7917C3.4833 43.9999 0 40.4273 0 36.0084V7.99147C0 3.57261 3.4833 0 7.7917 0Z" fill="#181C32"/>
<path d="M9.90039 30.0849V11.2199C9.90039 11.0916 9.95539 11.0182 10.0837 11.0182C10.3954 11.0182 10.6887 11.0182 11.1104 10.9999C11.5504 10.9816 12.0087 10.9816 12.5037 10.9632C12.9987 10.9448 13.5304 10.9449 14.0987 10.9265C14.667 10.9082 15.217 10.9082 15.767 10.9082C17.2703 10.9082 18.517 11.0915 19.5437 11.4765C20.4604 11.7882 21.3037 12.3015 22.0004 12.9798C22.5871 13.5665 23.0454 14.2815 23.3387 15.0698C23.6137 15.8398 23.7604 16.6281 23.7604 17.4531C23.7604 19.0298 23.3937 20.3314 22.6604 21.3581C21.9271 22.3848 20.9004 23.1548 19.7087 23.5948C18.462 24.0531 17.087 24.2181 15.5837 24.2181C15.1437 24.2181 14.8504 24.2181 14.667 24.1998C14.4837 24.1815 14.227 24.1815 13.8787 24.1815V30.0665C13.897 30.1948 13.8054 30.3048 13.677 30.3232C13.6587 30.3232 13.6403 30.3232 13.6037 30.3232H10.1204C9.9737 30.3232 9.90039 30.2499 9.90039 30.0849ZM13.8971 14.5566V20.7166C14.1538 20.7349 14.3921 20.7533 14.6121 20.7533H15.5838C16.8497 20.7533 18.3118 20.4558 19.1954 19.4517C19.9559 18.5875 19.958 16.8737 19.3421 15.9317C18.6109 14.8134 17.1488 14.4894 15.8954 14.52C15.4187 14.52 14.9971 14.52 14.6487 14.5383C14.2821 14.5199 14.0254 14.5382 13.8971 14.5566Z" fill="#6470B5"/>
<path d="M35.1999 19.5979C34.6499 19.3046 34.0632 19.1029 33.4399 18.9746C32.7616 18.8279 32.0832 18.7363 31.3866 18.7363C31.0199 18.718 30.6349 18.773 30.2866 18.8646C30.0483 18.9196 29.8466 19.0479 29.7183 19.2313C29.6266 19.378 29.5716 19.5613 29.5716 19.7263C29.5716 19.8913 29.6449 20.0563 29.7549 20.203C29.9199 20.4047 30.1399 20.5697 30.3782 20.698C30.7999 20.918 31.2399 21.1197 31.6799 21.303C32.6699 21.633 33.6232 22.0913 34.5032 22.6413C35.1082 23.0263 35.6032 23.5396 35.9515 24.163C36.2448 24.7497 36.3915 25.3913 36.3732 26.0513C36.3915 26.913 36.1349 27.7746 35.6582 28.4896C35.1449 29.2229 34.4299 29.7913 33.6049 30.1213C32.7066 30.5063 31.6066 30.708 30.2866 30.708C29.4433 30.708 28.6183 30.6347 27.7933 30.4697C27.1516 30.3597 26.51 30.158 25.9233 29.883C25.795 29.8097 25.7033 29.6813 25.7216 29.5347V26.3447C25.7216 26.2897 25.7399 26.2164 25.7949 26.1797C25.8499 26.143 25.9049 26.1614 25.9599 26.198C26.6749 26.6197 27.4266 26.913 28.2332 27.0963C28.9299 27.2796 29.6632 27.3713 30.3965 27.3713C31.0932 27.3713 31.5882 27.2796 31.9182 27.1146C32.2115 26.9863 32.4132 26.6746 32.4132 26.3446C32.4132 26.0879 32.2665 25.8496 31.9732 25.6113C31.6799 25.373 31.0749 25.098 30.1765 24.7496C29.2415 24.4196 28.3798 23.9796 27.5732 23.4296C27.0049 23.0263 26.5282 22.4946 26.1799 21.8713C25.8866 21.2846 25.7399 20.643 25.7582 20.0013C25.7582 19.213 25.9782 18.4613 26.3815 17.783C26.8398 17.0497 27.5182 16.463 28.3065 16.0963C29.1682 15.6563 30.2498 15.4546 31.5515 15.4546C32.3032 15.4546 33.0732 15.5096 33.8248 15.6196C34.3748 15.6929 34.9065 15.8396 35.4015 16.0413C35.4748 16.0596 35.5482 16.133 35.5848 16.2063C35.6031 16.2796 35.6215 16.353 35.6215 16.4263V19.4146C35.6215 19.4879 35.5848 19.5613 35.5298 19.5979C35.3649 19.6346 35.2732 19.6346 35.1999 19.5979Z" fill="#6470B5"/>
</svg>
