<svg width="44" height="44" viewBox="0 0 44 44" fill="none" xmlns="http://www.w3.org/2000/svg">
<path d="M7.7917 0H36.2084C40.5167 0 44 3.57261 44 7.99147V36.0085C44 40.4273 40.5167 44 36.2083 44H7.7917C3.4833 43.9999 0 40.4273 0 36.0084V7.99147C0 3.57261 3.4833 0 7.7917 0Z" fill="#181C32"/>
<path d="M9.8999 30.0849V11.2199C9.8999 11.0916 9.9549 11.0182 10.0832 11.0182C10.3949 11.0182 10.6882 11.0182 11.1099 10.9999C11.5499 10.9816 12.0082 10.9816 12.5032 10.9632C12.9982 10.9448 13.5299 10.9449 14.0982 10.9265C14.6665 10.9082 15.2165 10.9082 15.7665 10.9082C17.2698 10.9082 18.5165 11.0915 19.5432 11.4765C20.4599 11.7882 21.3032 12.3015 21.9999 12.9798C22.5866 13.5665 23.0449 14.2815 23.3382 15.0698C23.6132 15.8398 23.7599 16.6281 23.7599 17.4531C23.7599 19.0298 23.3932 20.3314 22.6599 21.3581C21.9266 22.3848 20.8999 23.1548 19.7082 23.5948C18.4615 24.0531 17.0865 24.2181 15.5832 24.2181C15.1432 24.2181 14.8499 24.2181 14.6665 24.1998C14.4832 24.1815 14.2265 24.1815 13.8782 24.1815V30.0665C13.8965 30.1948 13.8049 30.3048 13.6765 30.3232C13.6582 30.3232 13.6398 30.3232 13.6032 30.3232H10.1199C9.97321 30.3232 9.8999 30.2499 9.8999 30.0849ZM13.8966 14.5566V20.7166C14.1533 20.7349 14.3916 20.7533 14.6116 20.7533H15.5833C16.8492 20.7533 18.3113 20.4558 19.1949 19.4517C19.9554 18.5875 19.9575 16.8737 19.3416 15.9317C18.6104 14.8134 17.1483 14.4894 15.8949 14.52C15.4182 14.52 14.9966 14.52 14.6482 14.5383C14.2816 14.5199 14.0249 14.5382 13.8966 14.5566Z" fill="#00A9FF"/>
<path d="M35.2004 19.5979C34.6504 19.3046 34.0637 19.1029 33.4404 18.9746C32.7621 18.8279 32.0837 18.7363 31.3871 18.7363C31.0204 18.718 30.6354 18.773 30.2871 18.8646C30.0488 18.9196 29.8471 19.0479 29.7187 19.2313C29.6271 19.378 29.5721 19.5613 29.5721 19.7263C29.5721 19.8913 29.6454 20.0563 29.7554 20.203C29.9204 20.4047 30.1404 20.5697 30.3787 20.698C30.8004 20.918 31.2404 21.1197 31.6804 21.303C32.6704 21.633 33.6237 22.0913 34.5037 22.6413C35.1087 23.0263 35.6037 23.5396 35.952 24.163C36.2453 24.7497 36.392 25.3913 36.3737 26.0513C36.392 26.913 36.1354 27.7746 35.6587 28.4896C35.1454 29.2229 34.4304 29.7913 33.6054 30.1213C32.7071 30.5063 31.6071 30.708 30.2871 30.708C29.4438 30.708 28.6188 30.6347 27.7938 30.4697C27.1521 30.3597 26.5104 30.158 25.9237 29.883C25.7954 29.8097 25.7038 29.6813 25.7221 29.5347V26.3447C25.7221 26.2897 25.7404 26.2164 25.7954 26.1797C25.8504 26.143 25.9054 26.1614 25.9604 26.198C26.6754 26.6197 27.4271 26.913 28.2337 27.0963C28.9304 27.2796 29.6637 27.3713 30.397 27.3713C31.0937 27.3713 31.5887 27.2796 31.9187 27.1146C32.212 26.9863 32.4137 26.6746 32.4137 26.3446C32.4137 26.0879 32.267 25.8496 31.9737 25.6113C31.6804 25.373 31.0754 25.098 30.177 24.7496C29.242 24.4196 28.3803 23.9796 27.5737 23.4296C27.0054 23.0263 26.5287 22.4946 26.1804 21.8713C25.8871 21.2846 25.7404 20.643 25.7587 20.0013C25.7587 19.213 25.9787 18.4613 26.382 17.783C26.8403 17.0497 27.5187 16.463 28.307 16.0963C29.1687 15.6563 30.2503 15.4546 31.552 15.4546C32.3037 15.4546 33.0737 15.5096 33.8253 15.6196C34.3753 15.6929 34.907 15.8396 35.402 16.0413C35.4753 16.0596 35.5487 16.133 35.5853 16.2063C35.6036 16.2796 35.622 16.353 35.622 16.4263V19.4146C35.622 19.4879 35.5853 19.5613 35.5303 19.5979C35.3654 19.6346 35.2737 19.6346 35.2004 19.5979Z" fill="#00A9FF"/>
</svg>
