<svg width="44" height="44" viewBox="0 0 44 44" fill="none" xmlns="http://www.w3.org/2000/svg">
<rect width="44" height="44" rx="8" fill="#181C32"/>
<g clip-path="url(#clip0_33_2159)">
<path d="M22.0303 22.0208C22.0303 19.6276 23.9704 17.6875 26.3636 17.6875C28.7568 17.6875 30.6969 19.6276 30.6969 22.0208C30.6969 24.4141 28.7568 26.3541 26.3636 26.3541C23.9703 26.3541 22.0303 24.414 22.0303 22.0208Z" fill="#4A579B"/>
<path d="M13.3638 30.6878C13.3638 28.2946 15.3039 26.3545 17.6971 26.3545L20.0064 25.1353L22.0304 26.3545V30.6878C22.0304 33.081 20.0903 35.0211 17.6971 35.0211C15.3039 35.0211 13.3638 33.081 13.3638 30.6878Z" fill="#3A4479"/>
<path d="M22.0303 9.021L19.6724 13.1175L22.0303 17.6876H26.3029C28.6961 17.6876 30.6362 15.7475 30.6362 13.3543C30.6362 10.9611 28.6961 9.021 26.3029 9.021H22.0303Z" fill="#8690C5"/>
<path d="M13.3027 13.3543C13.3027 15.7475 15.2428 17.6876 17.6361 17.6876L19.9348 18.5755L22.0302 17.6876V9.021H17.636C15.2428 9.021 13.3027 10.9611 13.3027 13.3543Z" fill="#A9B0D6"/>
<path d="M13.3638 22.0209C13.3638 24.4141 15.3039 26.3542 17.6971 26.3542H22.0304V17.6875H17.6971C15.3039 17.6875 13.3638 19.6276 13.3638 22.0209Z" fill="#6470B5"/>
</g>
<defs>
<clipPath id="clip0_33_2159">
<rect width="26" height="26" fill="white" transform="translate(9 9.021)"/>
</clipPath>
</defs>
</svg>
