<svg width="44" height="44" viewBox="0 0 44 44" fill="none" xmlns="http://www.w3.org/2000/svg">
<rect width="44" height="44" rx="8" fill="#181C32"/>
<g clip-path="url(#clip0_23_3992)">
<path d="M22.0305 22.0211C22.0305 19.6278 23.9706 17.6877 26.3638 17.6877C28.7571 17.6877 30.6972 19.6279 30.6972 22.0211C30.6972 24.4143 28.757 26.3544 26.3638 26.3544C23.9706 26.3544 22.0305 24.4143 22.0305 22.0211Z" fill="#00BCFF"/>
<path d="M13.3638 30.6878C13.3638 28.2946 15.3039 26.3545 17.6971 26.3545L20.0064 25.1353L22.0304 26.3545V30.6878C22.0304 33.081 20.0903 35.0211 17.6971 35.0211C15.3039 35.0211 13.3638 33.081 13.3638 30.6878Z" fill="#00CF7F"/>
<path d="M22.0306 9.021L19.6726 13.1175L22.0306 17.6876H26.3031C28.6964 17.6876 30.6364 15.7475 30.6364 13.3543C30.6364 10.9611 28.6963 9.021 26.3031 9.021H22.0306Z" fill="#FF7361"/>
<path d="M13.303 13.3543C13.303 15.7475 15.2431 17.6876 17.6363 17.6876L19.935 18.5755L22.0304 17.6876V9.021H17.6362C15.2431 9.021 13.303 10.9611 13.303 13.3543Z" fill="#FF4D12"/>
<path d="M13.3638 22.0211C13.3638 24.4144 15.3039 26.3544 17.6971 26.3544H22.0304V17.6877H17.6971C15.3039 17.6877 13.3638 19.6279 13.3638 22.0211Z" fill="#B659FF"/>
</g>
<defs>
<clipPath id="clip0_23_3992">
<rect width="26" height="26" fill="white" transform="translate(9 9.021)"/>
</clipPath>
</defs>
</svg>
