<svg width="44" height="44" viewBox="0 0 44 44" fill="none" xmlns="http://www.w3.org/2000/svg">
<rect width="44" height="44" rx="8" fill="#181C32"/>
<g clip-path="url(#clip0_23_4023)">
<path d="M22 9.021C14.8338 9.021 9 14.8504 9 22.021C9 29.1872 14.8338 35.021 22 35.021C29.1663 35.021 35 29.1872 35 22.021C35 14.8493 29.1663 9.021 22 9.021ZM10.3108 22.0199C10.3108 20.3267 10.6716 18.7179 11.3227 17.2652L16.8997 32.5402C12.9986 30.6432 10.3108 26.6447 10.3108 22.0199ZM22 33.7102C20.8517 33.7102 19.7456 33.5422 18.698 33.2324L22.2048 23.0426L25.796 32.8868C25.822 32.9453 25.8491 32.9962 25.8794 33.0493C24.6683 33.474 23.3628 33.7102 22 33.7102ZM23.6088 16.5447V16.5437C24.3108 16.5068 24.9445 16.4342 24.9445 16.4342C25.5739 16.3606 25.5002 15.4332 24.8708 15.469C24.8708 15.469 22.9783 15.6152 21.7573 15.6152C20.609 15.6152 18.6796 15.469 18.6796 15.469C18.0513 15.4322 17.9787 16.3974 18.607 16.4342C18.607 16.4342 19.2039 16.5079 19.8333 16.5437L21.6523 21.5335L19.0945 29.2024L14.8392 16.5437C15.5423 16.5068 16.176 16.4342 16.176 16.4342C16.8054 16.3606 16.7318 15.4332 16.1023 15.469C16.1023 15.469 14.2098 15.6152 12.9888 15.6152C12.7689 15.6152 12.5111 15.6098 12.2338 15.6001C14.3257 12.4281 17.9158 10.3318 22 10.3318C25.0409 10.3318 27.8132 11.4964 29.8943 13.3977C29.8412 13.3922 29.7946 13.3879 29.7426 13.3879C28.5942 13.3879 27.7817 14.3889 27.7817 15.4636C27.7817 16.4277 28.3375 17.2402 28.9301 18.2055C29.3753 18.9812 29.8953 19.9822 29.8953 21.4295C29.8953 22.4305 29.5129 23.5886 29.0038 25.2092L27.8392 29.1038L23.6088 16.5447ZM32.2592 16.4126C33.1713 18.0798 33.6903 19.9876 33.6903 22.0221C33.6903 26.3359 31.3524 30.0994 27.8771 32.1231L27.876 32.122L31.4456 21.8C32.1108 20.1327 32.3372 18.8024 32.3372 17.6118C32.3372 17.1828 32.3112 16.7842 32.2592 16.4126Z" fill="#0388BE"/>
</g>
<defs>
<clipPath id="clip0_23_4023">
<rect width="26" height="26" fill="white" transform="translate(9 9.021)"/>
</clipPath>
</defs>
</svg>
