<svg width="44" height="44" viewBox="0 0 44 44" fill="none" xmlns="http://www.w3.org/2000/svg">
<g clip-path="url(#clip0_72_1634)">
<path d="M7.79165 0.549805H36.2083C40.5115 0.549805 44 4.03826 44 8.34146V35.6582C44 39.9614 40.5115 43.4498 36.2083 43.4498H7.79165C3.48845 43.4498 0 39.9614 0 35.6582V8.34146C0 4.03826 3.48845 0.549805 7.79165 0.549805Z" fill="#181C32"/>
<path d="M23.1305 11.8318L17.6403 20.8934L23.5142 30.5158C23.5518 30.5831 23.5624 30.6623 23.5437 30.7372C23.5239 30.8064 23.4552 30.7628 23.3372 30.7822H19.1458C18.8506 30.7822 18.644 30.7718 18.5259 30.5748C18.1321 29.8074 17.7385 29.0449 17.3452 28.2873C16.9514 27.53 16.5332 26.7576 16.0908 25.9703C15.6481 25.1835 15.2103 24.3866 14.7773 23.5794H14.7478C14.3539 24.3666 13.9456 25.1538 13.5228 25.9407C13.0994 26.728 12.6813 27.5101 12.2684 28.2873C11.8551 29.0648 11.432 29.8372 10.9992 30.6043C10.9203 30.7814 10.7824 30.7997 10.5858 30.7997H6.54208C6.46362 30.7997 6.41937 30.8307 6.40922 30.7519C6.39814 30.6799 6.41387 30.6064 6.45357 30.5453L12.1502 21.1885L6.60112 11.8022C6.54208 11.7239 6.53228 11.6599 6.57156 11.6104C6.61573 11.5594 6.68138 11.5321 6.74875 11.5366H10.9105C11.0013 11.5316 11.092 11.5467 11.1762 11.5809C11.2468 11.6209 11.3074 11.6764 11.3533 11.7433C11.7076 12.5305 12.1011 13.3176 12.534 14.1046C12.9667 14.8919 13.4044 15.6691 13.8475 16.4365C14.2903 17.2039 14.6986 17.9811 15.0725 18.7683H15.1021C15.4954 17.9616 15.8939 17.1746 16.2975 16.407C16.7006 15.6396 17.1138 14.8672 17.5371 14.0899C17.9601 13.3128 18.3685 12.5404 18.7621 11.7728C18.7847 11.7 18.8254 11.6341 18.8802 11.581C18.9531 11.5441 19.035 11.5287 19.1164 11.5367H22.983C23.0737 11.5143 23.1654 11.5697 23.1878 11.6604C23.2033 11.7237 23.181 11.7905 23.1305 11.8318Z" fill="#6470B5"/>
<path d="M31.6015 31.1651C30.2429 31.1858 28.8967 30.9035 27.661 30.3386C26.5098 29.8058 25.5474 28.9361 24.9013 27.8444C24.232 26.7329 23.8975 25.3407 23.8977 23.6678C23.8866 22.3131 24.2328 20.9794 24.9013 19.8011C25.5899 18.6009 26.6026 17.6188 27.8234 16.9674C29.1023 16.2591 30.647 15.9049 32.4575 15.9049C32.5558 15.9049 32.6836 15.9098 32.8412 15.9196C32.9985 15.9298 33.1855 15.9445 33.4021 15.9639V10.1491C33.4021 10.0117 33.4612 9.94251 33.5793 9.94251H37.2983C37.3839 9.9303 37.4632 9.98977 37.4754 10.0754C37.4774 10.0901 37.4774 10.1049 37.4754 10.1196V27.564C37.4754 27.8988 37.4902 28.2629 37.5196 28.6562C37.5492 29.05 37.5738 29.4042 37.5935 29.7188C37.6009 29.8442 37.5306 29.9614 37.4163 30.014C36.4568 30.4141 35.4575 30.711 34.4352 30.8994C33.5004 31.072 32.5521 31.1608 31.6015 31.1651ZM33.402 27.5051V19.447C33.2425 19.4038 33.0795 19.3741 32.915 19.3584C32.7139 19.3382 32.5119 19.3283 32.3098 19.3289C31.5936 19.3218 30.8857 19.4836 30.2437 19.8012C29.6183 20.112 29.0844 20.5798 28.6941 21.1589C28.2906 21.7492 28.0889 22.5265 28.0889 23.4908C28.0746 24.1342 28.1797 24.7747 28.3988 25.3798C28.5772 25.8674 28.8592 26.3105 29.2254 26.6786C29.5759 27.0172 30.0002 27.2698 30.465 27.4165C30.9559 27.5755 31.469 27.6551 31.9851 27.6525C32.2604 27.6525 32.5162 27.6427 32.7525 27.6231C32.9726 27.6066 33.1902 27.5669 33.402 27.5051Z" fill="#6470B5"/>
</g>
<defs>
<clipPath id="clip0_72_1634">
<rect width="44" height="44" fill="white"/>
</clipPath>
</defs>
</svg>
