<svg width="44" height="44" viewBox="0 0 44 44" fill="none" xmlns="http://www.w3.org/2000/svg">
<g clip-path="url(#clip0_51_9139)">
<path d="M7.79165 0.549805H36.2083C40.5115 0.549805 44 4.03826 44 8.34146V35.6582C44 39.9614 40.5115 43.4498 36.2083 43.4498H7.79165C3.48845 43.4498 0 39.9614 0 35.6582V8.34146C0 4.03826 3.48845 0.549805 7.79165 0.549805Z" fill="#181C32"/>
<path d="M23.1307 11.8318L17.6406 20.8934L23.5144 30.5158C23.5521 30.5831 23.5626 30.6623 23.544 30.7372C23.5241 30.8064 23.4555 30.7628 23.3374 30.7822H19.1461C18.8508 30.7822 18.6442 30.7718 18.5262 30.5749C18.1323 29.8075 17.7387 29.0449 17.3455 28.2873C16.9516 27.53 16.5335 26.7576 16.0911 25.9703C15.6484 25.1835 15.2105 24.3866 14.7776 23.5794H14.748C14.3542 24.3666 13.9458 25.1538 13.523 25.9407C13.0997 26.728 12.6815 27.5101 12.2686 28.2873C11.8554 29.0648 11.4323 29.8372 10.9994 30.6043C10.9205 30.7814 10.7826 30.7997 10.5861 30.7997H6.54232C6.46387 30.7997 6.41961 30.8307 6.40947 30.7519C6.39838 30.6799 6.41411 30.6064 6.45381 30.5453L12.1505 21.1885L6.60136 11.8022C6.54232 11.7239 6.53253 11.6599 6.5718 11.6104C6.61597 11.5594 6.68163 11.5321 6.749 11.5366H10.9108C11.0015 11.5316 11.0922 11.5467 11.1765 11.5809C11.247 11.6209 11.3076 11.6764 11.3536 11.7433C11.7078 12.5305 12.1014 13.3176 12.5342 14.1046C12.9669 14.8919 13.4047 15.6691 13.8478 16.4365C14.2905 17.2039 14.6989 17.9811 15.0728 18.7683H15.1023C15.4957 17.9616 15.8941 17.1746 16.2978 16.407C16.7009 15.6396 17.1141 14.8672 17.5374 14.0899C17.9604 13.3128 18.3687 12.5404 18.7624 11.7728C18.785 11.7 18.8256 11.6341 18.8805 11.581C18.9533 11.5441 19.0352 11.5287 19.1166 11.5367H22.9833C23.0739 11.5143 23.1656 11.5697 23.188 11.6604C23.2035 11.7237 23.1813 11.7905 23.1307 11.8318Z" fill="#FF61F6"/>
<path d="M31.6017 31.1651C30.2432 31.1858 28.897 30.9035 27.6612 30.3386C26.51 29.8058 25.5477 28.9361 24.9015 27.8444C24.2323 26.7329 23.8978 25.3407 23.898 23.6678C23.8869 22.3131 24.233 20.9794 24.9015 19.8011C25.5901 18.6009 26.6029 17.6188 27.8237 16.9674C29.1025 16.2591 30.6472 15.9049 32.4578 15.9049C32.556 15.9049 32.6839 15.9098 32.8415 15.9196C32.9988 15.9298 33.1857 15.9445 33.4023 15.9639V10.1491C33.4023 10.0117 33.4614 9.94251 33.5795 9.94251H37.2985C37.3841 9.9303 37.4634 9.98977 37.4756 10.0754C37.4777 10.0901 37.4777 10.1049 37.4756 10.1196V27.564C37.4756 27.8988 37.4904 28.2629 37.5199 28.6562C37.5494 29.05 37.574 29.4042 37.5937 29.7188C37.6011 29.8442 37.5308 29.9614 37.4165 30.0139C36.457 30.4141 35.4577 30.711 34.4354 30.8994C33.5006 31.072 32.5523 31.1608 31.6017 31.1651ZM33.4022 27.5051V19.447C33.2427 19.4038 33.0798 19.3741 32.9152 19.3584C32.7141 19.3382 32.5122 19.3283 32.3101 19.3289C31.5938 19.3218 30.886 19.4836 30.2439 19.8012C29.6186 20.112 29.0847 20.5798 28.6943 21.1589C28.2908 21.7492 28.0891 22.5265 28.0892 23.4908C28.0748 24.1342 28.1799 24.7747 28.3991 25.3798C28.5775 25.8674 28.8594 26.3105 29.2256 26.6785C29.5761 27.0172 30.0005 27.2698 30.4652 27.4165C30.9562 27.5754 31.4693 27.6551 31.9853 27.6525C32.2607 27.6525 32.5165 27.6427 32.7527 27.6231C32.9729 27.6066 33.1905 27.5669 33.4022 27.5051Z" fill="#FF61F6"/>
</g>
<defs>
<clipPath id="clip0_51_9139">
<rect width="44" height="44" fill="white"/>
</clipPath>
</defs>
</svg>
