<svg width="16" height="16" viewBox="0 0 16 16" fill="none" xmlns="http://www.w3.org/2000/svg">
<g clip-path="url(#clip0_19_15)">
<path d="M16 8C16 10.1107 15.1826 12.0305 13.847 13.4601C12.387 15.023 10.3076 15.8606 8.00001 15.8606C3.58173 15.8606 0.153076 12.4183 0.153076 8C0.153076 5.69256 0.976888 3.61328 2.53964 2.15319C3.96926 0.817531 5.88917 0 8.00001 0C12.4183 0 16 3.58172 16 8Z" fill="#FFD05B"/>
<path d="M7.99997 14.4516C11.5631 14.4516 14.4516 11.5631 14.4516 7.99997C14.4516 4.43683 11.5631 1.54834 7.99997 1.54834C4.43683 1.54834 1.54834 4.43683 1.54834 7.99997C1.54834 11.5631 4.43683 14.4516 7.99997 14.4516Z" fill="#FFEAA5"/>
<path d="M13.4195 8.00003C13.4195 9.38066 12.9032 10.6407 12.0532 11.5976C11.0605 12.7152 9.61252 13.278 8.00012 13.278C5.00708 13.278 2.75952 10.9931 2.75952 8.00006C2.75952 6.38866 3.28405 4.94153 4.40043 3.94884C5.35762 3.09769 6.61849 2.58069 8.00012 2.58069C10.9931 2.58069 13.4195 5.007 13.4195 8.00003Z" fill="#FFE077"/>
<path d="M9.29025 8.25803L8.24078 5.52944C8.15594 5.30887 7.84387 5.30887 7.75906 5.52944L6.70959 8.25803L5.35144 7.2394L5.18237 7.47278L6.25137 10.6411L10.2257 10.3225L11.1162 7.47278C11.1909 7.23369 10.9155 7.03906 10.7151 7.18934L9.29025 8.25803Z" fill="#FFC244"/>
<path d="M8.38709 15.6129C3.96881 15.6129 0.387094 12.0312 0.387094 7.61289C0.387094 5.50223 1.20416 3.58276 2.53966 2.1532C0.976688 3.61329 0 5.69235 0 7.99998C0 12.4183 3.58172 16 8 16C10.3076 16 12.3869 15.023 13.847 13.4601C12.4175 14.7955 10.4978 15.6129 8.38709 15.6129Z" fill="#FFC244"/>
<path d="M8.45007 12.9692C5.45704 12.9692 3.03072 10.5429 3.03072 7.54988C3.03072 6.16801 3.54885 4.9061 4.40025 3.94885C3.28416 4.94148 2.58057 6.38892 2.58057 8.00004C2.58057 10.9931 5.00691 13.4194 7.99991 13.4194C9.61107 13.4194 11.0603 12.7137 12.053 11.5976C11.0957 12.449 9.83197 12.9692 8.45007 12.9692Z" fill="#FFD05B"/>
<path d="M6.08863 9.59819L5.3515 7.23941L5.28478 7.18938C5.08438 7.03907 4.80891 7.23369 4.88362 7.47282L5.82228 10.4765C5.88962 10.692 6.08919 10.8387 6.31494 10.8387H9.68506C9.91081 10.8387 10.1104 10.692 10.1777 10.4765L10.2258 10.3226H7.07394C6.62241 10.3226 6.22328 10.0291 6.08863 9.59819Z" fill="#FFAA5A"/>
</g>
<defs>
<clipPath id="clip0_19_15">
<rect width="16" height="16" fill="white"/>
</clipPath>
</defs>
</svg>
