<svg width="240" height="240" viewBox="0 0 240 240" fill="none" xmlns="http://www.w3.org/2000/svg">
<path d="M99.0641 186.014C98.7103 177.435 88.9816 172.438 80.4469 171.465C71.9122 170.536 62.7142 171.642 55.1966 167.397C48.475 163.594 44.5393 156.164 42.5051 148.691C40.4709 141.218 39.8961 133.435 37.8177 125.961C34.678 114.596 28.089 103.939 28.0005 92.132C27.9121 77.8043 38.9232 64.1399 52.9414 61.1771C60.7685 59.5409 69.0821 60.9118 76.8208 58.7892C93.7133 54.146 102.425 34.6886 118.344 27.3479C128.56 22.6162 140.499 23.4564 151.555 25.8002C156.773 26.9057 161.947 28.3208 166.501 31.0626C173.312 35.1751 178.264 42.2947 179.768 50.0777C183.217 67.8546 169.73 84.3933 167.43 102.391C166.324 111.059 167.916 120.036 171.985 127.819C175.257 134.054 179.989 139.405 183.35 145.595C186.666 151.786 188.479 159.481 185.428 165.805C183.748 169.298 180.696 172.04 177.38 174.074C166.546 180.751 153.014 180.707 140.278 180.442" fill="#5AA6FF"/>
<path d="M143.551 115.613C143.551 118.753 143.595 122.202 145.585 124.635C148.283 127.995 153.28 128.128 157.569 127.951C168.447 127.509 179.326 127.023 190.16 126.359C195.378 126.05 196.749 129.189 199.579 133.39C202.454 137.636 204.886 142.146 206.876 146.834C207.804 135.778 210.856 124.015 210.237 112.916C209.264 94.2988 208.247 75.7259 207.274 57.1087C207.141 54.7208 206.964 52.2002 205.505 50.3429C203.117 47.2916 198.606 47.3358 194.759 47.6896C186.048 48.4414 177.38 49.1489 168.669 49.9007C162.212 50.4313 152.616 49.6354 147.398 54.2344C144.966 56.4012 143.728 59.6736 143.463 62.9459C143.065 67.0143 143.949 71.0384 143.86 75.1068C143.728 79.6173 143.816 84.1279 143.772 88.5942C143.684 97.6153 143.639 106.592 143.551 115.613Z" fill="white"/>
<path d="M210.945 113.535C210.768 109.6 210.547 105.62 210.326 101.684C209.884 93.7243 209.486 85.8088 209.044 77.849C208.823 73.8691 208.601 69.8891 208.425 65.9534C208.336 63.9634 208.203 61.9735 208.115 59.9835C208.027 58.1705 207.982 56.4016 207.761 54.5886C207.54 53.0408 207.142 51.4046 206.213 50.1222C205.373 48.9724 204.268 48.1765 202.941 47.6459C200.244 46.5846 197.192 46.7614 194.362 47.0267C186.447 47.69 178.575 48.3534 170.66 49.0609C167.785 49.3263 164.911 49.4147 161.992 49.5474C159.162 49.6801 156.288 49.9011 153.502 50.5644C150.893 51.2277 148.284 52.3333 146.382 54.3232C144.171 56.6227 143.11 59.7624 142.8 62.8579C142.402 66.7052 143.198 70.5082 143.198 74.3554C143.198 78.2911 143.11 82.1826 143.11 86.1183C143.11 94.0339 143.021 101.905 142.933 109.821C142.933 111.767 142.889 113.712 142.889 115.658C142.889 118.223 142.889 120.876 143.95 123.264C144.923 125.475 146.78 127.023 149.036 127.863C151.247 128.659 153.679 128.748 156.022 128.748C159.118 128.703 162.169 128.526 165.265 128.394C171.721 128.128 178.177 127.819 184.634 127.465C186.27 127.377 187.862 127.288 189.454 127.156C190.603 127.067 191.753 127.023 192.859 127.377C194.672 127.907 195.866 129.322 196.927 130.782C200.553 136 203.781 141.483 206.258 147.32C206.523 147.984 207.452 147.542 207.496 146.967C208.115 139.493 209.618 132.153 210.414 124.723C210.857 120.92 211.122 117.206 210.945 113.535ZM209.574 119.726C209.176 127.067 207.761 134.275 206.788 141.528C206.656 142.456 206.567 143.341 206.479 144.269C205.55 142.279 204.577 140.334 203.472 138.432C202.101 136 200.553 133.656 199.005 131.312C197.944 129.72 196.883 128.04 195.291 126.935C193.434 125.608 191.267 125.608 189.056 125.74C182.688 126.138 176.276 126.448 169.908 126.758C166.68 126.89 163.452 127.023 160.223 127.2C157.614 127.288 155.005 127.509 152.396 127.2C149.92 126.89 147.311 126.05 145.852 123.883C144.215 121.495 144.215 118.4 144.215 115.614C144.26 107.875 144.304 100.181 144.392 92.442C144.437 88.5947 144.436 84.7474 144.436 80.8559C144.436 78.9544 144.481 77.0087 144.525 75.1072C144.569 73.2499 144.436 71.3926 144.26 69.5795C143.994 66.086 143.773 62.5483 144.967 59.1875C145.94 56.4016 147.886 54.279 150.539 52.9966C152.971 51.8468 155.713 51.3604 158.366 51.1393C161.108 50.874 163.894 50.8298 166.635 50.6971C170.129 50.5202 173.623 50.1665 177.116 49.8569C180.963 49.5474 184.81 49.1936 188.613 48.8841C190.559 48.7072 192.505 48.5745 194.406 48.3976C195.866 48.2649 197.281 48.1765 198.74 48.2208C201.482 48.3534 204.312 49.1936 205.594 51.8026C206.302 53.2177 206.435 54.8539 206.523 56.4017C206.656 58.3032 206.744 60.2046 206.833 62.0619C207.054 65.9534 207.231 69.8449 207.452 73.7364C207.85 81.4751 208.292 89.258 208.69 96.9967C208.911 100.844 209.088 104.735 209.309 108.583C209.574 112.342 209.751 116.012 209.574 119.726ZM196.131 90.8942C192.903 90.3194 189.586 89.7445 186.712 88.0199C184.191 86.5163 182.246 84.2168 181.627 81.3424C181.007 78.5565 181.494 75.6821 181.671 72.852C181.715 72.1002 181.715 71.3042 181.671 70.5525C181.626 69.9334 181.582 69.3143 181.317 68.7836C180.742 67.7223 179.327 67.6781 178.354 68.076C176.231 68.9162 175.303 71.4811 175.214 73.6037C175.082 76.5223 176.055 79.3082 176.232 82.2268C176.32 84.3052 176.099 86.8701 174.374 88.3294C172.428 89.9656 169.731 89.5233 167.387 89.258C164.646 88.9484 161.506 88.9927 159.339 90.9827C157.747 92.442 157.216 95.051 158.72 96.6871C160.445 97.8369 162.567 98.2349 164.557 97.7043C165.397 97.4832 165.751 98.7655 164.911 98.9866C162.877 99.5173 160.666 99.252 158.808 98.2792C157.526 99.6942 157.791 102.082 159.693 102.878C159.87 102.967 160.002 103.099 160.091 103.232C162.037 103.807 164.071 103.984 166.061 103.718C166.414 103.674 166.724 104.072 166.724 104.382C166.724 104.78 166.414 105.001 166.061 105.045C163.938 105.31 161.771 105.133 159.737 104.514C159.074 106.106 159.693 107.919 161.152 108.804C161.285 108.76 161.417 108.715 161.594 108.804C163.938 109.556 166.414 109.732 168.802 109.246C169.643 109.069 169.996 110.352 169.156 110.528C166.901 110.971 164.601 110.926 162.434 110.396C161.727 111.192 162.346 112.341 163.098 112.872C164.115 113.624 165.486 113.933 166.68 114.199C171.588 115.127 176.099 112.916 180.831 111.943C185.606 110.971 190.559 111.192 195.202 112.563C196.043 112.784 195.689 114.066 194.849 113.845C191.93 113.005 188.923 112.607 185.872 112.695C183.263 112.784 180.698 113.27 178.222 113.978C175.701 114.685 173.224 115.481 170.615 115.747C168.139 115.968 165.442 115.57 163.186 114.508C162.213 114.022 161.329 113.27 160.975 112.209C160.754 111.59 160.798 110.882 161.019 110.263C158.676 109.202 157.57 106.416 158.543 104.072C158.455 103.984 158.366 103.807 158.366 103.674C157.526 103.055 156.907 102.171 156.73 101.109C156.509 99.8711 156.863 98.5445 157.703 97.6158C155.934 95.6701 156.288 92.5303 157.968 90.5846C160.135 88.064 163.673 87.6218 166.812 87.9313C169.023 88.1524 172.296 89.0369 173.932 86.9585C175.303 85.1896 175.038 82.4037 174.728 80.3253C174.286 77.3625 173.401 74.267 174.33 71.3042C174.993 69.0489 176.674 66.882 179.15 66.6167C180.344 66.4841 181.627 66.8821 182.378 67.8992C183.174 69.049 183.174 70.6409 183.13 71.9675C183.086 74.8861 182.423 77.8932 182.953 80.8118C183.484 83.5977 185.253 85.7203 187.685 87.0912C190.382 88.6389 193.522 89.1695 196.573 89.7002C197.325 89.7444 196.971 91.0269 196.131 90.8942ZM162.346 55.6057C161.904 54.8981 163.054 54.2348 163.496 54.9424C165.132 57.5072 167.166 59.8067 169.466 61.7967C169.731 62.0178 169.687 62.5041 169.466 62.7252C169.2 62.9906 168.802 62.9463 168.537 62.7252C166.149 60.6911 164.071 58.3032 162.346 55.6057ZM187.243 64.0077C189.056 61.5755 190.913 59.1434 192.726 56.7112C192.947 56.4459 193.301 56.269 193.655 56.4901C193.92 56.667 194.097 57.1091 193.876 57.4187C192.063 59.8509 190.205 62.283 188.392 64.7152C188.171 64.9805 187.817 65.1574 187.464 64.9363C187.198 64.7594 187.021 64.3173 187.243 64.0077ZM178.531 60.7795C178.531 58.6127 178.531 56.4459 178.531 54.279C178.531 53.4388 179.858 53.4388 179.858 54.279C179.858 56.4459 179.858 58.6127 179.858 60.7795C179.858 61.664 178.531 61.664 178.531 60.7795Z" fill="#3F4254"/>
<path d="M97.914 121.848C116.708 119.593 135.635 118.664 154.561 118.974C157.17 119.018 160.001 119.151 161.99 120.831C164.821 123.219 164.821 127.509 164.555 131.179C163.096 152.096 161.637 172.968 160.177 193.885C160.001 196.317 159.779 198.882 158.188 200.739C156.949 202.154 155.092 202.862 153.279 203.436C141.605 207.107 128.029 208.124 115.956 206.09C110.959 205.249 108.837 205.913 104.945 209.45C100.921 213.121 97.516 217.454 94.9069 222.275C94.5089 222.982 93.6687 223.822 93.0496 223.292C92.8285 223.071 92.7843 222.761 92.7401 222.452C90.8386 207.151 89.1139 192.425 89.2466 177.036C89.3792 160.94 91.4577 144.932 93.4918 128.968C93.713 127.332 93.9341 125.607 94.8627 124.236C95.7914 122.865 96.8969 121.981 98.7984 121.981" fill="white"/>
<path d="M165.263 127.466C165.175 125.431 164.777 123.265 163.538 121.584C162.168 119.727 160.089 118.843 157.878 118.533C155.269 118.179 152.572 118.268 149.918 118.268C147 118.268 144.081 118.268 141.163 118.312C129.532 118.489 117.946 119.152 106.405 120.258C103.574 120.523 100.744 120.833 97.9142 121.186C97.7373 121.186 97.6047 121.275 97.472 121.407C95.88 121.805 94.6418 122.911 93.89 124.459C93.3152 125.564 93.0941 126.758 92.9172 127.996C92.7403 129.367 92.5634 130.782 92.3866 132.153C91.6348 137.902 90.9273 143.651 90.3082 149.399C89.07 160.941 88.274 172.527 88.6278 184.157C88.9373 195.566 90.1755 206.931 91.5464 218.252C91.7233 219.667 91.8559 221.126 92.077 222.541C92.2097 223.603 93.0941 224.443 94.1997 223.912C95.2168 223.381 95.659 222.187 96.1896 221.259C96.8087 220.153 97.5162 219.092 98.2237 218.031C99.683 215.952 101.275 213.962 103.044 212.149C104.592 210.513 106.272 208.833 108.218 207.639C109.677 206.71 111.269 206.356 113.038 206.401C115.426 206.489 117.77 207.064 120.113 207.329C125.376 207.904 130.682 207.948 135.9 207.462C141.074 207.02 146.248 206.091 151.289 204.676C153.544 204.057 155.977 203.438 157.834 201.934C159.691 200.431 160.355 198.087 160.62 195.832C160.664 195.301 160.753 194.77 160.797 194.195C160.885 194.063 160.885 193.93 160.841 193.753C161.018 191.675 161.106 189.552 161.239 187.474C161.46 184.555 161.637 181.592 161.858 178.674C162.256 172.881 162.654 167.088 163.096 161.295C163.494 155.413 163.936 149.576 164.334 143.695C164.556 140.776 164.732 137.813 164.954 134.895C165.13 132.463 165.396 129.942 165.263 127.466ZM159.426 194.593C159.249 196.805 158.895 199.192 157.171 200.784C155.446 202.332 152.837 202.907 150.67 203.482C150.228 203.615 149.786 203.703 149.388 203.836C149.343 203.747 149.299 203.659 149.211 203.57C146.69 201.448 146.558 197.424 147.973 194.638C149.432 191.719 152.793 189.818 156.021 190.835C157.524 191.321 158.851 192.471 159.514 193.93C159.47 194.151 159.47 194.372 159.426 194.593ZM159.647 191.763C157.746 189.552 154.65 188.668 151.776 189.641C147.928 190.923 145.629 194.77 145.762 198.75C145.806 200.74 146.513 202.819 147.928 204.234C146.469 204.587 144.966 204.897 143.506 205.162L143.462 205.118C143.285 205.03 143.108 204.941 142.931 204.809C142.843 204.764 142.799 204.72 142.71 204.676L142.666 204.632C142.666 204.632 142.622 204.587 142.578 204.587C142.268 204.322 142.003 204.057 141.737 203.791C141.693 203.747 141.693 203.703 141.649 203.703C141.605 203.615 141.516 203.526 141.472 203.482C141.384 203.305 141.251 203.172 141.163 202.996C141.074 202.819 140.986 202.642 140.897 202.509C140.853 202.421 140.809 202.332 140.765 202.244L140.72 202.155C140.72 202.111 140.676 202.111 140.676 202.067C140.588 201.846 140.411 201.669 140.19 201.58C140.057 201.315 139.747 201.227 139.438 201.271C138.465 201.403 137.492 201.536 136.563 201.669C136.342 201.713 136.121 201.713 135.856 201.757C135.723 201.757 135.635 201.801 135.502 201.801C135.502 201.801 135.414 201.801 135.37 201.801C135.37 201.757 135.37 201.713 135.37 201.669C135.325 201.492 135.37 201.315 135.37 201.182C135.458 199.546 135.546 197.91 135.679 196.23C136.961 196.672 138.332 196.849 139.703 196.716C140.057 196.672 140.367 196.451 140.367 196.053C140.367 195.964 140.322 195.832 140.278 195.743C140.72 193.488 141.649 191.321 143.108 189.508C143.329 189.243 143.374 188.845 143.108 188.579C142.976 188.447 142.754 188.358 142.533 188.403C141.605 187.828 140.676 187.209 139.748 186.634C141.693 185.219 143.595 183.804 145.54 182.433C145.629 183.582 146.071 184.688 146.779 185.617V185.661C146.867 185.97 147.265 186.28 147.575 186.103C149.122 185.484 150.759 185.263 152.395 185.351C152.748 185.395 153.058 185.042 153.058 184.688C153.058 184.467 152.97 184.334 152.837 184.201C153.235 182.831 153.721 181.548 154.385 180.31C154.65 180.531 155.004 180.708 155.358 180.841C155.756 180.973 156.154 181.018 156.552 181.062C156.905 181.106 157.347 181.194 157.569 181.46C158.099 182.035 157.436 183.096 157.126 183.627C156.64 184.511 156.154 185.572 156.552 186.545C156.684 186.855 156.95 187.076 157.303 187.032C157.348 187.076 157.348 187.12 157.392 187.12C157.48 187.164 157.569 187.253 157.657 187.297C158.232 187.739 158.718 188.226 159.161 188.8C159.205 188.845 159.249 188.889 159.249 188.933C159.337 189.066 159.47 189.198 159.647 189.243C159.691 189.243 159.735 189.243 159.78 189.243C159.78 190.083 159.691 190.923 159.647 191.763ZM135.414 201.801C135.414 201.757 135.414 201.757 135.414 201.801C135.414 201.757 135.458 201.757 135.414 201.801ZM163.583 135.381C163.185 141.042 162.787 146.658 162.389 152.318C161.593 163.683 160.797 175.048 160.001 186.413C159.957 186.811 159.957 187.208 159.912 187.562C159.382 186.943 158.763 186.368 158.055 185.882C157.967 185.838 157.834 185.793 157.701 185.793C157.613 185.042 158.188 184.334 158.497 183.671C158.939 182.831 159.249 181.814 158.763 180.885C158.365 180.045 157.436 179.779 156.596 179.647C156.154 179.602 155.004 179.514 154.96 178.895C154.915 178.232 154.075 177.966 153.721 178.541C152.748 180.222 151.997 181.99 151.466 183.892V183.936C150.184 183.936 148.857 184.157 147.619 184.599C146.955 183.627 146.602 182.388 146.779 181.239C146.867 180.752 146.336 180.089 145.806 180.487C143.285 182.344 140.72 184.201 138.2 186.059C137.802 186.368 137.758 186.899 138.2 187.208C139.305 187.916 140.411 188.624 141.561 189.331C140.278 191.144 139.394 193.223 138.952 195.389C137.713 195.389 136.519 195.168 135.37 194.682C134.883 194.461 134.397 194.726 134.352 195.257C134.264 196.407 134.22 197.556 134.131 198.706C134.087 199.281 134.043 199.856 134.043 200.475C133.999 200.961 133.954 201.448 134.043 201.934C134.131 202.376 134.352 202.73 134.706 202.951C135.193 203.217 135.812 203.04 136.342 202.951C137.404 202.819 138.421 202.642 139.482 202.509C139.969 203.659 140.676 204.676 141.605 205.472C137.094 206.179 132.539 206.533 127.985 206.489C125.508 206.489 122.988 206.312 120.511 206.091C118.168 205.826 115.824 205.295 113.48 205.162C111.755 205.074 110.075 205.295 108.483 206.047C106.626 206.931 105.034 208.39 103.575 209.806C100.037 213.166 96.9856 217.102 94.5976 221.391C94.3323 221.834 94.1554 222.364 93.7132 222.674C93.6247 222.762 93.5363 222.807 93.4478 222.762C93.3152 222.674 93.3152 221.878 93.271 221.79C93.0941 220.419 92.9172 219.048 92.7845 217.677C92.4307 214.891 92.1212 212.105 91.8117 209.275C91.1926 203.791 90.6619 198.308 90.3523 192.78C90.1312 189.066 89.9986 185.395 89.9544 181.681C94.7303 181.239 98.9756 183.671 102.823 186.324C100.302 189.641 97.6489 192.913 94.9514 196.097C94.3765 196.009 93.9785 196.849 94.4649 197.291C94.5976 197.512 94.8188 197.733 95.0841 197.733C97.2952 199.237 99.5062 200.74 101.717 202.2C102.292 202.597 102.823 201.934 102.646 201.404C105.255 198.087 107.864 194.77 110.517 191.454C111.225 191.852 111.932 192.161 112.64 192.515C115.116 193.576 118.168 194.461 120.688 193.134C122.28 192.294 123.341 190.304 122.943 188.579C124.624 188.845 126.393 188.314 127.587 187.076C129.002 185.572 129.311 183.229 128.471 181.371C130.284 180.885 132.23 180.133 133.158 178.408C133.822 177.215 133.91 175.667 133.203 174.517C134.176 174.163 134.972 173.367 135.458 172.439C136.166 171.024 136.166 169.432 135.591 167.972C135.414 167.486 135.193 167.044 134.927 166.601C136.519 164.833 136.652 162.002 135.281 160.057C135.635 159.526 136.033 158.995 136.387 158.421C138.509 158.376 140.632 158.332 142.754 158.288C143.02 158.465 143.418 158.465 143.639 158.244C145.319 156.165 147.044 154.131 148.724 152.053C148.945 151.787 148.99 151.433 148.769 151.168C149.034 148.957 149.255 146.702 149.52 144.491C149.52 144.447 149.565 144.402 149.565 144.314C149.565 144.225 149.565 144.093 149.609 144.004V143.96C150.051 143.385 149.211 142.545 148.592 143.12C147.442 144.181 146.292 145.243 145.187 146.348C145.452 144.27 145.54 142.191 145.319 140.113C145.275 139.759 145.054 139.45 144.656 139.45C144.523 139.45 144.391 139.494 144.302 139.582C142.224 139.45 140.145 139.45 138.067 139.582C138.73 138.565 139.394 137.592 140.057 136.575C140.101 136.487 140.145 136.398 140.145 136.354C140.676 136 140.322 134.983 139.571 135.16C136.696 135.912 133.822 136.487 130.903 136.885C130.55 136.929 130.284 137.15 130.24 137.46C128.958 139.803 127.675 142.147 126.437 144.447C126.348 144.623 126.348 144.8 126.393 144.933C126.393 145.021 126.348 145.154 126.393 145.243C126.879 147.807 127.808 150.328 129.09 152.627C128.515 153.468 127.985 154.308 127.41 155.148C127.366 155.148 127.277 155.104 127.233 155.104C119.494 154.308 111.623 155.104 104.194 157.536C103.398 157.801 103.751 159.084 104.547 158.818C111.534 156.563 118.964 155.723 126.26 156.342C125.862 157.227 125.287 157.978 124.58 158.642C122.722 158.155 120.821 157.89 118.919 157.801C118.079 157.757 118.079 159.084 118.919 159.128C120.732 159.172 122.545 159.482 124.314 159.924C124.314 159.924 124.314 159.924 124.359 159.968C126.614 161.383 129.002 162.577 131.036 164.258C132.849 165.717 135.148 168.149 134.706 170.714C134.485 171.952 133.645 173.19 132.407 173.411C130.328 171.466 127.808 170.095 125.022 169.387C124.182 169.166 123.828 170.449 124.668 170.67C127.144 171.289 129.4 172.483 131.257 174.207C131.257 174.384 131.39 174.605 131.567 174.694C132.716 175.401 132.539 177.126 131.832 178.099C130.815 179.47 128.869 179.912 127.321 180.31C125.199 178.585 122.899 177.126 120.423 175.976C120.113 175.844 119.715 175.888 119.494 176.197C119.317 176.463 119.406 176.949 119.715 177.126C122.369 178.364 124.845 179.912 127.056 181.858C127.144 181.902 127.189 181.946 127.277 181.99C127.852 183.361 127.675 185.042 126.658 186.147C125.685 187.208 124.137 187.562 122.811 187.208C122.811 187.208 122.811 187.164 122.767 187.164C120.865 184.997 118.389 183.405 115.647 182.521C114.851 182.256 114.497 183.538 115.293 183.803C117.46 184.511 119.406 185.705 121.042 187.297C120.953 187.518 120.998 187.739 121.219 187.96C121.882 188.624 121.838 189.596 121.528 190.437C121.13 191.454 120.246 192.073 119.229 192.338C116.752 192.957 113.966 191.808 111.8 190.702C107.024 188.27 103.132 184.423 98.268 182.167C95.6589 180.973 92.873 180.222 89.9987 180.487C89.9544 173.411 90.2197 166.292 90.7945 159.217C91.2368 153.645 91.8559 148.028 92.5192 142.457C92.873 139.626 93.2267 136.796 93.5805 134.01C93.7574 132.64 93.9343 131.269 94.1111 129.898C94.288 128.66 94.3765 127.377 94.7745 126.183C95.3936 124.237 96.7644 122.69 98.8871 122.645C99.0639 122.645 99.2408 122.557 99.3293 122.469C110.119 121.23 120.998 120.39 131.832 119.992C137.448 119.771 143.064 119.683 148.68 119.727C151.333 119.727 154.031 119.683 156.728 119.86C158.895 120.037 161.106 120.567 162.477 122.38C163.715 123.972 163.981 126.095 164.025 128.085C164.025 130.428 163.76 132.905 163.583 135.381ZM103.884 187.076C104.371 187.43 104.857 187.783 105.343 188.093C106.626 189.022 107.952 189.906 109.279 190.746C106.714 194.019 104.149 197.247 101.585 200.519C99.7273 199.281 97.9142 198.043 96.0569 196.805C98.7544 193.621 101.363 190.392 103.884 187.076ZM130.151 151.92C128.913 149.709 128.073 147.365 127.587 144.889C128.825 142.589 130.063 140.29 131.345 138.034C133.645 137.725 135.944 137.283 138.244 136.752C136.254 139.715 134.264 142.634 132.318 145.596C132.097 145.729 131.92 146.039 132.009 146.26C132.009 146.525 132.274 146.746 132.539 146.835C135.016 148.869 137.713 150.638 140.588 152.097C140.941 152.274 141.295 152.097 141.472 151.876C141.516 151.832 141.605 151.787 141.649 151.743C143.772 149.532 145.938 147.365 148.194 145.287C147.973 147.321 147.752 149.311 147.486 151.345C147.486 151.434 147.486 151.478 147.53 151.566C146.027 153.379 144.568 155.192 143.064 156.961C140.853 157.005 138.598 157.05 136.387 157.094C136.298 157.094 136.254 157.094 136.21 157.138C135.989 157.094 135.723 157.182 135.591 157.448C134.308 159.305 133.07 161.162 131.788 163.064C131.036 162.489 130.24 161.914 129.4 161.428C128.338 160.764 127.277 160.145 126.172 159.482C126.348 159.261 126.481 158.995 126.658 158.774C127.94 156.829 129.267 154.839 130.549 152.893C130.682 152.451 130.461 152.097 130.151 151.92ZM136.519 147.321C136.564 145.552 136.564 143.828 136.608 142.059C136.608 141.882 136.564 141.749 136.475 141.661C136.696 141.351 136.873 141.042 137.094 140.732C137.183 140.776 137.271 140.776 137.36 140.776C139.571 140.599 141.782 140.599 143.993 140.732C144.17 142.943 144.037 145.198 143.595 147.365V147.409C141.207 147.63 138.863 147.542 136.519 147.321ZM142.489 148.869C141.87 149.488 141.295 150.107 140.676 150.726C139.526 150.107 138.377 149.444 137.271 148.736C138.996 148.869 140.765 148.913 142.489 148.869ZM135.237 143.518C135.193 144.756 135.193 146.039 135.148 147.277C134.618 146.879 134.043 146.437 133.557 146.039C134.131 145.198 134.706 144.358 135.237 143.518ZM132.672 163.815C133.247 162.931 133.866 162.047 134.441 161.206C135.149 162.489 135.016 164.214 134.131 165.407C133.689 164.833 133.203 164.346 132.672 163.815C132.672 163.86 132.672 163.815 132.672 163.815ZM110.119 142.722C110.34 143.032 110.164 143.474 109.898 143.651C109.589 143.827 109.191 143.695 108.97 143.429C107.643 141.484 106.316 139.538 104.945 137.592C103.221 138.698 101.452 139.848 99.7273 140.953C100.656 142.766 101.54 144.579 102.469 146.392C102.469 146.437 102.513 146.481 102.513 146.525C104.326 145.464 106.139 144.358 107.952 143.297C108.704 142.855 109.367 144.004 108.616 144.447C106.714 145.596 104.813 146.746 102.867 147.852C102.425 148.117 101.983 147.807 101.894 147.409C101.673 147.409 101.408 147.321 101.319 147.1C100.391 145.287 99.5062 143.43 98.5775 141.616C98.0026 141.616 97.6489 140.732 98.268 140.378C98.268 140.378 98.3122 140.378 98.3122 140.334C98.3564 140.246 98.4448 140.157 98.5333 140.113C98.6217 140.069 98.7102 140.024 98.7986 140.024C100.656 138.83 102.513 137.637 104.371 136.398C104.592 136.221 104.857 136.266 105.034 136.398C105.343 136.221 105.741 136.354 105.918 136.619C107.289 138.654 108.704 140.688 110.119 142.722ZM141.295 143.341C141.561 143.783 141.472 144.358 141.118 144.668C140.941 144.8 140.765 144.933 140.543 144.933C140.499 144.933 140.455 144.977 140.411 144.977C140.234 145.021 140.101 145.021 139.924 144.977C139.836 144.977 139.703 144.933 139.615 144.845C139.173 144.579 138.996 144.093 139.084 143.606C139.128 143.43 139.261 143.208 139.394 143.076C139.482 142.987 139.571 142.943 139.659 142.899C139.747 142.855 139.836 142.81 139.969 142.81C140.146 142.766 140.278 142.766 140.455 142.81C140.543 142.81 140.676 142.855 140.765 142.899C141.03 142.987 141.207 143.164 141.295 143.341ZM102.867 141.882C102.867 141.837 102.867 141.793 102.867 141.749C102.867 141.705 102.823 141.705 102.823 141.661C102.779 141.484 102.779 141.263 102.823 141.086C102.867 140.909 102.955 140.732 103.088 140.599C103.221 140.467 103.353 140.378 103.53 140.334C103.574 140.334 103.619 140.29 103.619 140.29C103.707 140.29 103.796 140.246 103.884 140.246C103.973 140.246 104.061 140.246 104.149 140.29C104.194 140.29 104.194 140.29 104.238 140.334C104.415 140.422 104.547 140.467 104.68 140.599C104.813 140.732 104.901 140.865 104.945 141.042C104.99 141.174 104.99 141.263 104.945 141.395C104.901 141.528 104.857 141.616 104.768 141.705C104.724 141.749 104.68 141.749 104.636 141.793C104.636 141.838 104.636 141.882 104.636 141.926C104.636 142.014 104.592 142.103 104.547 142.191C104.459 142.324 104.326 142.457 104.149 142.501C104.017 142.545 103.84 142.545 103.707 142.545C103.663 142.545 103.663 142.589 103.619 142.589C103.574 142.589 103.486 142.589 103.442 142.634C103.265 142.634 103.088 142.545 102.955 142.457C102.911 142.412 102.867 142.324 102.823 142.236C102.867 142.059 102.867 141.97 102.867 141.882Z" fill="#3F4254"/>
<path d="M125.464 25.6697C124.845 16.339 113.436 17.8424 106.449 17.3118C96.1898 16.56 85.842 16.4273 75.5385 16.958C63.5103 17.5329 45.2027 16.7812 35.4299 25.0063C30.8309 28.8978 28.7967 35.1772 28.6198 41.2355C28.3987 47.2938 29.7696 53.2636 30.6982 59.1892C32.9535 73.5611 32.9535 88.2868 30.6098 102.659C29.858 107.346 29.0178 112.653 31.8922 116.412C33.661 118.667 36.4028 119.861 39.1445 120.701C50.7747 124.327 63.2892 123.531 75.45 122.691C82.835 122.16 90.5738 120.922 97.9587 121.011C103.973 121.099 109.279 125.742 113.082 130.297C116.885 134.852 119.627 140.158 122.369 145.421C121.086 142.988 123.872 134.012 124.27 131.137C124.934 126.096 125.553 121.011 126.172 115.969C127.322 106.683 128.25 97.9271 127.896 88.6406C127.056 67.6798 126.879 46.719 125.464 25.6697Z" fill="white"/>
<path d="M79.4307 96.9972C79.077 96.2455 80.2268 95.5379 80.5805 96.3339C82.1725 99.739 86.1966 100.977 89.69 100.093C93.6699 99.1199 96.6328 96.0244 98.8881 92.7521C99.3745 92.0445 100.524 92.7078 100.038 93.4154C98.8881 95.0516 97.6499 96.6436 96.1906 97.9702C93.6258 100.27 90.2649 101.95 86.7272 101.685C83.7202 101.464 80.7574 99.7832 79.4307 96.9972ZM32.91 72.8525C36.6688 73.6485 40.3834 74.4887 44.1422 75.2847C44.9824 75.4616 45.3362 74.1791 44.496 74.0022C40.7372 73.2062 37.0226 72.366 33.2638 71.57C32.4236 71.3932 32.0698 72.6756 32.91 72.8525ZM90.1322 51.2726C90.2649 51.4052 90.3092 51.5821 90.3092 51.759C90.3092 51.9359 90.2207 52.0685 90.1322 52.2454C89.5574 52.9529 88.9825 53.7048 88.3634 54.4123C88.1423 54.7218 87.6559 54.6334 87.4348 54.4123C87.3022 54.2796 87.2579 54.1027 87.2579 53.9258C87.2579 53.7489 87.3464 53.6162 87.4348 53.4393C88.0097 52.7318 88.5846 51.9801 89.2037 51.2726C89.4248 50.963 89.8669 51.0514 90.1322 51.2726ZM84.9584 53.6605C85.2679 53.7931 85.7102 53.7489 85.8871 53.4393C86.1082 52.9529 86.3735 52.4665 86.6831 52.0243C86.7715 51.9358 86.8157 51.8032 86.9042 51.7148C86.9042 51.6705 86.9483 51.6706 86.9483 51.6263C86.9926 51.5821 87.0368 51.5379 87.081 51.4937C87.2579 51.2726 87.4348 51.0515 87.6559 50.8746C87.9212 50.6093 87.9212 50.167 87.6559 49.9459C87.3906 49.6806 86.9926 49.6806 86.7272 49.9459C85.887 50.7861 85.2237 51.759 84.7373 52.8203C84.6488 52.9972 84.6046 53.1298 84.6489 53.3509C84.6931 53.3951 84.8257 53.572 84.9584 53.6605ZM92.1665 49.3269C92.3876 49.6364 92.5645 49.9459 92.7414 50.2554C92.7856 50.4323 92.874 50.565 92.9182 50.7419C93.0066 51.0957 93.4047 51.3168 93.7142 51.1841C94.068 51.0957 94.2891 50.7419 94.1564 50.3881C93.8911 49.5037 93.4489 48.7077 92.8298 48.0886C92.6087 47.8233 92.1222 47.8233 91.9011 48.0886C91.6358 48.354 91.6358 48.7519 91.9011 49.0172C92.0338 49.1057 92.1222 49.1942 92.1665 49.3269ZM87.4348 46.8062C87.8328 46.8062 88.275 46.8505 88.673 46.8947C88.8057 46.8947 88.9383 46.9389 89.0267 46.9389C89.0709 46.9389 89.1594 46.9389 89.2037 46.9831C89.2479 47.0273 89.2921 47.0716 89.3363 47.1158C89.6459 47.2927 90.088 47.2042 90.2649 46.8947C90.3976 46.6294 90.3976 46.364 90.2649 46.1428C90.1323 45.966 89.9554 45.8333 89.7343 45.7449C89.5132 45.7007 89.2478 45.6564 89.0267 45.6122C88.4961 45.5238 87.9655 45.4795 87.4348 45.4795C87.081 45.4795 86.7715 45.7891 86.7715 46.1428C86.8157 46.5408 87.081 46.8062 87.4348 46.8062ZM77.3524 68.165C77.3524 68.2535 77.3966 68.342 77.4408 68.4304C77.485 68.5188 77.5735 68.6072 77.6177 68.6957C77.7062 68.7841 77.7945 68.8726 77.883 68.9168C77.9714 68.961 78.1041 69.0052 78.1925 69.0495C78.281 69.0937 78.4136 69.0937 78.5463 69.0937C78.5905 69.0937 78.5905 69.0937 78.6347 69.0937C78.7232 69.0937 78.8117 69.0937 78.9001 69.0495C78.9885 69.0052 79.1212 68.961 79.2096 68.9168C79.3865 68.8283 79.4308 68.74 79.5634 68.5631C79.6519 68.4746 79.6519 68.3861 79.6961 68.2535C79.7403 68.165 79.7403 68.0324 79.7403 67.8998C79.7403 67.8113 79.7403 67.7228 79.7403 67.6344C79.7403 67.546 79.6961 67.4575 79.6961 67.369C79.6519 67.2806 79.6519 67.1921 79.6077 67.1479C79.5635 67.0595 79.5192 67.0153 79.475 66.9711C79.3866 66.8826 79.2981 66.7942 79.2096 66.75C79.1212 66.7058 79.077 66.6616 78.9885 66.6616C78.9443 66.6616 78.9443 66.6615 78.9001 66.6173C78.8117 66.5731 78.679 66.5731 78.5463 66.5731C78.281 66.5731 78.0599 66.6616 77.8388 66.7942C77.7946 66.8385 77.7062 66.8826 77.6177 66.9711C77.5735 67.0153 77.485 67.1037 77.4408 67.1922C77.4408 67.2364 77.3966 67.2364 77.3966 67.2806C77.3524 67.3691 77.3081 67.4575 77.3081 67.546C77.3081 67.5902 77.3081 67.6786 77.3081 67.7228C77.3081 67.767 77.2639 67.8113 77.3081 67.8998C77.3081 67.9882 77.3081 68.0766 77.3524 68.165ZM128.649 94.2998C128.605 98.5008 128.295 102.702 127.897 106.859C127.499 111.148 126.924 115.393 126.394 119.639C126.128 121.805 125.863 123.928 125.598 126.095C125.377 127.996 125.155 129.898 124.846 131.755C124.448 134.099 123.785 136.443 123.342 138.786C123.077 140.024 122.856 141.307 122.768 142.589C122.723 143.385 122.635 144.402 122.989 145.11C123.387 145.862 122.237 146.525 121.839 145.773C120.645 143.474 119.451 141.174 118.169 138.963C115.648 134.541 112.729 130.34 108.971 126.891C107.202 125.255 105.256 123.84 103.045 122.867C101.984 122.38 100.878 122.071 99.7725 121.85C98.4901 121.629 97.1634 121.673 95.881 121.717C90.3091 121.85 84.7373 122.557 79.1655 123.088C73.6378 123.618 68.0659 123.972 62.494 124.061C57.0548 124.193 51.5714 123.972 46.1764 123.044C43.5231 122.601 40.8698 121.982 38.305 121.098C36.1382 120.39 33.9713 119.417 32.3351 117.781C28.8859 114.42 29.0628 109.335 29.6819 104.913C30.0356 102.26 30.5221 99.6505 30.8317 96.9972C31.1854 94.1671 31.4065 91.2927 31.5834 88.4184C31.893 82.7138 31.8488 77.0093 31.495 71.3489C31.097 65.6444 30.2567 59.9841 29.3281 54.368C27.7361 44.9047 26.5864 33.761 33.5734 26.0665C36.2266 23.1479 39.897 21.2464 43.5674 19.9198C47.5031 18.5489 51.6599 17.7971 55.8166 17.3549C60.0619 16.8685 64.3071 16.6916 68.5524 16.5589C73.0629 16.4262 77.5734 16.1609 82.084 16.0724C87.9654 15.9398 93.8469 15.984 99.7283 16.2494C102.337 16.382 104.902 16.5589 107.467 16.6916C109.015 16.78 110.607 16.78 112.154 16.8243C115.294 16.9127 118.567 17.1338 121.485 18.4604C124.448 19.8313 126.04 22.4404 126.261 25.6685C126.35 26.774 126.394 27.8796 126.482 28.9851C127.013 37.6967 127.367 46.4082 127.632 55.1198C127.897 63.8756 128.118 72.6314 128.428 81.343C128.428 85.6767 128.693 90.0104 128.649 94.2998ZM127.322 91.5581C127.278 87.1802 127.013 82.8022 126.88 78.4243C126.615 69.6243 126.349 60.8244 126.084 52.0686C125.775 43.2685 125.421 34.4685 124.846 25.6685C124.757 24.2092 124.315 22.7498 123.387 21.6001C121.574 19.3448 118.434 18.7257 115.692 18.4162C112.641 18.0624 109.545 18.1951 106.494 17.974C100.745 17.576 94.9966 17.3549 89.2478 17.3106C83.9413 17.2664 78.679 17.5318 73.3724 17.7087C65.28 18.0182 57.0549 17.974 49.095 19.6986C45.2478 20.5389 41.489 21.777 38.1282 23.8554C34.4578 26.1991 31.9372 29.6483 30.5663 33.7609C29.0186 38.4926 29.0628 43.4896 29.6377 48.3539C30.301 53.8816 31.4949 59.3208 32.114 64.8484C33.3965 75.9922 33.308 87.3128 31.8929 98.4566C31.5834 100.977 31.0969 103.454 30.7874 105.974C30.5221 108.185 30.3894 110.529 30.9201 112.696C31.495 114.995 32.8216 116.808 34.8116 118.047C36.8015 119.329 39.1453 119.992 41.4448 120.611C44.8056 121.496 48.2105 122.071 51.6598 122.336C51.6598 122.292 51.6598 122.248 51.6598 122.203C51.6598 118.312 51.6157 114.42 51.5272 110.529C51.2619 96.9088 50.5985 83.3329 50.0236 69.7128C44.4518 68.961 38.8799 68.2093 33.308 67.4576C32.9542 67.4133 32.7773 66.9711 32.8658 66.6616C32.9542 66.2636 33.308 66.1309 33.6618 66.2193C39.4105 67.0153 45.1151 67.7671 50.8639 68.5631C51.1734 68.6073 51.3503 68.961 51.3503 69.1821C51.5271 73.0736 51.6599 76.965 51.8367 80.8565C52.0578 86.1188 52.2789 91.4254 52.4558 96.6877L52.5001 96.6436C57.895 92.7521 63.7765 89.5239 69.9674 87.0475C70.0117 87.0475 70.0559 87.0033 70.1001 87.0033C70.3212 85.8536 70.4981 84.7038 70.7192 83.554C71.8247 77.5842 72.9302 71.57 74.0358 65.6002C70.6307 63.6987 67.1815 61.7529 63.7765 59.8514C63.29 59.5861 63.3785 58.9671 63.7765 58.7017C65.678 57.2867 67.5794 55.8715 69.481 54.4565C73.0187 51.8032 76.5122 49.1057 80.0499 46.4966C81.7745 45.2142 83.4549 43.7991 85.3564 42.8263C86.3735 42.2956 87.3906 41.8976 88.4961 41.6323C87.7885 41.2785 87.081 40.7921 86.4177 40.0846C84.5162 38.1388 83.6318 31.9479 87.5675 28.8082C89.6017 34.2916 92.8297 34.557 96.5443 35.4856C97.6056 35.0434 98.667 34.6454 99.7725 34.3358C102.514 33.5398 105.565 33.7168 107.511 36.0605C109.192 38.0947 109.545 40.7479 109.103 43.3127C108.617 46.1429 107.29 48.7962 105.742 51.1841C105.079 52.2012 104.371 53.1741 103.62 54.1469C104.814 54.1912 105.787 54.8986 106.45 55.8715C107.157 56.9328 107.29 58.3037 107.157 59.5419C107.025 60.9128 106.671 62.3279 106.14 63.5661C105.212 65.7329 103.222 67.5017 100.79 67.369C100.701 67.5459 100.569 67.6344 100.392 67.7228C100.082 68.1208 99.7283 68.5188 99.3745 68.8726C99.3745 68.9168 99.4187 68.9611 99.4187 69.0053C100.303 75.4174 101.409 81.7852 102.691 88.1088C102.824 88.1088 102.956 88.1531 103.045 88.2415C107.909 92.133 112.552 96.334 116.886 100.8C117.461 101.419 116.532 102.348 115.957 101.729C111.845 97.4838 107.467 93.5039 102.868 89.7893C101.674 91.735 99.5514 92.8847 97.3846 93.6365C94.864 94.5209 92.2107 95.14 89.6016 95.7149C86.7715 96.2897 83.8087 96.6877 80.9343 96.3339C80.7132 96.2897 80.4478 96.2455 80.2267 96.2455C80.2267 96.4224 80.1826 96.5993 80.0499 96.732C77.7504 98.9873 73.9031 99.5179 71.1614 97.7491C68.4639 96.0245 67.1815 92.4867 68.1543 89.4355C68.1985 89.3028 68.287 89.1702 68.3754 89.126C63.0247 91.4255 57.9392 94.3441 53.2075 97.7491C52.9422 97.926 52.7211 97.8818 52.5442 97.7491C52.7211 102.835 52.8538 107.92 52.9423 113.005C54.7553 110.971 57.9392 110.352 60.3272 111.767C61.0789 112.209 60.4156 113.359 59.6639 112.917C57.7181 111.767 54.9764 112.342 53.694 114.199C53.5171 114.42 53.2518 114.553 52.9864 114.509C53.0306 116.499 53.0307 118.445 53.0307 120.434C54.7111 118.887 57.2317 118.312 59.3985 119.108C59.7523 119.241 59.9734 119.55 59.8407 119.904C59.7523 120.213 59.3544 120.479 59.0448 120.346C57.0991 119.639 54.8438 120.258 53.5172 121.85C53.3845 121.982 53.2518 122.026 53.075 122.026C53.075 122.071 53.075 122.115 53.075 122.159C53.075 122.248 53.0749 122.292 53.0307 122.38C59.9734 122.867 66.9604 122.469 73.9031 122.026C79.3865 121.673 84.8258 120.965 90.3092 120.523C93.0067 120.302 95.7926 120.125 98.5343 120.213C100.745 120.302 102.868 121.009 104.814 122.026C108.971 124.238 112.376 127.819 115.161 131.534C117.638 134.806 119.672 138.388 121.574 142.014C121.706 140.334 122.104 138.654 122.458 137.062C122.944 134.718 123.608 132.33 123.917 129.942C125.023 121.319 126.261 112.696 126.969 104.073C127.145 100.049 127.367 95.8034 127.322 91.5581ZM69.7905 88.7279V88.6837C69.3925 88.8606 68.9946 88.9932 68.6408 89.1701C69.083 89.1259 69.5694 89.4355 69.3925 89.9661C68.5966 92.4425 69.5694 95.3611 71.7804 96.7761C73.9473 98.147 76.9544 97.8374 78.9001 96.1128C75.1855 95.1842 71.6921 92.9732 70.1001 89.4355C69.879 89.3028 69.702 89.0374 69.7905 88.7279ZM75.3624 65.556C75.2297 66.3078 75.0971 67.1037 74.9202 67.8555C73.6378 74.754 72.3553 81.6525 71.1171 88.5952C71.1171 88.6394 71.1614 88.6395 71.1614 88.6837C72.1343 90.8506 73.8147 92.4867 75.8489 93.5922C80.3152 96.0244 85.5332 95.4938 90.3534 94.3882C92.7413 93.8576 95.1292 93.2827 97.4287 92.3983C99.0649 91.7792 100.657 90.8505 101.63 89.3912C101.541 89.3028 101.453 89.2143 101.409 89.0374C100.126 82.8022 99.065 76.5229 98.1363 70.1993C95.2177 72.8967 91.5915 74.8425 87.7001 75.7269C87.3905 76.1691 86.9484 76.4344 86.4177 76.6113C85.7986 76.8324 85.0026 76.9651 84.3393 76.9651C83.676 76.9651 83.0127 76.7882 82.4821 76.3018C82.2167 76.0365 82.0398 75.7269 81.9513 75.4174C81.7744 75.5058 81.5091 75.55 81.3323 75.4174C81.0227 75.2405 80.8901 74.7982 81.1112 74.4887C81.8187 73.4274 82.9684 72.7641 84.2066 72.6314C85.268 72.4988 86.3734 72.7641 87.2579 73.4274C87.5674 73.6485 87.7885 73.9581 87.9212 74.3118C92.078 73.2505 95.8811 70.951 98.7112 67.7671C97.9152 67.5018 97.2077 66.9711 96.677 66.3078C95.7926 65.158 95.5715 63.6987 95.7926 62.2836C96.0579 60.7358 96.8539 59.2766 97.871 57.9942L97.2519 57.8615C94.2006 54.6333 95.7484 51.1841 95.4831 48.2655C95.1293 44.2414 93.2278 43.6222 90.8841 42.8263H90.8398C88.6288 42.8705 86.5504 43.6665 84.6931 44.8605C82.8801 46.0102 81.1996 47.3811 79.5192 48.6635C77.7945 49.946 76.0699 51.2725 74.3453 52.5549C71.3382 54.8544 68.2871 57.1098 65.2358 59.3651C68.5082 61.2223 71.7362 63.0354 75.0086 64.8484C75.3182 64.9811 75.4066 65.2907 75.3624 65.556ZM104.946 50.0786C107.202 46.4082 109.722 40.5268 106.229 36.8564C104.239 34.8222 101.364 35.3529 98.9765 36.1931C98.8438 36.2373 98.7112 36.2815 98.5785 36.3258C99.9936 36.8564 101.497 37.6082 103.001 38.8906C105.875 41.2786 106.052 45.7891 104.946 50.0786ZM97.0751 62.9028C96.9424 64.5832 97.9594 66.4405 99.6841 66.5731C99.7283 66.5289 99.7725 66.4847 99.8168 66.4404C100.038 66.1309 100.436 66.0867 100.701 66.2193C103.089 66.5289 104.681 64.141 105.3 62.151C105.831 60.3822 106.45 57.8172 104.991 56.3137C103.443 54.6333 101.365 56.358 100.171 57.5519C98.7113 59.0112 97.2077 60.7359 97.0751 62.9028ZM86.5061 74.6214C86.5504 74.6214 86.5946 74.6213 86.6388 74.5771C86.5946 74.5329 86.5504 74.4886 86.5061 74.4444C86.2408 74.2233 85.9755 74.0907 85.666 74.0022C85.1795 73.8695 84.6931 73.8253 84.2066 73.9138C84.2066 73.958 84.2066 74.0023 84.2066 74.0907C84.2066 74.4445 83.8971 74.7983 83.5433 74.7541C83.4549 74.7541 83.4991 74.7098 83.4549 74.7541C83.4107 74.7541 83.4107 74.754 83.3665 74.8425C83.278 74.9751 83.278 75.0193 83.3222 75.1077C83.3664 75.1962 83.4549 75.3289 83.5876 75.4174C83.7203 75.5058 83.8971 75.5942 84.074 75.5942C84.5604 75.6827 85.0468 75.55 85.5333 75.4615C85.7102 75.4173 85.887 75.3731 86.0639 75.3288C85.9755 75.0193 86.0639 74.6656 86.5061 74.6214ZM100.568 59.8073C101.409 60.2937 102.249 60.7801 103.089 61.2223C103.399 61.3992 103.841 61.3108 104.018 61.0012C104.195 60.6917 104.106 60.2936 103.797 60.0725C102.956 59.5861 102.116 59.0997 101.276 58.6575C100.967 58.4806 100.524 58.569 100.347 58.8786C100.171 59.2323 100.259 59.6304 100.568 59.8073ZM99.5072 61.9741C100.613 62.5047 101.674 63.0796 102.78 63.6102C103.089 63.7871 103.531 63.6987 103.708 63.3891C103.885 63.0796 103.797 62.6374 103.487 62.4605C102.382 61.9299 101.32 61.355 100.215 60.8244C99.9052 60.6475 99.463 60.7359 99.2861 61.0455C99.1092 61.355 99.1977 61.7972 99.5072 61.9741ZM44.7171 108.716C44.6729 111.944 44.5402 115.128 44.3633 118.356C44.3191 119.196 45.6457 119.196 45.6899 118.356C46.2648 107.124 46.2206 95.8476 45.6015 84.5711C45.4246 81.343 45.2035 78.159 44.9382 74.9309C44.8497 74.0907 43.5231 74.0907 43.6116 74.9309C44.5844 86.1631 44.9382 97.4395 44.7171 108.716ZM77.4408 120.302C74.2569 118.002 71.7363 114.951 68.7735 112.342C66.0318 109.91 62.8036 107.92 59.089 107.433C57.099 107.168 55.1091 107.478 53.3402 108.362C52.5885 108.76 53.2518 109.866 54.0035 109.512C57.099 107.964 60.7694 108.76 63.7322 110.352C66.9604 112.077 69.4367 114.774 72.0015 117.339C73.5051 118.843 75.0528 120.258 76.7775 121.496C77.485 121.938 78.1483 120.788 77.4408 120.302ZM61.2559 116.012C58.7795 114.42 55.3744 114.73 53.1634 116.676C52.5001 117.251 53.4729 118.179 54.092 117.604C55.8608 116.057 58.6026 115.924 60.5926 117.162C61.3001 117.649 62.0076 116.499 61.2559 116.012Z" fill="#3F4254"/>
</svg>
