<svg width="201" height="162" viewBox="0 0 201 162" fill="none" xmlns="http://www.w3.org/2000/svg">
<path d="M26.7933 89.4955C17.9878 91.5308 8.06078 86.9619 3.90723 78.9455C-0.287854 70.9291 1.66433 60.213 8.39309 54.1488C15.2049 48.0016 26.2118 46.174 29.9915 37.8254C33.8543 29.2275 27.7071 18.0545 32.816 10.1212C35.8065 5.51075 41.663 3.72473 47.1042 3.26784C59.4402 2.22945 72.1501 6.46607 81.4125 14.6901C89.8858 22.208 95.4515 32.758 104.714 39.2376C116.635 47.5447 133.456 48.2508 143.134 59.0915C150.611 67.4817 151.691 80.3992 147.412 90.7831C143.093 101.167 134.163 109.1 124.111 114.126C114.059 119.152 102.886 121.478 91.7964 123.222C85.3169 124.219 78.5881 125.008 72.3578 123.015C65.4629 120.813 60.1048 115.497 54.7052 110.679C46.3981 103.285 37.3848 96.7642 27.7901 91.157" fill="#F4F6F9"/>
<path d="M126.728 84.4701C126.312 84.8024 125.606 85.3838 124.734 86.09C124.609 85.8823 124.443 85.6746 124.235 85.55C122.989 84.6777 121.328 85.7161 119.957 86.4638C116.468 88.2913 112.315 87.7514 108.41 88.2913C108.037 88.3329 107.621 88.4159 107.247 88.499L107.289 79.3197C107.455 77.949 107.123 76.4537 106.541 75.623L107.247 75.2076C108.494 74.9584 109.657 74.5846 110.82 74.1277L110.155 75.083C109.906 75.8722 110.778 76.6199 111.567 76.6199C111.775 76.6199 111.941 76.5783 112.149 76.5368L113.021 76.1214C113.104 76.0799 113.062 75.6645 112.979 75.1661C112.979 75.1661 112.979 75.1661 113.021 75.1661C113.644 75.5399 114.433 75.5399 115.098 75.3738C115.679 75.2492 116.219 74.9584 116.759 74.6677C117.133 74.5846 117.507 74.46 117.839 74.2939C120.663 72.9232 122.532 69.8911 122.782 66.7759C122.823 66.3606 122.823 65.9452 122.782 65.5714C122.865 65.4468 122.989 65.3222 123.073 65.1561C123.612 64.2423 123.82 62.9962 123.28 62.0824C122.906 61.4179 122.2 61.0025 121.453 60.8779C121.37 60.6702 121.245 60.421 121.162 60.2133C120.373 58.3858 119.583 56.4336 117.714 55.4783C116.302 54.7722 114.641 54.8553 113.062 54.9799L110.986 57.3889C112.024 55.9352 113.146 54.606 114.225 53.1938C116.261 50.5356 114.433 52.5708 116.011 49.7464C117.631 46.7974 118.379 42.8515 117.465 39.6117C117.091 38.2826 116.178 36.8704 114.807 36.8704C113.976 36.8704 113.27 37.4104 112.813 38.0749C112.356 38.7395 112.107 39.5286 111.899 40.3178C107.912 53.0277 102.056 59.1749 90.6333 66.0283L89.3456 65.8206C85.2336 66.9421 82.0354 70.1819 79.6264 73.6708C77.2173 77.1598 75.4313 81.0641 72.9807 84.5531C70.8208 87.5852 68.2041 90.2435 65.5459 92.9018C64.5075 91.6973 63.386 90.5758 62.223 89.4543L61.1846 90.0774C60.3955 83.224 57.5295 59.7565 57.5295 59.7565C62.1815 57.5551 71.5685 52.9446 71.5685 52.9446C64.3413 46.9635 56.408 39.944 48.2671 33.1322C42.1198 27.9818 32.1097 26.1542 26.4609 33.0076C26.0456 33.506 25.6718 34.046 25.3395 34.6275C23.6365 37.5765 23.2627 41.1485 23.5534 44.5544C23.8026 47.7942 24.6334 50.9509 25.3395 54.1492C23.055 54.1907 20.7291 55.3122 19.4415 57.2643C17.5308 60.0887 18.0707 64.2838 20.6459 66.5683C21.9751 67.7313 23.7611 68.3128 25.5056 68.2712C24.0103 75.0831 22.515 81.1888 20.812 87.5437H21.7259C14.0834 98.5921 8.72529 107.855 7.39616 121.229C6.52391 130.118 7.23002 129.204 1.16583 135.766C1.16583 135.766 25.7549 122.932 35.848 141.374C51.0084 168.995 84.9429 157.822 85.4413 155.08C85.9398 152.339 85.6905 149.473 86.5628 146.773C88.3903 140.875 94.6206 137.802 99.3141 133.856C108.369 126.213 111.401 114.999 109.906 103.618L109.823 103.576C115.222 103.576 121.037 98.0107 124.152 94.2309C125.772 92.2788 126.312 91.4896 127.475 89.2467C128.638 87.0037 128.389 85.0931 128.721 82.601C127.101 83.9301 128.264 83.224 126.728 84.4701Z" fill="white"/>
<path d="M144.422 7.46338C144.422 11.3677 141.265 14.5244 137.36 14.5244C133.456 14.5244 130.299 11.3677 130.299 7.46338C130.299 3.55904 133.456 0.402344 137.36 0.402344C141.265 0.402344 144.422 3.55904 144.422 7.46338ZM180.35 78.4891C178.398 78.4891 176.819 80.0674 176.819 82.0196C176.819 83.9718 178.398 85.5501 180.35 85.5501C182.302 85.5501 183.88 83.9718 183.88 82.0196C183.88 80.0674 182.302 78.4891 180.35 78.4891Z" fill="#FFE945"/>
<path d="M177.027 19.4254C176.985 19.4254 176.985 19.4254 176.985 19.4254C177.027 19.3839 177.027 19.3839 177.027 19.4254ZM177.65 19.0516C177.692 19.0516 177.692 19.0516 177.65 19.0516C177.65 19.0101 177.692 19.0101 177.692 19.0101C177.692 19.0101 177.692 19.0101 177.65 19.0516ZM176.487 19.3423C176.529 19.3423 176.529 19.3423 176.487 19.3423C176.529 19.3839 176.529 19.3839 176.529 19.3839C176.529 19.3424 176.487 19.3423 176.487 19.3423ZM177.858 20.4223C177.152 20.7546 176.362 20.7546 175.698 20.2977C175.449 20.4223 175.158 20.3807 174.992 20.173C174.203 19.2593 174.161 17.9717 174.909 17.0579C175.49 16.3518 176.57 16.0195 177.442 16.3103C178.315 16.6425 178.938 17.4317 179.021 18.3455C179.145 19.2593 178.647 20.09 177.858 20.4223ZM177.318 17.6394L177.359 17.6809C177.401 17.6809 177.359 17.6809 177.318 17.6394ZM177.816 18.6778C177.816 18.6362 177.816 18.6363 177.816 18.6363C177.816 18.5947 177.816 18.5532 177.816 18.5116C177.816 18.5532 177.858 18.5532 177.816 18.4701C177.816 18.4286 177.816 18.4286 177.816 18.387C177.816 18.3455 177.775 18.304 177.775 18.2624C177.775 18.2209 177.775 18.2209 177.775 18.2209C177.733 18.1794 177.733 18.0963 177.692 18.0963C177.692 18.0547 177.65 18.0132 177.608 17.9717C177.608 17.9717 177.525 17.8471 177.567 17.9301C177.608 18.0132 177.567 17.9301 177.525 17.8886C177.484 17.8471 177.484 17.8471 177.442 17.8055C177.401 17.764 177.401 17.764 177.359 17.7225L177.318 17.6809C177.276 17.6394 177.193 17.6394 177.193 17.5979C177.152 17.5979 177.152 17.5563 177.11 17.5563C177.027 17.5563 176.985 17.5148 176.902 17.5148H176.861C176.819 17.5148 176.819 17.5148 176.778 17.5148C176.736 17.5148 176.695 17.5148 176.653 17.5148H176.57C176.529 17.5148 176.487 17.5148 176.446 17.5563C176.404 17.5563 176.404 17.5563 176.362 17.5979C176.321 17.5979 176.321 17.5979 176.279 17.6394C176.321 17.6394 176.321 17.6394 176.362 17.5979C176.321 17.5979 176.196 17.6809 176.113 17.7225C176.113 17.7225 176.113 17.7225 176.072 17.7225C176.072 17.7225 176.03 17.764 175.989 17.764C175.947 17.8055 175.864 17.8886 175.822 17.9301C175.822 17.9717 175.781 17.9717 175.781 18.0132C175.739 18.0548 175.739 18.0963 175.698 18.1378C175.656 18.2209 175.656 18.304 175.615 18.387V18.4286V18.4701C175.615 18.5532 175.615 18.6362 175.615 18.7193C175.615 18.7193 175.615 18.7193 175.615 18.7609C175.615 18.8024 175.615 18.8439 175.656 18.8855C175.656 18.8855 175.698 19.0516 175.739 19.0931C175.947 19.0516 176.196 19.0931 176.362 19.2593C176.362 19.2593 176.362 19.2593 176.404 19.3008C176.445 19.3008 176.445 19.3423 176.487 19.3423C176.487 19.3423 176.529 19.3424 176.529 19.3839C176.529 19.3839 176.529 19.3839 176.57 19.4254C176.57 19.4254 176.57 19.4254 176.612 19.4254C176.653 19.4254 176.736 19.467 176.778 19.467C176.736 19.467 176.736 19.467 176.819 19.467C176.861 19.467 176.902 19.467 176.902 19.467C176.944 19.467 176.985 19.467 177.027 19.467C177.027 19.467 177.027 19.467 176.985 19.467H177.027C177.069 19.467 177.11 19.4669 177.193 19.4254C177.235 19.4254 177.276 19.3839 177.318 19.3839C177.359 19.3424 177.442 19.3008 177.525 19.3008C177.525 19.3008 177.567 19.2593 177.608 19.2593C177.65 19.2178 177.692 19.1762 177.733 19.1347L177.775 19.0931C177.775 19.0516 177.816 19.0101 177.816 19.0101L177.858 18.927C177.858 18.8854 177.858 18.8855 177.858 18.8439C177.816 18.6778 177.816 18.6362 177.816 18.6778ZM177.816 18.6778V18.7193V18.6778ZM177.816 18.4701V18.4286V18.4701ZM153.975 65.5714C154.016 65.5714 154.016 65.5714 153.975 65.5714C153.975 65.5298 154.016 65.5298 154.016 65.5298C154.016 65.5298 154.016 65.5298 153.975 65.5714ZM152.812 65.8621C152.853 65.8621 152.853 65.8621 152.812 65.8621C152.853 65.9036 152.853 65.9037 152.853 65.9037C152.853 65.8621 152.812 65.8621 152.812 65.8621ZM153.31 65.9452C153.352 65.9452 153.352 65.9452 153.352 65.9452C153.352 65.9036 153.352 65.9036 153.31 65.9452ZM154.141 65.2391V65.1975V65.2391ZM152.064 66.859C151.815 66.9836 151.524 66.942 151.358 66.7344C150.569 65.8206 150.527 64.533 151.275 63.6192C151.856 62.9131 152.936 62.5808 153.809 62.8716C154.681 63.2038 155.304 63.993 155.387 64.9068C155.47 65.779 154.972 66.6098 154.182 66.942C153.476 67.2743 152.687 67.2743 152.064 66.859ZM153.642 64.1592L153.684 64.2007C153.726 64.2007 153.684 64.2007 153.642 64.1592ZM151.981 64.9068V64.9483V64.9899C151.981 65.0729 151.981 65.156 151.981 65.2391C151.981 65.2391 151.981 65.2391 151.981 65.2806C151.981 65.3222 151.981 65.3637 152.023 65.4052C152.023 65.4052 152.064 65.5714 152.106 65.6129C152.313 65.5714 152.563 65.6129 152.729 65.779C152.729 65.779 152.729 65.779 152.77 65.8206C152.812 65.8206 152.812 65.8621 152.853 65.8621C152.853 65.8621 152.895 65.8621 152.895 65.9037C152.895 65.9037 152.895 65.9036 152.936 65.9452C152.936 65.9452 152.936 65.9452 152.978 65.9452C153.02 65.9452 153.103 65.9867 153.144 65.9867C153.103 65.9867 153.103 65.9867 153.186 65.9867C153.227 65.9867 153.269 65.9867 153.269 65.9867C153.31 65.9867 153.352 65.9867 153.393 65.9867C153.393 65.9867 153.393 65.9867 153.352 65.9867H153.393C153.435 65.9867 153.476 65.9867 153.559 65.9452C153.601 65.9452 153.643 65.9037 153.684 65.9037C153.726 65.8621 153.809 65.8206 153.892 65.8206C153.892 65.8206 153.933 65.779 153.975 65.779C154.016 65.7375 154.058 65.696 154.099 65.6544L154.141 65.6129C154.141 65.5714 154.182 65.5298 154.182 65.5298L154.224 65.4467C154.224 65.4052 154.224 65.4052 154.224 65.3637C154.224 65.3222 154.224 65.3221 154.224 65.3221C154.224 65.2806 154.224 65.2806 154.224 65.2806C154.224 65.2391 154.224 65.1976 154.224 65.156C154.224 65.1976 154.266 65.1975 154.224 65.1145C154.224 65.0729 154.224 65.0729 154.224 65.0314C154.224 64.9899 154.182 64.9483 154.182 64.9068C154.182 64.8653 154.182 64.8653 154.182 64.8653C154.141 64.8237 154.141 64.7407 154.099 64.7407C154.099 64.6991 154.058 64.6576 154.016 64.616C154.016 64.616 153.933 64.4914 153.975 64.5745C154.016 64.6576 153.975 64.5745 153.933 64.533C153.892 64.4914 153.892 64.4914 153.85 64.4499C153.809 64.4084 153.809 64.4084 153.767 64.3668L153.726 64.3253C153.684 64.2838 153.601 64.2838 153.601 64.2422C153.559 64.2422 153.559 64.2007 153.518 64.2007C153.435 64.2007 153.393 64.1592 153.31 64.1592H153.269C153.227 64.1592 153.227 64.1592 153.186 64.1592C153.144 64.1592 153.103 64.1592 153.061 64.1592H152.978C152.936 64.1592 152.895 64.1591 152.853 64.2007C152.812 64.2007 152.812 64.2007 152.77 64.2422C152.729 64.2422 152.729 64.2422 152.687 64.2838C152.729 64.2838 152.729 64.2838 152.77 64.2422C152.729 64.2422 152.604 64.3253 152.521 64.3668C152.521 64.3668 152.521 64.3668 152.479 64.3668C152.479 64.3668 152.438 64.4084 152.396 64.4084C152.355 64.4499 152.272 64.533 152.23 64.5745C152.23 64.616 152.189 64.6161 152.189 64.6576C152.147 64.6991 152.147 64.7407 152.106 64.7822C152.023 64.7407 151.981 64.8237 151.981 64.9068ZM154.141 64.9899V64.9483V64.9899ZM173.87 56.7658C173.538 62.1239 171.337 67.6897 167.349 71.3863C165.106 73.4631 162.406 74.9169 159.997 76.786C157.547 78.6966 155.636 81.1057 154.432 83.9716C153.269 86.796 152.729 89.9527 153.186 92.9848C153.601 95.6431 154.764 98.3844 156.965 100.046C157.588 100.544 156.965 101.624 156.342 101.126C155.387 100.378 154.556 99.5059 153.892 98.4675C150.777 93.6494 151.358 87.1698 153.809 82.2271C155.138 79.5688 157.048 77.409 159.374 75.6229C161.659 73.8785 164.193 72.4663 166.352 70.5141C170.132 67.0666 172.25 61.8747 172.583 56.8074C172.873 52.4046 171.544 47.628 167.765 45.0528C167.058 46.4235 166.145 47.6696 165.065 48.791C163.403 50.4524 161.16 51.8646 158.71 51.8231C157.547 51.8231 156.384 51.4493 155.512 50.6601C154.515 49.7463 154.182 48.2926 154.556 47.005C155.304 44.3883 158.045 42.893 160.537 42.3945C162.822 41.9377 165.189 42.27 167.266 43.2668C169.135 38.7394 168.678 33.1737 165.895 29.1447C162.739 24.5758 156.799 23.4544 151.607 24.3266C146.665 25.1573 142.096 27.6079 138.233 30.7646C133.872 34.3367 130.341 38.8225 127.724 43.8068C127.351 44.5129 126.271 43.8898 126.644 43.1837C127.351 41.8546 128.098 40.567 128.929 39.2794C132.127 34.4613 136.239 30.2247 141.182 27.151C145.626 24.4097 150.86 22.5406 156.135 22.8729C159.001 23.039 161.908 23.9112 164.234 25.6557C166.477 27.3587 168.055 29.7677 168.886 32.426C170.091 36.1642 169.883 40.3178 168.388 43.9314C172.583 46.6727 174.161 51.9062 173.87 56.7658ZM166.435 45.0943C166.56 44.8867 166.685 44.679 166.768 44.4298C164.774 43.4329 162.448 43.1837 160.288 43.7652C159.125 44.056 157.962 44.5544 157.09 45.3851C156.176 46.2158 155.429 47.4619 155.761 48.7079C156.384 50.9924 159.457 50.7847 161.16 50.0371C163.403 49.1233 165.189 47.1711 166.435 45.0943ZM145.585 52.4877C143.383 54.8552 141.223 57.2643 139.022 59.6318C138.482 60.2133 139.354 61.0855 139.894 60.504C142.096 58.1365 144.255 55.7274 146.457 53.3599C146.997 52.7784 146.125 51.9062 145.585 52.4877ZM145.335 61.2101C143.715 61.7916 142.096 62.3731 140.476 62.9131C140.143 63.0377 139.936 63.3284 140.06 63.6607C140.143 63.9515 140.517 64.2007 140.808 64.0761C142.428 63.4946 144.048 62.9131 145.668 62.3731C146 62.2485 146.208 61.9578 146.083 61.6255C146 61.3763 145.626 61.1271 145.335 61.2101Z" fill="#3F4254"/>
<path d="M128.638 150.304C131.172 150.138 133.705 150.512 136.073 151.342C135.782 149.556 136.281 147.646 137.402 146.233C139.271 148.933 140.808 151.924 141.888 155.039C145.46 153.004 149.032 150.969 152.604 148.933C153.269 148.559 153.933 148.144 154.307 147.521C155.138 146.067 154.099 144.281 153.019 142.994C151.939 141.706 150.735 140.128 151.275 138.549C152.936 138.757 154.639 138.965 156.301 139.172C156.633 137.22 157.505 135.351 158.834 133.814C154.099 130.699 147.495 130.699 142.802 133.897C143.84 135.31 143.466 137.553 142.012 138.591C140.559 139.629 138.316 139.172 137.361 137.719C132.916 140.086 129.76 144.78 129.261 149.764" fill="#9ED5F0"/>
<path d="M173.372 153.918C173.663 154.209 174.286 154.167 174.452 153.669C177.11 145.445 178.606 136.888 180.392 128.415C180.89 126.131 181.388 123.846 181.928 121.603C181.928 121.562 181.97 121.52 181.97 121.479C181.97 121.437 181.97 121.437 181.97 121.396C182.136 120.773 181.347 120.44 180.973 120.731C177.567 120.731 174.12 120.731 170.714 120.731C169.26 118.737 167.806 116.702 166.394 114.708C166.643 114.335 166.768 113.878 166.768 113.421C166.768 112.092 165.688 111.012 164.359 111.012H135.699C134.37 111.012 133.29 112.092 133.29 113.421C133.29 113.628 133.332 113.878 133.373 114.085C133.373 114.127 133.332 114.127 133.332 114.168C132.293 116.204 131.255 118.239 130.217 120.274C130.134 120.482 130.134 120.648 130.217 120.814C126.811 120.814 123.405 120.814 119.957 120.814C119.251 120.814 119.168 121.811 119.75 122.019C119.75 122.102 119.75 122.185 119.791 122.268C122.366 130.783 125.191 139.256 128.265 147.646C129.137 150.014 130.009 152.34 130.881 154.666C131.047 155.122 131.546 155.164 131.836 154.998C131.92 155.164 132.086 155.33 132.335 155.372C143.176 156.452 154.1 156.41 164.899 155.122C167.723 154.832 170.589 154.416 173.372 153.918ZM135.699 112.299H164.4C165.023 112.299 165.563 112.798 165.563 113.462C165.563 113.628 165.522 113.795 165.439 113.919C165.356 113.919 165.273 113.961 165.19 114.002C165.023 114.085 164.899 114.293 164.899 114.501C164.774 114.584 164.608 114.625 164.442 114.625H135.699C135.076 114.625 134.536 114.127 134.536 113.462C134.536 112.798 135.035 112.299 135.699 112.299ZM134.163 115.29C134.578 115.622 135.118 115.83 135.699 115.83H164.4C164.774 115.83 165.148 115.747 165.48 115.581C166.726 117.325 167.972 119.07 169.218 120.773C165.273 120.773 161.368 120.773 157.422 120.814C149.448 120.814 141.431 120.856 133.456 120.856C132.75 120.856 132.044 120.856 131.338 120.856C132.293 119.028 133.207 117.159 134.163 115.29ZM160.745 137.013C153.809 137.511 146.831 137.636 139.894 137.428C139.188 134.355 138.482 131.281 137.776 128.207C137.319 126.172 136.821 124.137 136.364 122.102C138.898 122.102 141.431 122.102 143.965 122.102C149.946 122.102 155.969 122.06 161.95 122.06C161.493 127.044 161.119 132.029 160.745 137.013ZM141.431 154.79C138.399 154.666 135.367 154.458 132.335 154.126C132.21 154.126 132.086 154.126 132.003 154.209C128.846 145.943 125.897 137.594 123.197 129.163C122.449 126.837 121.743 124.511 120.996 122.143C125.689 122.143 130.341 122.143 135.035 122.102C136.198 127.211 137.402 132.278 138.565 137.387C135.284 137.262 132.003 137.054 128.721 136.805C127.932 136.722 127.932 137.968 128.721 138.051C132.086 138.342 135.45 138.55 138.856 138.674C139.396 141.083 139.978 143.492 140.517 145.86C141.057 148.144 141.556 150.429 142.096 152.713C142.262 153.503 143.466 153.17 143.3 152.381C142.262 147.812 141.182 143.285 140.144 138.716C146.955 138.924 153.809 138.757 160.621 138.301C160.413 141.083 160.205 143.866 159.956 146.608C159.79 148.934 159.582 151.218 159.416 153.544C159.333 154.333 160.579 154.333 160.662 153.544C161.078 148.435 161.451 143.326 161.867 138.217C163.362 138.093 164.857 137.968 166.353 137.802C169.842 137.47 173.33 137.013 176.819 136.473C177.609 136.348 177.276 135.144 176.487 135.268C171.669 136.016 166.809 136.556 161.95 136.93C162.157 134.272 162.365 131.655 162.573 128.997C162.739 126.671 162.947 124.386 163.113 122.06C164.691 122.06 166.269 122.06 167.848 122.06C172.084 122.06 176.279 122.06 180.516 122.019C178.564 130.118 177.235 138.342 175.158 146.441C174.618 148.518 174.037 150.595 173.414 152.672C162.905 154.499 152.147 155.247 141.431 154.79ZM199.913 157.116C197.38 157.033 194.887 156.992 192.354 156.95C183.424 156.867 174.493 157.158 165.605 157.739C164.816 157.781 164.816 156.535 165.605 156.493C168.097 156.327 170.631 156.161 173.123 156.036C182.053 155.621 190.942 155.538 199.872 155.829C200.702 155.912 200.702 157.158 199.913 157.116ZM175.49 160.647C169.758 160.896 164.068 161.187 158.336 161.436C157.547 161.477 157.547 160.231 158.336 160.19C164.068 159.941 169.758 159.65 175.49 159.401C176.321 159.359 176.321 160.605 175.49 160.647Z" fill="#3F4254"/>
<path d="M93.8315 97.3041C93.4161 96.6395 94.4961 96.0165 94.9114 96.681C96.4067 99.007 98.8988 100.544 101.432 101.499C104.049 102.538 106.915 103.078 109.74 102.994C110.529 102.953 110.529 104.199 109.74 104.241C106.707 104.324 103.634 103.701 100.809 102.579C98.1096 101.458 95.4513 99.8377 93.8315 97.3041ZM22.7227 58.593C21.9335 58.7591 22.2658 59.9637 23.055 59.7975C25.2564 59.3406 27.7069 59.9221 29.4514 61.3759C29.7006 61.5835 30.0745 61.6251 30.3237 61.3759C30.5314 61.1682 30.5729 60.7113 30.3237 60.5036C28.2054 58.7176 25.381 58.0115 22.7227 58.593ZM50.1361 70.5137C49.347 70.6383 48.5578 70.6383 47.7686 70.5137C47.8517 70.4306 47.9348 70.306 47.9763 70.1814C48.3501 69.4338 48.1424 68.5615 47.5194 68.0631C47.0625 67.6477 46.481 67.4816 45.858 67.5231C45.8164 67.1908 45.6918 66.8586 45.4426 66.6094C44.5288 65.4048 42.5767 65.4048 41.6214 66.6094C41.4552 66.817 41.3306 67.0662 41.206 67.2739C40.4168 66.4432 39.7522 65.4463 39.2953 64.3664C39.0046 63.6188 37.8001 63.9511 38.0908 64.6987C38.5893 65.9448 39.3369 67.0662 40.2092 68.0215C40.0846 68.1461 40.043 68.3123 40.0015 68.4784C39.8354 70.1399 39.7522 72.0505 41.0814 73.2966C41.6213 73.8365 42.369 74.1688 43.1581 74.0857C43.9058 74.0442 44.5704 73.6704 45.0688 73.1304C45.5257 72.6735 45.8996 72.092 46.2318 71.5105C47.561 71.8013 48.9316 71.8844 50.3438 71.7182C50.6761 71.6767 50.8422 71.2613 50.7592 70.9706C50.8007 70.5968 50.4684 70.4721 50.1361 70.5137ZM46.5226 68.8523C46.7718 69.0184 46.9794 69.2676 46.8963 69.4753C46.8548 69.5999 46.7718 69.7245 46.6472 69.8076C46.5641 69.8906 46.481 69.8907 46.3564 69.8491C46.1072 69.766 45.8579 69.8491 45.7333 70.0152C45.4426 69.9322 45.1519 69.8076 44.8611 69.683C45.235 69.4753 45.4841 69.1015 45.6503 68.7276C45.9826 68.7276 46.2734 68.7276 46.5226 68.8523ZM43.9889 66.9832C44.4042 67.1078 44.695 67.4816 44.6535 67.8969V67.9385C44.1966 68.2292 43.8227 68.6446 43.5735 69.1015C43.1166 68.8523 42.7013 68.52 42.286 68.1877C42.3275 67.8554 42.4521 67.5231 42.7013 67.2739C43.0751 66.9001 43.532 66.817 43.9889 66.9832ZM44.2381 72.2997C43.7812 72.7566 43.2412 72.9643 42.6182 72.7566C42.0782 72.5489 41.5798 71.9259 41.4137 71.3444C41.206 70.7214 41.206 70.0153 41.2476 69.3507C41.4137 69.5168 41.7044 69.5584 41.9121 69.4338C42.8674 70.1399 43.9473 70.7214 45.1103 71.1367C44.8611 71.5521 44.6119 71.9674 44.2381 72.2997ZM41.9951 40.8989C41.9536 40.7327 41.9952 40.5666 42.0783 40.4004C42.3275 39.8605 42.5352 39.3205 42.7844 38.7806C42.8674 38.656 43.0335 38.5313 43.1581 38.4898C43.3243 38.4483 43.4904 38.4898 43.6566 38.5729C43.7812 38.656 43.9059 38.7806 43.9474 38.9467C43.9889 39.1128 43.9473 39.279 43.8642 39.4451C43.615 39.9851 43.4074 40.5251 43.1581 41.065C43.0751 41.1896 42.909 41.3142 42.7844 41.3557C42.6182 41.3973 42.4521 41.3558 42.286 41.2727C42.1614 41.1896 42.0367 41.065 41.9951 40.8989ZM45.8995 36.1223C45.7749 35.9977 45.7333 35.8315 45.7333 35.6654C45.7333 35.4993 45.8165 35.3331 45.8995 35.2085C45.9411 35.167 46.0241 35.1254 46.1072 35.0839C46.1903 35.0424 46.2733 35.0424 46.3564 35.0424C46.6471 35.0008 46.9795 35.0008 47.2702 34.9593C47.4364 34.9593 47.6025 35.0423 47.7271 35.1254C47.8517 35.25 47.8933 35.4162 47.8933 35.5823C47.8933 35.7485 47.8101 35.9146 47.7271 36.0392C47.6855 36.0807 47.6025 36.1223 47.5194 36.1638C47.4363 36.2053 47.3533 36.2054 47.2702 36.2054C46.9795 36.2469 46.6471 36.2469 46.3564 36.2884C46.1902 36.33 46.0241 36.2469 45.8995 36.1223ZM48.0594 45.2186C48.1424 45.5093 47.9763 45.9247 47.644 45.9662C45.6503 46.34 43.9889 47.6276 43.1581 49.4967C43.0335 49.7875 42.5767 49.8705 42.286 49.7044C41.9537 49.5383 41.9121 49.1644 42.0783 48.8321C42.9921 46.7138 45.0272 45.094 47.3117 44.7201C47.644 44.7201 47.9763 44.8863 48.0594 45.2186ZM53.6667 40.4835C53.7497 40.7743 53.542 41.1896 53.2513 41.2311C53.1267 41.2727 52.9606 41.2727 52.8359 41.3142C52.7529 41.3558 52.6698 41.3558 52.6283 41.3973L52.5452 41.4388C52.4206 41.4804 52.2959 41.5634 52.1713 41.6465C52.1298 41.688 52.0468 41.7296 52.0052 41.7711C51.9637 41.7711 51.9637 41.8127 51.9222 41.8127C51.7976 41.8957 51.7145 41.9788 51.5899 42.1034C51.5483 42.1449 51.5068 42.228 51.4238 42.2695C51.3822 42.3111 51.3407 42.3941 51.2992 42.4357C51.2992 42.4772 51.2576 42.4772 51.2576 42.5188C51.216 42.5603 51.1745 42.6434 51.1329 42.6849C51.0914 42.7264 51.0499 42.8095 51.0499 42.8926C51.0084 42.9341 50.9254 43.1418 51.0084 42.9756C50.9254 43.1418 50.8837 43.2664 50.7176 43.3495C50.593 43.4325 50.3853 43.4325 50.2192 43.4325C50.053 43.391 49.9285 43.2664 49.8454 43.1418C49.7623 43.0172 49.7208 42.8095 49.7624 42.6434C50.0531 41.9788 50.4269 41.3973 51.0084 40.9404C51.5484 40.4835 52.213 40.1512 52.8775 40.0266C53.2513 39.9851 53.542 40.1512 53.6667 40.4835ZM91.2147 95.8919C92.1285 96.1826 92.9593 96.7226 93.6654 97.3456C93.873 97.6779 94.4545 97.8025 94.7452 97.3456C96.6143 94.6458 99.148 92.486 102.014 90.9491C103.468 90.2015 105.004 89.62 106.583 89.2462C108.286 88.8308 110.03 88.7062 111.775 88.6232C113.561 88.5401 115.388 88.457 117.174 88.0832C118.047 87.8755 118.919 87.6263 119.75 87.2525C120.539 86.8787 121.245 86.4218 122.034 86.0895C122.699 85.8403 123.571 85.6326 124.069 86.2972C124.443 86.7541 124.319 87.4186 124.152 87.9586C123.737 89.08 122.948 89.5369 121.951 90.0354C120.04 91.0322 116.676 92.4029 117.05 95.0612C117.174 95.8503 118.379 95.518 118.254 94.7289C118.13 93.7736 119.251 92.9844 119.957 92.569C120.954 91.9045 122.034 91.406 123.073 90.8661C124.194 90.243 125.066 89.3292 125.44 88.0832C125.855 86.671 125.315 85.0096 123.737 84.6773C121.909 84.3035 120.331 85.7157 118.753 86.3387C116.967 87.0448 115.015 87.2109 113.104 87.3356C111.235 87.4602 109.324 87.5017 107.497 87.834C105.794 88.1247 104.174 88.6647 102.595 89.3708C99.2727 90.8661 96.3236 93.2336 94.1638 96.1826C90.8825 93.6074 86.3551 93.8566 82.8661 96.0165C79.211 98.2594 76.8435 102.122 74.8913 105.902C72.6484 101.291 69.6163 97.1379 66.1689 93.3582C67.7888 91.7383 69.4086 90.1184 70.9039 88.3739C72.4822 86.5048 73.8945 84.5527 75.1821 82.4759C77.6742 78.3639 79.751 73.8781 83.1984 70.4721C84.9845 68.7277 87.0612 67.2739 89.5118 66.5678C89.6364 66.5263 89.7194 66.4847 89.761 66.4017C90.6332 69.0184 92.2947 71.4275 94.4545 73.172C97.0297 75.2072 100.228 76.3286 103.509 76.3286C104.382 76.3286 105.212 76.2456 106.043 76.121C106.084 76.204 106.168 76.2871 106.209 76.4117C106.251 76.4533 106.292 76.5363 106.292 76.5779C106.292 76.6194 106.292 76.6194 106.334 76.6609C106.334 76.6609 106.334 76.6609 106.334 76.7025C106.458 76.9932 106.541 77.284 106.583 77.5747C106.583 77.6578 106.624 77.7409 106.624 77.8239C106.624 77.8655 106.624 77.907 106.624 77.9485C106.624 77.9485 106.624 77.9485 106.624 77.9901C106.624 78.1562 106.666 78.3224 106.666 78.4885C106.666 78.8208 106.666 79.1531 106.624 79.4854C106.583 79.8176 106.957 80.1084 107.247 80.1084C107.621 80.1084 107.829 79.8176 107.87 79.4854C107.954 78.7377 107.912 77.9901 107.746 77.284C107.663 76.8271 107.497 76.4117 107.331 75.9964H107.372C108.078 75.8718 108.743 75.6641 109.449 75.4564C109.407 76.3702 110.196 77.2009 111.069 77.367C112.19 77.5747 113.146 76.9517 114.018 76.3702C114.059 76.3702 114.059 76.3286 114.101 76.3286C115.098 76.3702 116.011 75.9548 116.884 75.4979C117.05 75.4564 117.174 75.4149 117.341 75.3733C119.002 74.8334 120.414 73.5873 121.411 72.2166C122.491 70.7629 123.114 68.9769 123.28 67.1908C123.322 66.7755 123.322 66.4017 123.322 65.9863C123.695 65.4048 123.986 64.7402 124.069 64.0341C124.235 62.7465 123.696 61.5005 122.533 60.8774C122.283 60.7528 122.034 60.6698 121.785 60.5867C121.12 58.9668 120.414 57.2639 119.127 56.0593C117.714 54.7302 115.928 54.4394 114.101 54.5225C114.267 54.2733 114.475 54.0241 114.641 53.7333C115.43 52.5288 116.053 51.1997 116.635 49.8705C117.548 47.6276 118.213 45.2186 118.296 42.768C118.379 40.7743 118.047 38.2406 116.302 36.953C115.347 36.2469 114.101 36.2884 113.145 36.953C112.066 37.7006 111.609 38.9467 111.235 40.1928C110.529 42.4357 109.74 44.6786 108.743 46.7969C107.04 50.4936 104.797 53.8579 101.972 56.807C98.6496 60.2544 94.7037 62.9957 90.5917 65.4463C90.3425 64.9479 89.6364 65.031 89.4288 65.4879C89.3042 65.4464 89.1796 65.4048 89.0134 65.4463C84.6106 66.6924 81.2878 70.1399 78.7956 73.8365C77.3419 75.9964 76.0958 78.2808 74.8082 80.5237C73.5206 82.7251 72.15 84.8434 70.5301 86.7956C68.8687 88.8308 67.0411 90.6999 65.172 92.5275C64.092 91.406 63.0122 90.2846 61.8907 89.2047C61.7661 89.08 61.6414 89.0385 61.5168 89.0385C61.0599 85.0511 60.5615 81.0637 60.1047 77.0763C59.5232 72.3828 58.9832 67.6477 58.4017 62.9542C58.2771 62.082 58.1941 61.2097 58.0695 60.379C62.223 58.3853 66.3766 56.3501 70.5301 54.3148C70.9455 54.1071 71.3608 53.8995 71.7346 53.7333C72.0669 53.5672 72.15 52.9857 71.8592 52.7365C66.9165 48.6245 62.0984 44.4294 57.2387 40.2758C54.6635 38.0745 52.0883 35.8731 49.5131 33.7132C49.3885 33.6302 49.2639 33.5055 49.1393 33.4225C48.1425 28.4798 38.7969 22.0418 33.3973 26.6522C27.79 24.2016 18.7768 28.5213 15.537 33.7132C11.3835 40.3589 11.5912 48.6245 14.2495 54.1071C15.2048 56.1009 16.3678 57.97 17.6554 59.756C17.157 62.2066 17.8215 64.9064 19.5245 66.7755C18.403 68.6861 16.7001 70.2229 14.6649 71.0952C11.9235 72.2997 8.64221 72.1751 5.9424 70.846C5.27783 70.5137 4.32244 70.2229 3.99015 70.846C3.78247 71.2613 4.03171 71.7597 4.32246 72.1751C8.22679 77.7824 14.6648 81.5621 21.4766 82.2682V82.3098C21.0197 84.0543 20.5628 85.8403 20.1059 87.5848C20.0229 87.8755 20.1475 88.1247 20.3552 88.2493C15.7448 93.6074 12.0065 99.7547 9.63902 106.483C8.43449 109.889 7.64536 113.378 7.18847 116.95C6.81465 120.066 6.64851 123.264 5.9424 126.337C5.15323 129.909 3.57484 133.191 0.708888 135.558C0.0858556 136.057 0.999677 136.97 1.58117 136.431C4.11484 134.312 5.77618 131.446 6.68996 128.29C7.56221 125.257 7.81142 122.101 8.1437 118.986C8.51752 115.497 9.09904 112.091 10.1374 108.726C11.2174 105.237 12.6712 101.831 14.4572 98.6332C16.4509 95.0612 18.8599 91.7383 21.5597 88.6647C31.4867 93.3582 42.4936 97.8025 53.6251 94.9781C56.408 94.272 59.0662 93.109 61.4338 91.406C61.3507 91.5722 61.3507 91.7383 61.5168 91.946C62.5137 93.3167 62.4306 95.3104 61.143 96.5149C59.897 97.6779 57.7787 97.5117 56.6157 96.3903C56.2419 96.0165 55.5773 96.3072 55.5358 96.8472C55.5358 98.1348 54.5389 99.0486 53.5006 99.6301C52.1714 100.378 50.593 100.627 49.0562 100.71C45.5257 100.918 42.0782 99.9624 38.7969 98.7163C36.8863 97.9687 35.0173 97.1379 33.1482 96.2657C32.4421 95.9334 31.7775 97.0133 32.5251 97.3456C36.0972 99.007 39.7522 100.668 43.6566 101.458C45.5672 101.873 47.5194 102.039 49.4301 101.915C51.0915 101.79 52.7529 101.499 54.2066 100.668C55.3281 100.045 56.2419 99.1316 56.6157 97.9271C58.2771 98.8824 60.4369 98.7578 61.9322 97.5117C63.469 96.2242 63.8428 93.8151 62.9706 92.0291C67.3318 96.4734 71.2362 101.416 73.8944 107.065C73.936 107.19 74.019 107.231 74.1021 107.314C71.9838 111.468 70.0732 115.954 66.7919 119.359C63.4691 122.807 58.8586 124.219 54.622 126.171C52.4206 127.168 50.1361 128.331 48.1424 129.826C48.1424 129.826 48.1425 129.785 48.1009 129.785C46.9379 127.791 45.2764 126.337 43.4489 124.967C41.5798 123.513 39.7523 122.142 38.5062 120.066C37.3017 118.072 36.554 115.829 35.3495 113.835C33.1481 110.055 29.1607 107.646 24.7579 107.522C23.7195 107.48 22.7227 107.605 21.7259 107.813C20.9367 107.979 21.2689 109.183 22.0581 109.017C25.8794 108.145 30.0745 109.516 32.7743 112.381C34.2696 114.001 35.1419 116.037 36.0556 117.989C36.9694 119.941 38.0078 121.852 39.5862 123.347C41.206 124.884 43.1166 126.088 44.7365 127.583C45.6918 128.456 46.5225 129.494 47.1871 130.616C46.4394 131.239 45.6919 131.945 45.0688 132.692C43.9058 134.105 43.0336 135.724 42.7844 137.552C42.5352 139.421 42.9505 141.664 44.1965 143.118C44.8611 143.865 45.8164 144.322 46.8133 144.156C47.7686 143.948 48.5162 143.159 48.9731 142.329C49.97 140.501 50.2192 138.133 50.0946 136.098C49.97 134.312 49.5131 132.568 48.7654 130.948C50.4684 129.66 52.3791 128.663 54.2066 127.75C58.1525 125.839 62.4307 124.593 65.9612 121.852C69.4917 119.069 71.693 114.998 73.6867 111.052C75.6805 107.106 77.5495 102.87 80.6232 99.6301C83.2814 96.5564 87.2688 94.5627 91.2147 95.8919ZM112.398 75.7887C112.356 75.7887 112.315 75.8302 112.273 75.8302H112.232C112.149 75.8717 112.024 75.9133 111.941 75.9133C111.899 75.9133 111.858 75.9548 111.775 75.9548H111.692C111.65 75.9548 111.609 75.9548 111.609 75.9548C111.567 75.9548 111.526 75.9548 111.484 75.9548H111.443C111.443 75.9548 111.443 75.9548 111.484 75.9548C111.443 75.9548 111.401 75.9548 111.401 75.9133C111.359 75.9133 111.318 75.8718 111.276 75.8718C111.276 75.8718 111.276 75.8718 111.235 75.8718C111.152 75.8302 111.11 75.7887 111.027 75.7472C110.986 75.7056 110.944 75.7056 110.944 75.6641C110.903 75.6226 110.903 75.6225 110.861 75.581C110.861 75.5395 110.82 75.5395 110.82 75.4979C110.82 75.4564 110.82 75.4564 110.778 75.4149C110.778 75.4149 110.778 75.3733 110.778 75.3318C110.778 75.3318 110.778 75.2903 110.778 75.2487C110.82 75.1241 110.778 74.958 110.736 74.8334C111.027 74.7088 111.36 74.5842 111.65 74.4595C111.816 74.958 112.19 75.3733 112.605 75.6641C112.522 75.7056 112.481 75.7472 112.398 75.7887ZM113.976 74.8749C113.561 74.8334 113.229 74.6672 112.979 74.3765C112.896 74.2934 112.813 74.0857 112.772 74.0027C112.772 73.9611 112.772 73.9611 112.772 73.9196C113.187 73.7119 113.561 73.5042 113.976 73.255C114.018 73.8781 114.267 74.4596 114.765 74.8334C114.475 74.8749 114.225 74.9164 113.976 74.8749ZM120.539 71.1783C119.874 72.2582 118.254 73.9196 116.551 74.0857C115.305 74.2519 115.139 73.3796 115.305 72.4243C116.51 71.6351 117.673 70.8044 118.794 69.9322C119.916 69.0599 121.037 68.1877 122.117 67.2324C121.868 68.6446 121.286 69.9737 120.539 71.1783ZM118.296 56.6824C119.334 57.6377 119.916 58.9668 120.456 60.2129C118.753 60.3375 117.133 61.5835 115.887 62.7881L115.845 62.8296C115.845 62.7881 115.804 62.7881 115.804 62.7465C115.305 61.7081 114.558 60.7528 113.519 60.2129C112.439 59.6314 111.235 59.6314 110.072 59.9637C110.695 58.8422 111.526 57.7623 112.315 56.7654C112.606 56.3916 112.896 56.0178 113.187 55.644C114.973 55.4363 116.884 55.3948 118.296 56.6824ZM110.736 62.9542C110.778 62.9542 110.819 62.9542 110.861 62.9542C110.986 62.9957 111.069 62.9957 111.193 63.0373C111.235 63.0373 111.401 63.1204 111.276 63.0788C111.318 63.0788 111.359 63.1204 111.401 63.1204C111.484 63.1619 111.609 63.245 111.692 63.2865C111.733 63.328 111.775 63.328 111.775 63.3696C111.775 63.3696 111.858 63.4111 111.858 63.4526C112.024 63.5772 112.149 63.7434 112.315 63.9095C112.356 63.9511 112.356 63.9926 112.398 64.0341C112.439 64.1172 112.522 64.2003 112.564 64.2833C112.606 64.3664 112.647 64.4495 112.689 64.5326C112.689 64.5326 112.689 64.5326 112.689 64.5741C112.689 64.6156 112.73 64.6572 112.73 64.6572C112.772 64.7818 112.813 64.9064 112.813 65.031C112.564 65.1141 112.315 65.1971 112.066 65.2387C111.027 65.4048 109.864 64.9894 109.449 63.9926V63.9511C109.407 63.8265 109.366 63.7018 109.324 63.5772C109.283 63.4526 109.241 63.328 109.158 63.2865C109.158 63.2034 109.117 63.1619 109.117 63.0788C109.2 63.1204 109.324 63.1204 109.449 63.0788C109.573 63.0373 109.74 62.9957 109.864 62.9542L110.03 62.9127C110.072 62.9127 110.113 62.9127 110.155 62.9127C110.28 62.9127 110.404 62.9127 110.529 62.9127C110.612 62.9542 110.778 62.9542 110.736 62.9542ZM112.689 62.5389C111.692 61.7497 110.446 61.542 109.241 61.9158C109.283 61.7912 109.324 61.6251 109.366 61.5005C109.407 61.5005 109.449 61.5005 109.532 61.4589C110.736 60.9605 112.107 60.7113 113.27 61.5005C114.059 61.9989 114.599 62.9127 114.932 63.7434C114.641 63.9926 114.35 64.2418 114.059 64.4495C113.768 63.7019 113.27 62.9957 112.689 62.5389ZM101.474 58.9253C104.34 56.267 106.791 53.1518 108.66 49.6628C109.698 47.7937 110.57 45.8001 111.318 43.8064C111.733 42.7264 112.107 41.605 112.439 40.4835C112.772 39.4036 113.187 37.7837 114.475 37.5345C115.596 37.2853 116.344 38.4898 116.676 39.362C116.967 40.1928 117.091 41.1065 117.091 42.0203C117.091 44.4294 116.468 46.7969 115.596 49.0398C115.056 50.452 114.35 51.7812 113.519 53.0688C112.689 54.3564 111.733 55.5194 110.778 56.6824C109.906 57.8038 109.075 59.0083 108.452 60.3375C107.829 61.7081 107.58 62.9958 108.244 64.3249C108.535 65.2387 109.283 65.9448 110.197 66.3186C111.276 66.734 112.439 66.6093 113.519 66.1524C114.724 65.6125 115.721 64.6572 116.676 63.7434C117.59 62.8711 118.587 61.9158 119.874 61.5835C120.788 61.3343 122.034 61.5005 122.616 62.3312C123.405 63.4526 122.616 64.9064 121.785 65.7786C120.871 66.7755 119.75 67.5647 118.67 68.3954C117.59 69.2261 116.551 70.0983 115.388 70.846C105.337 77.2424 96.4067 74.5842 92.7516 69.5584C92.0455 68.603 91.464 67.5647 91.0486 66.4432C94.7453 64.2418 98.3174 61.8328 101.474 58.9253ZM46.8133 94.4381C41.3306 94.5212 35.9726 93.109 30.8637 91.1983C27.9147 90.0769 25.0487 88.7893 22.2243 87.4186C22.1412 87.1279 21.8504 86.9202 21.5597 86.9202C23.138 80.9806 24.5918 74.9995 25.9209 68.9769C25.9209 68.9353 25.9209 68.9353 25.9209 68.8938C27.5408 68.7692 29.0777 68.1877 30.3237 67.1078C30.5729 66.9001 30.6145 66.4847 30.4068 66.2355C30.1991 65.9863 29.7837 65.9448 29.5345 66.1524C27.2085 68.1461 23.3042 68.1462 20.9782 66.1109C18.6522 64.0757 18.1538 60.2129 19.8983 57.6377C21.6012 55.0625 25.381 54.0656 28.1639 55.4363C28.4546 55.6024 28.8285 55.4778 28.9946 55.1455C29.1607 54.8548 29.0361 54.481 28.7038 54.3148C28.413 54.1487 28.0808 54.0656 27.7485 53.941C27.8731 52.2796 27.9562 50.6182 27.9146 48.9983L28.2054 48.0014C30.4898 48.2091 32.7743 47.42 34.8926 46.4646C37.3017 45.3432 39.7107 43.8063 40.9153 41.4388C41.9121 39.4451 41.9537 37.0776 41.4553 34.8762C41.0399 33.0071 40.2092 31.2626 39.3785 29.5597C40.3338 29.7674 41.2475 30.0166 42.1198 30.3488C44.1965 31.0965 46.1487 32.2595 47.8101 33.6302C50.3022 35.7069 52.7944 37.8252 55.245 39.9436C60.3124 44.2632 65.2966 48.6245 70.4055 52.8611C67.2072 54.4394 64.009 55.9762 60.7693 57.5546C59.5647 58.1361 58.3601 58.7176 57.1556 59.2991C56.9895 59.3822 56.8233 59.6314 56.8649 59.839C57.1972 62.6219 57.5295 65.4048 57.8618 68.1877C58.4848 73.3381 59.1078 78.53 59.7309 83.6804C59.9801 85.8403 60.2292 88.0001 60.4784 90.16C60.4784 90.243 60.5201 90.3261 60.5616 90.4092C56.5326 93.1505 51.673 94.3966 46.8133 94.4381ZM61.8077 90.9907C61.8077 90.9907 61.8076 90.9491 61.8491 90.9491C61.8907 90.9076 61.9322 90.9076 61.9738 90.8661C61.9738 90.8245 62.0153 90.8245 62.0153 90.783C62.0569 90.8245 62.0983 90.8661 62.1399 90.9076C62.0153 90.9076 61.8907 90.9491 61.8077 90.9907ZM48.807 138.383C48.6824 139.338 48.4747 140.335 48.0594 141.207C47.7271 141.913 47.104 142.827 46.1903 142.744C45.2765 142.619 44.695 141.581 44.4458 140.833C44.155 139.961 43.9889 139.047 43.9889 138.133C44.0304 136.514 44.7365 135.018 45.6919 133.731C46.3149 132.942 47.021 132.235 47.7686 131.571C47.8932 131.82 47.9763 132.111 48.1009 132.36C48.807 134.271 49.0978 136.347 48.807 138.383ZM48.0594 115.497C48.4747 115.787 48.9731 115.912 49.4715 115.87C49.5131 116.078 49.5547 116.244 49.6377 116.452C50.2608 117.74 51.9637 118.487 53.3344 118.487C54.6635 118.487 56.0342 117.532 56.0757 116.161C57.0726 115.87 57.9448 115.081 58.1525 113.877C58.3186 112.755 57.9032 111.634 56.9479 111.011C56.3664 110.595 55.6188 110.471 54.9127 110.554C54.7881 109.059 53.2928 107.854 51.756 108.519C50.5099 108.062 49.1809 107.937 48.1009 108.809C47.1872 109.557 46.7302 111.052 47.3533 112.091C46.6887 113.171 46.9379 114.749 48.0594 115.497ZM48.6408 111.634C48.0178 111.094 48.4331 110.097 49.0562 109.682C49.5546 109.349 50.0946 109.349 50.6761 109.474C50.3438 110.014 50.2192 110.637 50.4269 111.26C50.7591 112.298 51.8391 113.088 52.919 112.963C53.2513 112.921 53.542 112.714 53.542 112.34C53.542 112.049 53.2513 111.675 52.919 111.717C51.8806 111.841 51.1745 110.637 51.8806 109.931C52.1714 110.055 52.4206 110.222 52.6283 110.346C53.0021 110.595 53.3759 110.346 53.5006 110.014C53.7082 110.305 53.8328 110.72 53.6251 111.094C53.3759 111.634 53.9159 112.257 54.4974 111.966C55.7019 111.302 57.1556 112.34 56.9479 113.669C56.8233 114.375 56.325 114.832 55.785 114.957C55.245 114.167 54.1651 113.794 53.2929 114.334C52.9191 114.541 52.8775 114.998 53.1682 115.33C53.6251 115.829 54.2482 116.12 54.8297 116.244C54.6635 117.033 53.7497 117.324 53.0436 117.241C52.296 117.158 51.3822 116.784 50.9253 116.161C50.7591 115.954 50.6761 115.746 50.6761 115.497C51.133 115.206 51.5483 114.791 51.756 114.251C51.9221 113.918 51.5483 113.42 51.1745 113.461C50.4269 113.544 49.9285 114.001 49.6377 114.583C49.3054 114.624 48.9732 114.583 48.724 114.417C48.1425 113.96 48.184 113.005 48.6824 112.506C48.8901 112.298 48.89 111.841 48.6408 111.634ZM129.427 83.4312C129.095 85.7157 128.431 88.0001 127.475 90.1184C124.235 97.0964 117.507 101.167 110.778 104.282C111.401 109.266 111.11 114.375 109.657 119.193C108.369 123.513 106.168 127.5 103.177 130.865C101.64 132.609 99.9372 134.146 98.1096 135.558C96.3652 136.887 94.5791 138.133 92.8761 139.504C91.2562 140.833 89.678 142.245 88.4734 143.99C87.1028 146.025 86.5628 148.31 86.3551 150.719C86.1474 153.169 86.1059 155.661 85.0675 157.946C84.2368 159.815 82.7415 161.476 80.7063 161.975C79.9171 162.183 79.5848 160.978 80.374 160.77C82.6585 160.189 83.9461 157.987 84.5275 155.828C85.2752 153.003 84.9429 150.013 85.6906 147.147C86.7705 142.993 90.0518 140.044 93.3331 137.552C95.036 136.264 96.7805 135.06 98.4419 133.689C100.186 132.235 101.806 130.616 103.219 128.83C108.66 121.976 110.529 113.171 109.573 104.614C109.075 104.49 108.784 103.742 109.366 103.493C111.443 102.579 113.478 101.582 115.43 100.419C118.587 98.5917 121.577 96.3903 123.862 93.4828C126.271 90.4507 127.641 86.7956 128.223 83.0159C128.347 82.3098 129.552 82.6421 129.427 83.4312Z" fill="#3F4254"/>
<path d="M135.865 66.5683C135.865 64.0762 132.916 62.7055 131.006 64.3669L111.692 81.1057C111.069 81.6457 110.695 82.4764 110.695 83.3071V87.4191C111.484 87.3776 112.273 87.3361 113.104 87.2945C115.015 87.1699 116.967 87.0038 118.753 86.2977C120.331 85.6746 121.909 84.2209 123.737 84.6363C124.485 84.8024 124.983 85.2177 125.274 85.7992L128.264 83.2241C128.264 83.1825 128.264 83.141 128.306 83.0994C128.347 82.7256 128.638 82.601 128.929 82.6426L134.952 77.4506C135.575 76.9107 135.948 76.08 135.948 75.2492L135.865 66.5683Z" fill="#9ED5F0"/>
<path d="M123.114 85.1339C124.401 84.137 125.689 83.0986 126.977 82.1018C128.929 80.565 130.964 79.0697 132.875 77.4498C133.373 77.0344 133.83 76.5775 133.996 75.913C134.204 75.0823 134.038 74.1685 133.996 73.2962C133.83 70.3888 133.705 67.5228 133.539 64.6153C133.498 63.8261 132.252 63.8261 132.293 64.6153C132.418 67.1074 132.542 69.5581 132.667 72.0502C132.709 73.0886 132.833 74.127 132.833 75.1653C132.833 75.7468 132.542 76.0376 132.127 76.4114C130.3 77.9482 128.389 79.3604 126.52 80.8142C124.568 82.351 122.615 83.8878 120.622 85.4246" fill="#3F4254"/>
</svg>
