<svg width="60" height="60" viewBox="0 0 60 60" fill="none" xmlns="http://www.w3.org/2000/svg">
<g clip-path="url(#clip0_11_741)">
<path d="M27.299 10.151C28.9559 9.19444 30.9972 9.19444 32.6541 10.151L45.8497 17.7695C47.5066 18.7261 48.5273 20.494 48.5273 22.4072V37.6442C48.5273 39.5574 47.5066 41.3253 45.8497 42.2819L32.6541 49.9004C30.9972 50.857 28.9559 50.857 27.299 49.9004L14.1034 42.2819C12.4465 41.3253 11.4258 39.5574 11.4258 37.6442V22.4072C11.4258 20.494 12.4465 18.7261 14.1034 17.7695L27.299 10.151Z" fill="#FFAF03"/>
<mask id="mask0_11_741" style="mask-type:alpha" maskUnits="userSpaceOnUse" x="-76" y="-87" width="300" height="300">
<path d="M14.6942 -82.4774C24.0832 -87.8982 35.6509 -87.8982 45.0399 -82.4774L119.815 -39.3059C129.204 -33.8852 134.988 -23.8672 134.988 -13.0257V73.3172C134.988 84.1587 129.204 94.1767 119.815 99.5975L45.0399 142.769C35.6509 148.19 24.0832 148.19 14.6942 142.769L-60.081 99.5975C-69.47 94.1767 -75.2539 84.1587 -75.2539 73.3172V-13.0257C-75.2539 -23.8672 -69.47 -33.8852 -60.081 -39.3059L14.6942 -82.4774Z" fill="#E35B64"/>
</mask>
<g mask="url(#mask0_11_741)">
<path d="M39.586 20.5886C34.4643 17.3601 32.9167 15.5829 34.3084 14.5279C34.8205 14.1396 35.5941 14.0429 37.1258 14.1747C39.7935 14.4047 46.1995 17.53 47.8288 19.3963L48.9118 20.6367L48.8059 30.7393L48.7 40.842L47.7996 41.7278C46.8957 42.6174 37.4114 48.2905 33.0334 50.5599C31.2935 51.4621 30.4151 51.7193 29.612 51.5617C29.0178 51.4451 26.6678 50.264 24.3898 48.9366C22.1119 47.6096 18.8111 45.7133 17.055 44.7231C15.2989 43.7325 13.3137 42.3707 12.6431 41.6967C11.4557 40.5022 11.4244 40.3943 11.4258 37.4951C11.4276 33.1377 12.6428 31.4999 15.3832 32.1609C16.7305 32.4858 17.1929 33.7824 17.1288 37.0543C17.0557 40.7858 17.6661 42.0759 20.0035 43.1277C20.9889 43.5713 22.4857 43.8966 23.6079 43.9111C26.7614 43.9516 27.1252 42.743 25.8247 36.5465C24.9365 32.3141 24.8919 28.8452 25.708 27.4562C27.2321 24.8612 32.4608 23.7417 35.5545 25.3476C37.1049 26.1524 37.2094 26.3103 37.9639 28.9792C39.0634 32.8682 39.312 33.2514 40.7335 33.2514C41.4152 33.2514 42.1654 32.9801 42.486 32.6176C43.2646 31.7364 43.8337 29.4417 43.8358 27.1704C43.8391 24.1629 42.8663 22.6562 39.586 20.5886Z" fill="#704C00"/>
</g>
</g>
<defs>
<clipPath id="clip0_11_741">
<rect width="60" height="60" fill="white"/>
</clipPath>
</defs>
</svg>
