<svg width="18" height="18" viewBox="0 0 18 18" fill="none" xmlns="http://www.w3.org/2000/svg">
<path opacity="0.3" d="M15 1.61914C14.8474 1.62108 14.7017 1.68255 14.5938 1.79044C14.4859 1.89832 14.4244 2.04408 14.4225 2.19664V4.25164C13.5385 3.32776 12.4204 2.66111 11.1873 2.32275C9.95423 1.98439 8.65244 1.98702 7.42074 2.33036C6.18904 2.6737 5.07361 3.34487 4.19337 4.27231C3.31313 5.19975 2.70109 6.3487 2.42251 7.59664C2.40482 7.67055 2.4021 7.74726 2.41449 7.82224C2.42689 7.89722 2.45415 7.96897 2.49468 8.03326C2.53521 8.09755 2.58819 8.15308 2.6505 8.1966C2.71281 8.24011 2.78319 8.27073 2.85751 8.28664C2.9022 8.29405 2.94781 8.29405 2.99251 8.28664C3.12338 8.28647 3.25032 8.24185 3.35252 8.16009C3.45472 8.07833 3.52611 7.96429 3.55501 7.83664C3.78913 6.78741 4.30536 5.82204 5.04799 5.04473C5.79061 4.26741 6.73142 3.70768 7.76888 3.42592C8.80634 3.14417 9.90104 3.15111 10.9348 3.44599C11.9687 3.74086 12.9023 4.31248 13.635 5.09914H11.4675C11.3124 5.09914 11.1636 5.16077 11.0538 5.27048C10.9441 5.38019 10.8825 5.52899 10.8825 5.68414C10.8825 5.83929 10.9441 5.98809 11.0538 6.0978C11.1636 6.20751 11.3124 6.26914 11.4675 6.26914H15C15.1552 6.26914 15.304 6.20751 15.4137 6.0978C15.5234 5.98809 15.585 5.83929 15.585 5.68414V2.19664C15.583 2.04279 15.5205 1.89591 15.411 1.78782C15.3015 1.67973 15.1539 1.61913 15 1.61914V1.61914Z" fill="#A1A5B7"/>
<path d="M15.81 9.88336C15.6589 9.85462 15.5026 9.8865 15.3749 9.97212C15.2472 10.0577 15.1583 10.1902 15.1275 10.3409C14.9075 11.4093 14.3961 12.396 13.6499 13.1917C12.9037 13.9874 11.9518 14.561 10.8997 14.8491C9.84756 15.1371 8.73624 15.1284 7.68878 14.8238C6.64132 14.5192 5.6986 13.9307 4.965 13.1234H7.215C7.29688 13.1327 7.3798 13.1246 7.45833 13.0996C7.53686 13.0747 7.60923 13.0334 7.67071 12.9785C7.73218 12.9236 7.78137 12.8564 7.81505 12.7812C7.84872 12.706 7.86613 12.6245 7.86613 12.5421C7.86613 12.4597 7.84872 12.3782 7.81505 12.303C7.78137 12.2278 7.73218 12.1606 7.67071 12.1057C7.60923 12.0508 7.53686 12.0096 7.45833 11.9846C7.3798 11.9596 7.29688 11.9515 7.215 11.9609H3.96C3.88318 11.9609 3.80711 11.976 3.73613 12.0054C3.66515 12.0348 3.60066 12.0779 3.54634 12.1322C3.49202 12.1865 3.44893 12.251 3.41953 12.322C3.39013 12.393 3.375 12.469 3.375 12.5459V15.9134C3.375 16.0685 3.43663 16.2173 3.54634 16.327C3.65605 16.4367 3.80485 16.4984 3.96 16.4984C4.11515 16.4984 4.26395 16.4367 4.37366 16.327C4.48337 16.2173 4.545 16.0685 4.545 15.9134V14.3459C5.46416 15.195 6.59216 15.785 7.81386 16.0558C9.03557 16.3266 10.3072 16.2683 11.4991 15.8871C12.6909 15.5058 13.7603 14.8151 14.598 13.8856C15.4357 12.956 16.0118 11.8208 16.2675 10.5959C16.2851 10.519 16.2872 10.4394 16.2736 10.3617C16.2601 10.284 16.2311 10.2098 16.1885 10.1434C16.1459 10.0771 16.0905 10.0199 16.0255 9.97523C15.9605 9.93057 15.8872 9.89934 15.81 9.88336V9.88336Z" fill="#A1A5B7"/>
</svg>
