<svg width="16" height="16" viewBox="0 0 16 16" fill="none" xmlns="http://www.w3.org/2000/svg">
<g clip-path="url(#clip0_33_1986)">
<path d="M6.98788 15.5061C5.29376 15.3414 3.57611 14.5179 2.72905 13.0355C1.90552 11.5532 2.11729 9.67082 2.70552 8.04729L3.19964 9.45905C3.2467 9.60023 3.31729 9.76494 3.43493 9.83552C3.62317 9.95317 3.88199 9.85905 4.02317 9.67082C4.14082 9.48258 4.16435 9.24729 4.14082 9.03552C4.07023 8.09435 3.52905 7.22376 3.50552 6.28258C3.48199 5.20023 4.16435 4.21199 5.0114 3.52964C5.03493 3.90611 5.12905 4.30611 5.2467 4.65905C5.29376 4.80023 5.38788 4.94141 5.52905 4.96494C5.62317 4.96494 5.71729 4.91788 5.78788 4.84729C6.49376 4.25905 6.91729 3.41199 7.08199 2.51788C7.15258 2.07082 7.15258 1.60023 7.05846 1.15317C7.03493 1.05905 6.8467 0.588466 6.89376 0.517878C6.96435 0.376701 7.36435 0.682583 7.45846 0.729642C9.01141 1.71788 10.0467 3.48258 10.0702 5.31788C10.0702 5.60023 10.1173 5.9767 10.3996 6.02376C10.5643 6.04729 10.7291 5.95317 10.8232 5.812C10.9173 5.67082 10.9173 5.50611 10.9408 5.34141C12.0467 6.32964 12.8467 7.55317 13.3879 8.91788C13.6938 9.71788 13.9055 10.5885 13.7408 11.4355C13.5996 12.212 13.2232 12.9179 12.682 13.5061C11.7879 14.5179 10.5879 15.3179 9.2467 15.4591C8.54082 15.5296 7.78788 15.5532 6.98788 15.5061Z" fill="#F95353"/>
<path d="M11.1293 14.4236C11.0822 14.5883 11.0116 14.7766 10.9411 14.9413C10.4234 15.2236 9.85871 15.4119 9.27047 15.4589C8.82341 15.506 8.37635 15.5295 7.90577 15.5295C7.62341 15.5295 7.31753 15.5295 7.01165 15.506C6.47047 15.4589 5.9293 15.3413 5.41165 15.1531C5.1293 14.7531 4.94106 14.2825 4.87047 13.8119C4.70577 12.7766 5.01165 11.7178 5.59988 10.8472C5.694 10.706 5.90577 10.7531 5.95283 10.9178C6.11753 11.4589 6.47047 11.9531 6.87047 12.3766C6.98812 12.4942 7.17636 12.4236 7.19988 12.2589C7.24694 11.6942 7.36459 10.6354 7.57636 10.0707C7.83518 9.36482 8.23518 8.68247 8.82341 8.18835C8.94106 8.09423 9.10577 8.14129 9.1293 8.306C9.24694 9.01188 9.59988 9.6707 9.95283 10.306C10.3764 11.0119 10.8469 11.7178 11.0587 12.5178C11.2705 13.106 11.294 13.7883 11.1293 14.4236Z" fill="white"/>
<path d="M11.1293 14.4236C11.0822 14.5883 11.0116 14.7766 10.9411 14.9413C10.4234 15.2236 9.85871 15.4119 9.27047 15.4589C8.82341 15.506 8.37635 15.5295 7.90577 15.5295C7.62341 15.5295 7.31753 15.5295 7.01165 15.506C6.47047 15.4589 5.9293 15.3413 5.41165 15.1531C5.1293 14.7531 4.94106 14.2825 4.87047 13.8119C4.70577 12.7766 5.01165 11.7178 5.59988 10.8472C5.694 10.706 5.90577 10.7531 5.95283 10.9178C6.11753 11.4589 6.47047 11.9531 6.87047 12.3766C6.98812 12.4942 7.17636 12.4236 7.19988 12.2589C7.24694 11.6942 7.36459 10.6354 7.57636 10.0707C7.83518 9.36482 8.23518 8.68247 8.82341 8.18835C8.94106 8.09423 9.10577 8.14129 9.1293 8.306C9.24694 9.01188 9.59988 9.6707 9.95283 10.306C10.3764 11.0119 10.8469 11.7178 11.0587 12.5178C11.2705 13.106 11.294 13.7883 11.1293 14.4236Z" fill="#FFD550"/>
<path d="M11.1293 14.4236C11.0822 14.5883 11.0116 14.7766 10.9411 14.9413C10.4234 15.2236 9.85871 15.4119 9.27047 15.4589C8.82341 15.506 8.37635 15.5295 7.90577 15.5295C7.62341 15.5295 7.31753 15.5295 7.01165 15.506C6.47047 15.4589 5.9293 15.3413 5.41165 15.1531C5.1293 14.7531 4.94106 14.2825 4.87047 13.8119C4.70577 12.7766 5.01165 11.7178 5.59988 10.8472C5.694 10.706 5.90577 10.7531 5.95283 10.9178C6.11753 11.4589 6.47047 11.9531 6.87047 12.3766C6.98812 12.4942 7.17636 12.4236 7.19988 12.2589C7.24694 11.6942 7.36459 10.6354 7.57636 10.0707C7.83518 9.36482 8.23518 8.68247 8.82341 8.18835C8.94106 8.09423 9.10577 8.14129 9.1293 8.306C9.24694 9.01188 9.59988 9.6707 9.95283 10.306C10.3764 11.0119 10.8469 11.7178 11.0587 12.5178C11.2705 13.106 11.294 13.7883 11.1293 14.4236Z" fill="#FFD550"/>
</g>
<defs>
<clipPath id="clip0_33_1986">
<rect width="16" height="16" fill="white"/>
</clipPath>
</defs>
</svg>
