<svg width="20" height="20" viewBox="0 0 16 16" fill="none" xmlns="http://www.w3.org/2000/svg">
<path d="M11.0499 10.3122C10.9935 10.3138 10.9394 10.335 10.897 10.3722C10.1893 10.9935 9.32295 11.4057 8.39436 11.5626C8.35844 11.5687 8.32436 11.5828 8.29465 11.6039C8.26495 11.6249 8.2404 11.6525 8.22284 11.6844C8.20527 11.7163 8.19514 11.7517 8.19321 11.7881C8.19128 11.8245 8.1976 11.8608 8.21169 11.8944L9.66975 15.3704C9.68834 15.4145 9.71963 15.4521 9.75964 15.4785C9.79965 15.5048 9.84658 15.5186 9.89447 15.5182C9.94237 15.5179 9.98907 15.5032 10.0286 15.4763C10.0682 15.4493 10.0989 15.4112 10.1168 15.3667L10.7856 13.7L12.4768 14.3788C12.5211 14.3965 12.5696 14.4008 12.6162 14.3911C12.6629 14.3814 12.7056 14.3581 12.739 14.3241C12.7725 14.2902 12.7951 14.2471 12.8042 14.2003C12.8132 14.1535 12.8082 14.1051 12.7898 14.0611L11.2793 10.4601C11.2605 10.4151 11.2285 10.3769 11.1876 10.3505C11.1466 10.324 11.0987 10.3109 11.0499 10.3122Z" fill="#FF5757"/>
<path d="M3.83741 10.4628L2.3279 14.0615C2.24506 14.2593 2.44179 14.459 2.64085 14.3791L4.33209 13.7004L5.00094 15.3671C5.08162 15.5673 5.36432 15.5694 5.44794 15.3707L6.90789 11.8906C6.96815 11.7468 6.87853 11.5844 6.72475 11.5587C5.79586 11.4041 4.92846 10.9939 4.21928 10.3744C4.1763 10.337 4.12146 10.3159 4.06446 10.315C3.96558 10.3132 3.87565 10.3716 3.83741 10.4628Z" fill="#FF5757"/>
<path d="M7.55896 1C4.49195 1 2 3.49195 2 6.55896C2 9.62596 4.49195 12.1161 7.55896 12.1161C10.626 12.1161 13.1179 9.62596 13.1179 6.55896C13.1179 3.49195 10.626 1 7.55896 1Z" fill="#FFCB3C"/>
<path d="M7.559 2.20776C5.15936 2.20776 3.20959 4.15931 3.20959 6.55895C3.20959 8.9586 5.15936 10.9084 7.559 10.9084C9.95864 10.9084 11.9084 8.9586 11.9084 6.55895C11.9084 4.15931 9.95864 2.20776 7.559 2.20776Z" fill="#FFEA54"/>
<path d="M7.55706 3.78288C7.51088 3.7863 7.46666 3.80291 7.42966 3.83074C7.39266 3.85857 7.36443 3.89646 7.34833 3.93987L6.70787 5.63646L4.89354 5.69171C4.84427 5.69348 4.79673 5.71028 4.75728 5.73985C4.71783 5.76941 4.68836 5.81033 4.67283 5.85712C4.6573 5.9039 4.65645 5.95431 4.67039 6.00159C4.68433 6.04888 4.71239 6.09077 4.75082 6.12165L6.16553 7.25628L5.65888 8.99746C5.6449 9.04505 5.6459 9.09581 5.66174 9.1428C5.67759 9.1898 5.7075 9.23077 5.74744 9.26019C5.78737 9.2896 5.83538 9.30602 5.88497 9.30721C5.93455 9.3084 5.9833 9.29431 6.0246 9.26685L7.53922 8.27137L9.03956 9.29182C9.08046 9.31977 9.12896 9.33447 9.17849 9.33394C9.22802 9.33342 9.27619 9.31768 9.31648 9.28887C9.35677 9.26006 9.38724 9.21958 9.40377 9.17288C9.42029 9.12619 9.42206 9.07553 9.40885 9.02779L8.93074 7.27768L10.3633 6.16803C10.4027 6.13793 10.4319 6.09644 10.4469 6.04918C10.4619 6.00191 10.4621 5.95117 10.4473 5.90383C10.4325 5.8565 10.4034 5.81484 10.3642 5.78456C10.3249 5.75427 10.2773 5.73681 10.2277 5.73452L8.41516 5.64886L7.80146 3.94335C7.78386 3.89357 7.75043 3.8509 7.7063 3.8219C7.66216 3.79291 7.60974 3.77926 7.55706 3.78288Z" fill="#FEAA2B"/>
</svg>
