<svg width="16" height="16" viewBox="0 0 16 16" fill="none" xmlns="http://www.w3.org/2000/svg">
<path d="M14.6666 7.99967C14.6666 9.31822 14.2756 10.6071 13.5431 11.7035C12.8105 12.7998 11.7693 13.6543 10.5511 14.1589C9.33297 14.6635 7.99253 14.7955 6.69932 14.5382C5.40611 14.281 4.21823 13.6461 3.28588 12.7137C2.35353 11.7814 1.71859 10.5935 1.46135 9.30028C1.20412 8.00707 1.33614 6.66663 1.84072 5.44845C2.34531 4.23028 3.19979 3.18909 4.29612 2.45654C5.39245 1.724 6.68138 1.33301 7.99992 1.33301C8.8754 1.33301 9.74231 1.50545 10.5511 1.84048C11.36 2.17551 12.0949 2.66657 12.714 3.28563C13.333 3.90469 13.8241 4.63961 14.1591 5.44845C14.4942 6.25729 14.6666 7.1242 14.6666 7.99967ZM7.79992 10.473L11.7999 6.47301C11.9241 6.3481 11.9938 6.17913 11.9938 6.00301C11.9938 5.82688 11.9241 5.65792 11.7999 5.53301C11.675 5.40884 11.506 5.33915 11.3299 5.33915C11.1538 5.33915 10.9848 5.40884 10.8599 5.53301L7.33326 9.05967L5.13325 6.85967C5.0086 6.73414 4.83919 6.66326 4.66228 6.66264C4.48537 6.66201 4.31546 6.73169 4.18992 6.85634C4.06439 6.98099 3.99351 7.15041 3.99288 7.32732C3.99226 7.50423 4.06194 7.67414 4.18659 7.79967L6.85326 10.4663C6.91479 10.5293 6.98817 10.5794 7.06918 10.6138C7.15018 10.6482 7.23719 10.6663 7.3252 10.6669C7.41321 10.6675 7.50047 10.6507 7.58195 10.6174C7.66342 10.5841 7.73751 10.5351 7.79992 10.473Z" fill="#50CD89"/>
</svg>
