<svg width="16" height="16" viewBox="0 0 16 16" fill="none" xmlns="http://www.w3.org/2000/svg">
<g clip-path="url(#clip0_33_2782)">
<path d="M16 8C16 10.1107 15.1826 12.0305 13.847 13.4601C12.387 15.023 10.3076 15.8606 8.00001 15.8606C3.58173 15.8606 0.153076 12.4183 0.153076 8C0.153076 5.69256 0.976889 3.61328 2.53964 2.15319C3.96926 0.817531 5.88917 0 8.00001 0C12.4183 0 16 3.58172 16 8Z" fill="#FFD05B"/>
<path d="M7.99997 14.4516C11.5631 14.4516 14.4516 11.5631 14.4516 7.99997C14.4516 4.43683 11.5631 1.54834 7.99997 1.54834C4.43683 1.54834 1.54834 4.43683 1.54834 7.99997C1.54834 11.5631 4.43683 14.4516 7.99997 14.4516Z" fill="#FFEAA5"/>
<path d="M13.4195 7.99991C13.4195 9.38054 12.9032 10.6406 12.0532 11.5975C11.0605 12.7151 9.61252 13.2779 8.00012 13.2779C5.00708 13.2779 2.75952 10.9929 2.75952 7.99994C2.75952 6.38854 3.28405 4.94141 4.40043 3.94872C5.35761 3.09757 6.61849 2.58057 8.00012 2.58057C10.9931 2.58057 13.4195 5.00688 13.4195 7.99991Z" fill="#FFE077"/>
<path d="M9.29025 8.25827L8.24078 5.52968C8.15594 5.30912 7.84387 5.30912 7.75906 5.52968L6.70959 8.25827L5.35144 7.23965L5.18237 7.47302L6.25137 10.6413L10.2257 10.3228L11.1162 7.47302C11.1909 7.23393 10.9155 7.0393 10.7151 7.18959L9.29025 8.25827Z" fill="#FFC244"/>
<path d="M8.38709 15.613C3.96881 15.613 0.387094 12.0313 0.387094 7.61301C0.387094 5.50235 1.20416 3.58288 2.53966 2.15332C0.976688 3.61341 0 5.69248 0 8.0001C0 12.4184 3.58172 16.0001 8 16.0001C10.3076 16.0001 12.3869 15.0232 13.847 13.4602C12.4175 14.7957 10.4978 15.613 8.38709 15.613Z" fill="#FFC244"/>
<path d="M8.45007 12.9691C5.45704 12.9691 3.03072 10.5428 3.03072 7.54976C3.03072 6.16789 3.54885 4.90598 4.40025 3.94873C3.28416 4.94136 2.58057 6.38879 2.58057 7.99992C2.58057 10.9929 5.00691 13.4193 7.99991 13.4193C9.61107 13.4193 11.0603 12.7136 12.053 11.5975C11.0957 12.4489 9.83197 12.9691 8.45007 12.9691Z" fill="#FFD05B"/>
<path d="M6.08863 9.59832L5.3515 7.23953L5.28478 7.1895C5.08438 7.03919 4.80891 7.23382 4.88362 7.47294L5.82228 10.4766C5.88962 10.6921 6.08919 10.8388 6.31494 10.8388H9.68506C9.91081 10.8388 10.1104 10.6921 10.1777 10.4766L10.2258 10.3227H7.07394C6.62241 10.3227 6.22328 10.0293 6.08863 9.59832Z" fill="#FFAA5A"/>
</g>
<defs>
<clipPath id="clip0_33_2782">
<rect width="16" height="16" fill="white"/>
</clipPath>
</defs>
</svg>
