<svg width="16" height="16" viewBox="0 0 16 16" fill="none" xmlns="http://www.w3.org/2000/svg">
<g clip-path="url(#clip0_33_2732)">
<path d="M14.6688 3.99928C13.9323 3.99928 13.3353 4.59634 13.3353 5.33282C13.3355 5.47262 13.3581 5.61149 13.4019 5.74422L12.3204 6.43167C11.6084 6.88536 10.6695 6.73499 10.1348 6.08162L9.07461 4.78477C9.24332 4.55764 9.33453 4.28226 9.33465 3.99931C9.33465 3.26283 8.73759 2.66577 8.00111 2.66577C7.26463 2.66577 6.66757 3.26283 6.66757 3.99931C6.6677 4.28226 6.7589 4.55764 6.92761 4.78477L5.86745 6.08162C5.33278 6.73462 4.39439 6.88495 3.68248 6.43167L2.60038 5.74422C2.64429 5.61149 2.6668 5.47262 2.66705 5.33282C2.66717 4.59634 2.07024 3.99919 1.33373 3.99906C0.597275 3.99894 0.000125041 4.5959 2.21853e-08 5.33238C-0.000124996 6.02373 0.52814 6.60054 1.21683 6.66101L2.00495 11.3884C2.03167 11.5491 2.17069 11.667 2.33365 11.6671H13.6687C13.8316 11.667 13.9706 11.5491 13.9974 11.3884L14.7855 6.66101C15.519 6.59522 16.0604 5.94722 15.9946 5.21368C15.933 4.52704 15.3582 4.00056 14.6688 3.99928Z" fill="#FFC107"/>
<path d="M8.00098 13.0008C11.1311 13.0008 13.6685 12.2545 13.6685 11.3339C13.6685 10.4133 11.1311 9.66699 8.00098 9.66699C4.87092 9.66699 2.3335 10.4133 2.3335 11.3339C2.3335 12.2545 4.87092 13.0008 8.00098 13.0008Z" fill="#FFA000"/>
<path d="M8.00137 13.3341C5.01893 13.3341 2.00049 12.6473 2.00049 11.3338C2.00049 10.0203 5.01893 9.3335 8.00137 9.3335C10.9838 9.3335 14.0022 10.0203 14.0022 11.3338C14.0022 12.6473 10.9838 13.3341 8.00137 13.3341ZM8.00137 10.0003C4.49951 10.0003 2.66724 10.867 2.66724 11.3338C2.66724 11.8005 4.49951 12.6673 8.00137 12.6673C11.5032 12.6673 13.3355 11.8005 13.3355 11.3338C13.3355 10.867 11.5032 10.0003 8.00137 10.0003Z" fill="#FFD54F"/>
</g>
<defs>
<clipPath id="clip0_33_2732">
<rect width="16" height="16" fill="white"/>
</clipPath>
</defs>
</svg>
