<svg width="20" height="21" viewBox="0 0 20 21" fill="none" xmlns="http://www.w3.org/2000/svg">
<path d="M14.1667 18.8329H5.83333C4.94928 18.8329 4.10143 18.4817 3.47631 17.8566C2.85119 17.2315 2.5 16.3836 2.5 15.4996V12.6829C2.49984 11.9591 2.78331 11.2641 3.28961 10.7469C3.79591 10.2297 4.48472 9.93149 5.20833 9.91623H5.88333C6.29285 9.91659 6.69737 10.0063 7.06869 10.179C7.44001 10.3517 7.76921 10.6033 8.03333 10.9162L8.275 11.2079C8.48541 11.4585 8.74812 11.6599 9.04468 11.7981C9.34125 11.9364 9.66447 12.008 9.99167 12.008C10.3189 12.008 10.6421 11.9364 10.9386 11.7981C11.2352 11.6599 11.4979 11.4585 11.7083 11.2079L11.95 10.9162C12.2141 10.6033 12.5433 10.3517 12.9146 10.179C13.286 10.0063 13.6905 9.91659 14.1 9.91623H14.7917C15.5254 9.91623 16.2291 10.2077 16.748 10.7266C17.2668 11.2454 17.5583 11.9491 17.5583 12.6829V15.4996C17.5584 15.9423 17.4703 16.3805 17.2991 16.7888C17.128 17.1971 16.8772 17.5671 16.5615 17.8774C16.2458 18.1878 15.8714 18.4321 15.4602 18.5961C15.049 18.7601 14.6093 18.8406 14.1667 18.8329ZM3.99167 9.30789V4.80789C3.99164 4.45816 4.06106 4.11191 4.19589 3.78921C4.33073 3.46652 4.5283 3.17381 4.77714 2.92807C5.02598 2.68233 5.32115 2.48844 5.64551 2.35766C5.96986 2.22688 6.31696 2.16181 6.66667 2.16623H13.4167C14.1173 2.16623 14.7892 2.44454 15.2846 2.93995C15.78 3.43536 16.0583 4.10728 16.0583 4.80789V9.31623C15.6642 9.16615 15.2467 9.08715 14.825 9.08289H14.1333C13.6025 9.08258 13.0781 9.19885 12.5972 9.42348C12.1162 9.64812 11.6905 9.97563 11.35 10.3829L11.1083 10.6746C10.9743 10.8308 10.8081 10.9564 10.6212 11.0426C10.4342 11.1289 10.2309 11.1739 10.025 11.1746C9.82015 11.1749 9.61771 11.1304 9.43196 11.044C9.24621 10.9576 9.08169 10.8315 8.95 10.6746L8.7 10.3746C8.35401 9.96582 7.92232 9.63821 7.43554 9.41499C6.94877 9.19176 6.41883 9.07838 5.88333 9.08289H5.20833C4.79304 9.08923 4.38176 9.16529 3.99167 9.30789ZM11.6667 8.17456C11.6667 8.0088 11.6008 7.84983 11.4836 7.73262C11.3664 7.61541 11.2074 7.54956 11.0417 7.54956H8.875C8.70924 7.54956 8.55027 7.61541 8.43306 7.73262C8.31585 7.84983 8.25 8.0088 8.25 8.17456C8.25 8.34032 8.31585 8.49929 8.43306 8.6165C8.55027 8.73371 8.70924 8.79956 8.875 8.79956H11.025C11.1085 8.80179 11.1915 8.78727 11.2693 8.75685C11.3471 8.72644 11.4179 8.68076 11.4778 8.6225C11.5376 8.56424 11.5851 8.49459 11.6175 8.41765C11.65 8.34071 11.6667 8.25806 11.6667 8.17456ZM7.5 5.84956C7.50216 6.01465 7.5687 6.17237 7.68545 6.28911C7.80219 6.40586 7.95991 6.4724 8.125 6.47456H11.875C12.0408 6.47456 12.1997 6.40871 12.3169 6.2915C12.4342 6.17429 12.5 6.01532 12.5 5.84956C12.5 5.6838 12.4342 5.52483 12.3169 5.40762C12.1997 5.29041 12.0408 5.22456 11.875 5.22456H8.125C7.95991 5.22672 7.80219 5.29326 7.68545 5.41C7.5687 5.52675 7.50216 5.68447 7.5 5.84956Z" fill="#009EF6"/>
</svg>
