<svg width="20" height="21" viewBox="0 0 20 21" fill="none" xmlns="http://www.w3.org/2000/svg">
<path d="M11.4834 11.7493C11.5753 11.844 11.6471 11.9563 11.6944 12.0795C11.7416 12.2027 11.7634 12.3342 11.7584 12.466C11.758 12.6507 11.7122 12.8324 11.625 12.9952C11.5378 13.158 11.4119 13.2968 11.2584 13.3993C11.0596 13.5378 10.8361 13.6368 10.6 13.691V11.2827L10.8334 11.3327C11.0796 11.4188 11.3023 11.5615 11.4834 11.7493ZM18.3334 10.4993C18.3334 12.1475 17.8446 13.7587 16.9289 15.1291C16.0133 16.4995 14.7118 17.5676 13.1891 18.1983C11.6663 18.8291 9.99078 18.9941 8.37427 18.6726C6.75776 18.351 5.2729 17.5573 4.10747 16.3919C2.94203 15.2265 2.14836 13.7416 1.82681 12.1251C1.50527 10.5086 1.6703 8.83304 2.30103 7.31032C2.93176 5.7876 3.99986 4.48611 5.37027 3.57044C6.74068 2.65476 8.35185 2.16602 10 2.16602C11.0944 2.16602 12.178 2.38156 13.1891 2.80035C14.2001 3.21914 15.1188 3.83297 15.8926 4.60679C16.6664 5.38061 17.2802 6.29927 17.699 7.31032C18.1178 8.32137 18.3334 9.405 18.3334 10.4993ZM13.5334 12.2743C13.5576 11.886 13.4891 11.4976 13.3334 11.141C13.177 10.8349 12.9481 10.5717 12.6667 10.3743C12.3491 10.1529 12.001 9.97888 11.6334 9.85768C11.3417 9.75768 11.0167 9.66602 10.675 9.57435V7.30768C10.7831 7.34343 10.8845 7.39694 10.975 7.46601C11.2204 7.68502 11.4188 7.9515 11.5584 8.24935C11.649 8.43332 11.7639 8.60429 11.9 8.75768C12.0334 8.86641 12.2034 8.92007 12.375 8.90768C12.482 8.90987 12.5882 8.88863 12.686 8.84544C12.7839 8.80225 12.8712 8.73817 12.9417 8.65768C13.0896 8.49981 13.1702 8.29063 13.1667 8.07435C13.1643 7.82416 13.1014 7.57827 12.9834 7.35768C12.8455 7.08258 12.6492 6.84085 12.4084 6.64935C12.1166 6.40534 11.7796 6.22127 11.4167 6.10768C11.1783 6.02991 10.9326 5.97686 10.6834 5.94935V5.49935C10.6845 5.41657 10.6691 5.3344 10.6382 5.25761C10.6073 5.18082 10.5614 5.11093 10.5033 5.05201C10.4451 4.99309 10.3759 4.9463 10.2995 4.91438C10.2231 4.88245 10.1411 4.86601 10.0584 4.86602C9.97387 4.86255 9.88958 4.8765 9.81072 4.907C9.73186 4.93749 9.66011 4.98388 9.59993 5.04328C9.53975 5.10267 9.49243 5.17381 9.46091 5.25227C9.42938 5.33073 9.41433 5.41483 9.41669 5.49935V5.93268C9.0037 5.96108 8.59685 6.04806 8.20836 6.19102C7.73788 6.367 7.33133 6.68062 7.04169 7.09101C6.78219 7.47371 6.65088 7.92891 6.66669 8.39102C6.64481 8.84242 6.76741 9.28905 7.01669 9.66601C7.27746 10.0307 7.63149 10.3185 8.04169 10.4993C8.47148 10.6876 8.91785 10.8355 9.37502 10.941V13.6993C9.26055 13.6745 9.14888 13.6382 9.04169 13.591C8.81916 13.4813 8.62732 13.3181 8.48336 13.116C8.33929 12.8919 8.21653 12.6547 8.11669 12.4077C8.04861 12.2039 7.93455 12.0186 7.78336 11.866C7.65027 11.7485 7.4775 11.6859 7.30002 11.691C7.19308 11.6866 7.08644 11.7052 6.98726 11.7454C6.88808 11.7857 6.79867 11.8467 6.72502 11.9243C6.64907 11.9958 6.58903 12.0824 6.54882 12.1786C6.50862 12.2748 6.48915 12.3784 6.49169 12.4827C6.5077 12.8972 6.64059 13.2988 6.87502 13.641C7.11504 14.0311 7.44329 14.3593 7.83336 14.5993C8.29933 14.8541 8.81277 15.0101 9.34169 15.0577V15.4993C9.34059 15.5821 9.35594 15.6643 9.38685 15.7411C9.41777 15.8179 9.46363 15.8878 9.52178 15.9467C9.57992 16.0056 9.6492 16.0524 9.72557 16.0843C9.80195 16.1163 9.88391 16.1327 9.96669 16.1327C10.0491 16.1327 10.1307 16.1162 10.2066 16.0842C10.2825 16.0522 10.3513 16.0053 10.4087 15.9462C10.4662 15.8872 10.5113 15.8172 10.5413 15.7405C10.5713 15.6637 10.5856 15.5817 10.5834 15.4993V15.0577C11.0326 15.022 11.4738 14.918 11.8917 14.7493C12.3864 14.5382 12.8091 14.1879 13.1084 13.741C13.3918 13.3048 13.5397 12.7945 13.5334 12.2743ZM8.33336 8.22435C8.33299 8.39055 8.38232 8.55307 8.47502 8.69101C8.58741 8.82509 8.72288 8.93798 8.87502 9.02435C9.04101 9.11063 9.21381 9.18309 9.39169 9.24101V7.24102C9.15406 7.27535 8.92664 7.36063 8.72502 7.49102C8.60457 7.57172 8.50583 7.68083 8.43752 7.80872C8.36922 7.93662 8.33344 8.07936 8.33336 8.22435Z" fill="#7239EA"/>
</svg>
