<svg width="24" height="24" viewBox="0 0 24 24" fill="none" xmlns="http://www.w3.org/2000/svg">
<path d="M16.69 6.19986H13.69C13.173 6.19876 12.6681 6.04294 12.2404 5.75244C11.8126 5.46195 11.4816 5.05008 11.29 4.56987L11 3.72987C10.8087 3.24461 10.4753 2.82842 10.0435 2.5358C9.6117 2.24318 9.10161 2.08775 8.58 2.08987H6.58C5.36531 2.08987 4.20037 2.5724 3.34145 3.43132C2.48253 4.29023 2 5.45517 2 6.66987V16.8299C2 17.5215 2.13638 18.2063 2.40135 18.8451C2.66631 19.4839 3.05466 20.0642 3.54415 20.5528C4.03365 21.0414 4.61469 21.4286 5.25401 21.6923C5.89334 21.9561 6.57841 22.0912 7.27 22.0899H16.69C17.3808 22.0965 18.0661 21.9669 18.7068 21.7087C19.3475 21.4504 19.931 21.0685 20.4241 20.5847C20.9172 20.1009 21.3101 19.5247 21.5805 18.889C21.8509 18.2533 21.9935 17.5706 22 16.8799V11.4699C22 10.0739 21.4461 8.73497 20.46 7.74694C19.4738 6.75891 18.136 6.20251 16.74 6.19986H16.69ZM14.81 14.9999L12.45 16.9999L12.33 17.0699H12.25C12.1687 17.1085 12.08 17.129 11.99 17.1299H11.94H11.73H11.64C11.6046 17.1136 11.571 17.0935 11.54 17.0699L9 14.9999C8.85475 14.8805 8.76193 14.7091 8.74137 14.5223C8.72082 14.3354 8.77416 14.1479 8.89 13.9999C8.95668 13.9185 9.04062 13.8529 9.13574 13.808C9.23086 13.763 9.33479 13.7397 9.44 13.7399C9.60216 13.7406 9.75984 13.7931 9.89 13.8899L11.27 14.9999V10.9999C11.2907 10.8248 11.375 10.6634 11.5068 10.5463C11.6386 10.4292 11.8087 10.3646 11.985 10.3646C12.1613 10.3646 12.3314 10.4292 12.4632 10.5463C12.595 10.6634 12.6793 10.8248 12.7 10.9999V14.9999L13.88 13.9999C14.022 13.8768 14.207 13.8151 14.3945 13.8282C14.5819 13.8414 14.7565 13.9282 14.88 14.0699C14.9806 14.208 15.0288 14.3774 15.0159 14.5477C15.0031 14.7181 14.9301 14.8784 14.81 14.9999Z" fill="#A1A5B7"/>
</svg>
