<svg width="16" height="16" viewBox="0 0 16 16" fill="none" xmlns="http://www.w3.org/2000/svg">
<path d="M9.89992 8.00012C9.89992 8.37591 9.78848 8.74325 9.57971 9.05571C9.37094 9.36816 9.0742 9.61169 8.72702 9.75549C8.37984 9.8993 7.99781 9.93693 7.62925 9.86362C7.26068 9.7903 6.92214 9.60935 6.65642 9.34363C6.3907 9.07791 6.20974 8.73936 6.13643 8.37079C6.06311 8.00223 6.10074 7.6202 6.24455 7.27303C6.38835 6.92585 6.63188 6.62911 6.94433 6.42033C7.25679 6.21156 7.62413 6.10012 7.99992 6.10012C8.50329 6.10188 8.98554 6.30262 9.34148 6.65856C9.69742 7.0145 9.89816 7.49675 9.89992 8.00012ZM14.6666 8.00012C14.6666 10.6668 11.3333 13.7068 7.99992 13.7068C4.84659 13.7068 1.33325 10.5068 1.33325 8.00012C1.33325 5.37346 4.84659 2.29346 7.99992 2.29346C11.1533 2.29346 14.6666 5.45346 14.6666 8.00012ZM10.8999 8.00012C10.8999 7.42656 10.7298 6.86587 10.4112 6.38897C10.0925 5.91207 9.63961 5.54037 9.1097 5.32087C8.57979 5.10138 7.9967 5.04395 7.43416 5.15585C6.87161 5.26774 6.35488 5.54394 5.94931 5.94951C5.54374 6.35509 5.26754 6.87182 5.15564 7.43436C5.04374 7.99691 5.10117 8.58 5.32067 9.1099C5.54016 9.63981 5.91186 10.0927 6.38876 10.4114C6.86567 10.73 7.42635 10.9001 7.99992 10.9001C8.76905 10.9001 9.50667 10.5946 10.0505 10.0507C10.5944 9.50688 10.8999 8.76925 10.8999 8.00012Z" fill="white"/>
</svg>
