<svg width="40" height="40" viewBox="0 0 40 40" fill="none" xmlns="http://www.w3.org/2000/svg">
<path d="M36.875 0H25.6251L9.375 23.7499H20.6249L36.875 0Z" fill="#D9214E"/>
<path d="M3.125 0H14.3749L30.6249 23.7499H19.375L3.125 0Z" fill="#F1416C"/>
<path d="M19.75 12.5C27.375 12.5 33.5 18.625 33.5 26.25C33.5 33.875 27.375 40 19.75 40C12.125 40 6 33.875 6 26.25C6 18.625 12.125 12.5 19.75 12.5Z" fill="#FFC700"/>
<path d="M20 16.25C14.5001 16.25 10 20.7499 10 26.25C10 31.7501 14.4999 36.2501 20 36.2501C25.5001 36.2501 30.0001 31.7501 30.0001 26.25C30.0001 20.7499 25.5 16.25 20 16.25ZM20 33.75C15.875 33.75 12.5001 30.3749 12.5001 26.25C12.5001 22.1251 15.8751 18.7501 20 18.7501C24.1249 18.7501 27.5 22.1251 27.5 26.25C27.5 30.3749 24.1249 33.75 20 33.75Z" fill="#F1BC00"/>
<path d="M21.5949 22.3636V30H19.5218V24.2727H19.4771L17.8066 25.272V23.5121L19.6859 22.3636H21.5949Z" fill="white"/>
</svg>
