<svg width="20" height="21" viewBox="0 0 20 21" fill="none" xmlns="http://www.w3.org/2000/svg">
<path d="M14.6248 6.80859C14.6248 5.58197 14.1375 4.40558 13.2702 3.53822C12.4028 2.67087 11.2264 2.18359 9.9998 2.18359C8.77317 2.18359 7.59678 2.67087 6.72943 3.53822C5.86207 4.40558 5.3748 5.58197 5.3748 6.80859C4.91822 6.82625 4.47061 6.94072 4.06161 7.14443C3.65262 7.34814 3.29158 7.63643 3.00241 7.9902C2.71325 8.34398 2.50256 8.75516 2.3843 9.19651C2.26604 9.63786 2.24292 10.0993 2.31646 10.5503L3.24146 16.1253C3.36255 16.8819 3.74973 17.5704 4.33332 18.0669C4.91691 18.5634 5.65857 18.8353 6.4248 18.8336H13.4831C14.2412 18.834 14.9753 18.5679 15.5572 18.082C16.139 17.5961 16.5317 16.9212 16.6665 16.1753L17.6748 10.6003C17.7562 10.1463 17.7392 9.68014 17.6251 9.23327C17.511 8.78639 17.3024 8.3692 17.0133 8.00982C16.7242 7.65045 16.3614 7.35726 15.9494 7.15004C15.5374 6.94282 15.0857 6.82638 14.6248 6.80859ZM9.9998 3.39193C10.9015 3.39193 11.7663 3.75014 12.404 4.38776C13.0416 5.02539 13.3998 5.89019 13.3998 6.79193H6.5998C6.5998 5.89019 6.95801 5.02539 7.59563 4.38776C8.23326 3.75014 9.09806 3.39193 9.9998 3.39193ZM5.98313 10.7169C5.81831 10.7169 5.65719 10.6681 5.52015 10.5765C5.38311 10.4849 5.2763 10.3548 5.21323 10.2025C5.15016 10.0502 5.13365 9.88267 5.16581 9.72102C5.19796 9.55937 5.27733 9.41088 5.39387 9.29434C5.51042 9.17779 5.6589 9.09843 5.82055 9.06627C5.9822 9.03412 6.14976 9.05062 6.30203 9.11369C6.4543 9.17677 6.58445 9.28358 6.67602 9.42062C6.76759 9.55766 6.81646 9.71878 6.81646 9.88359C6.81646 10.1046 6.72866 10.3166 6.57238 10.4728C6.4161 10.6291 6.20414 10.7169 5.98313 10.7169ZM14.0165 10.7169C13.8516 10.7169 13.6905 10.6681 13.5535 10.5765C13.4164 10.4849 13.3096 10.3548 13.2466 10.2025C13.1835 10.0502 13.167 9.88267 13.1991 9.72102C13.2313 9.55937 13.3107 9.41088 13.4272 9.29434C13.5438 9.17779 13.6922 9.09843 13.8539 9.06627C14.0155 9.03412 14.1831 9.05062 14.3354 9.11369C14.4876 9.17677 14.6178 9.28358 14.7094 9.42062C14.8009 9.55766 14.8498 9.71878 14.8498 9.88359C14.8498 10.1046 14.762 10.3166 14.6057 10.4728C14.4494 10.6291 14.2375 10.7169 14.0165 10.7169Z" fill="#47BE7D"/>
</svg>
