<svg width="20" height="20" viewBox="0 0 16 16" fill="none" xmlns="http://www.w3.org/2000/svg">
<path d="M5.33111 4.64306L2.02859 8.37919C1.90666 8.51745 1.82086 8.68373 1.77882 8.8632C1.73678 9.04268 1.73982 9.22977 1.78767 9.40779L1.91506 9.8695C1.93386 9.93758 1.97447 9.99762 2.03067 10.0404C2.08687 10.0832 2.15555 10.1064 2.22618 10.1064H2.30804L7.25134 4.38533C6.95352 4.19119 6.5959 4.11043 6.24356 4.15773C5.89121 4.20503 5.56756 4.37725 5.33148 4.64306H5.33111Z" fill="#FFD3BC"/>
<path d="M14.6662 6.66431H13.3464C13.1621 6.66431 13.0127 6.81371 13.0127 6.99801V12.0343C13.0127 12.2186 13.1621 12.368 13.3464 12.368H14.6662C14.8505 12.368 14.9999 12.2186 14.9999 12.0343V6.99801C14.9999 6.81371 14.8505 6.66431 14.6662 6.66431Z" fill="#3E97FF"/>
<path d="M7.25124 4.38566L2.24805 10.0537L2.30831 10.1067L3.93423 11.5399L9.08187 5.71297L10.7102 3.86786L9.02407 2.37915L7.25124 4.38566Z" fill="#FEAA2B"/>
<path d="M10.6111 2.28268C10.5006 2.18477 10.3718 2.10959 10.2322 2.06144C10.0926 2.0133 9.94486 1.99312 9.79745 2.00207C9.65005 2.01101 9.50585 2.04891 9.37309 2.11359C9.24033 2.17826 9.12162 2.26846 9.02372 2.37902L8.15332 3.36417V3.36577L9.83864 4.85362H9.83999L10.7099 3.86785C10.8077 3.75742 10.8828 3.62874 10.9308 3.48922C10.9788 3.3497 10.9988 3.20208 10.9896 3.05481C10.9805 2.90755 10.9423 2.76355 10.8773 2.63107C10.8124 2.49859 10.7219 2.38024 10.6111 2.2828V2.28268Z" fill="#FF5757"/>
<path d="M2.24779 10.0537L2.22619 10.1067L1 13.1636L3.93397 11.54L2.30805 10.1067L2.24779 10.0537Z" fill="#FFBE9C"/>
<path d="M5.86095 9.35771H5.0632C4.84822 9.35774 4.63991 9.4324 4.47384 9.56894C4.30778 9.70548 4.19426 9.89543 4.15267 10.1064C4.13886 10.1656 4.13238 10.2262 4.13341 10.287C4.13285 10.4088 4.15665 10.5296 4.20339 10.6421C4.25014 10.7546 4.31889 10.8566 4.40562 10.9421C4.41532 10.9518 4.42734 10.9614 4.43692 10.9711C4.60748 11.1281 4.83101 11.215 5.06284 11.2144H7.38623C7.62361 11.2144 7.85719 11.274 8.06554 11.3878L8.89899 11.8431C9.32998 12.0777 9.81263 12.2012 10.3033 12.2025C10.794 12.2038 11.2773 12.0827 11.7095 11.8503L11.9023 11.7468C12.1399 11.6187 12.4056 11.5517 12.6755 11.5516H13.0128V7.47394C13.0128 7.47394 11.3916 7.19166 9.08149 5.71313L5.86095 9.35771Z" fill="#FFD3BC"/>
</svg>
