<svg width="13" height="12" viewBox="0 0 13 12" fill="white" xmlns="http://www.w3.org/2000/svg">
<path d="M13 4.1763C12.9171 8.87211 8.53507 10.8672 6.99785 11.4207C6.84015 11.4779 6.67212 11.5046 6.50351 11.4994C6.33491 11.4941 6.16906 11.4571 6.01557 11.3903C4.50387 10.7334 -0.0631233 8.43416 0.000661466 4.22497C-0.00265785 3.40694 0.278529 2.61094 0.800211 1.96157C1.32189 1.31219 2.05463 0.846089 2.88373 0.636204C3.44436 0.492006 4.03053 0.461893 4.60416 0.547824C5.17778 0.633755 5.72604 0.833806 6.2133 1.13498C6.29954 1.18889 6.40041 1.2176 6.50352 1.2176C6.60663 1.2176 6.7075 1.18889 6.79374 1.13498C7.32525 0.808519 7.92792 0.602104 8.55578 0.531478C9.18365 0.460851 9.82014 0.527876 10.4167 0.727444C11.1636 0.98424 11.8107 1.45176 12.2722 2.06782C12.7336 2.68389 12.9875 3.41931 13 4.1763Z" fill="white"/>
</svg>
