<svg width="13" height="12" viewBox="0 0 13 12" fill="none" xmlns="http://www.w3.org/2000/svg">
<path d="M6.54207 11.5C6.30856 11.4972 6.0781 11.4495 5.86479 11.3597C4.47459 10.7593 -0.0762625 8.48681 0.000971234 4.35139C0.000267894 3.50447 0.296616 2.68119 0.843714 2.01017C1.39081 1.33914 2.15784 0.858179 3.02497 0.64242C3.60499 0.496117 4.2109 0.465462 4.80415 0.552405C5.3974 0.639349 5.96498 0.841988 6.47078 1.14742C6.47961 1.15532 6.4913 1.15971 6.50346 1.15971C6.51561 1.15971 6.52731 1.15532 6.53613 1.14742C7.08615 0.813035 7.70958 0.601352 8.35912 0.528436C9.00866 0.455519 9.66726 0.523283 10.2849 0.726587C11.0718 0.991426 11.7539 1.4776 12.2393 2.11966C12.7247 2.76172 12.9902 3.52883 13 4.31772C12.9168 8.94693 8.47886 10.8996 7.1243 11.3934C6.93862 11.4618 6.74137 11.4979 6.54207 11.5ZM4.16565 1.34942C3.85913 1.34893 3.55375 1.38474 3.25667 1.45604C2.57429 1.6231 1.97026 2.00006 1.53993 2.52741C1.1096 3.05475 0.877495 3.70244 0.880247 4.36823C0.814896 7.98742 4.95581 10.0467 6.2272 10.591C6.3207 10.6303 6.42191 10.6506 6.52425 10.6506C6.62659 10.6506 6.7278 10.6303 6.8213 10.591C8.0511 10.1533 12.0554 8.39703 12.1267 4.29528C12.1126 3.684 11.9031 3.09104 11.5256 2.59431C11.1481 2.09759 10.6203 1.72034 10.0117 1.51215C9.52207 1.35256 9.00065 1.29945 8.48629 1.35677C7.97194 1.41409 7.47793 1.58037 7.04112 1.84321C6.88836 1.9376 6.70977 1.98787 6.52722 1.98787C6.34467 1.98787 6.16608 1.9376 6.01332 1.84321C5.45809 1.51008 4.81146 1.33838 4.15377 1.34942H4.16565Z" fill="white"/>
</svg>
