<svg width="14" height="12" viewBox="0 0 14 12" fill="none" xmlns="http://www.w3.org/2000/svg">
<path d="M7.20995 11.7168C6.98067 11.7139 6.7544 11.6643 6.54495 11.571C5.17995 10.9468 0.711619 8.58431 0.787453 4.28514C0.786762 3.40469 1.07774 2.54881 1.61492 1.85121C2.15209 1.15362 2.90522 0.653611 3.75662 0.429309C4.32612 0.277213 4.92105 0.245344 5.50354 0.33573C6.08603 0.426117 6.64332 0.636779 7.13995 0.954309C7.14862 0.962514 7.1601 0.967087 7.17204 0.967087C7.18397 0.967087 7.19545 0.962514 7.20412 0.954309C7.74416 0.60668 8.35629 0.386616 8.99405 0.310811C9.63182 0.235007 10.2785 0.305455 10.885 0.516809V0.516809C11.6575 0.792134 12.3272 1.29756 12.8039 1.96504C13.2805 2.63253 13.5412 3.43001 13.5508 4.25014C13.4691 9.06264 9.11162 11.0926 7.78162 11.606C7.59931 11.6771 7.40563 11.7147 7.20995 11.7168ZM4.87662 1.16431C4.57566 1.16379 4.27582 1.20103 3.98412 1.27514C3.31411 1.44882 2.72103 1.84071 2.29851 2.38893C1.87598 2.93716 1.64808 3.61049 1.65079 4.30264C1.58662 8.06514 5.65245 10.206 6.90079 10.7718C6.9926 10.8127 7.09196 10.8338 7.19245 10.8338C7.29294 10.8338 7.39231 10.8127 7.48412 10.7718C8.69162 10.3168 12.6233 8.49098 12.6933 4.22681C12.6795 3.59132 12.4737 2.97488 12.1031 2.45849C11.7325 1.9421 11.2143 1.54991 10.6166 1.33348V1.33348C10.1359 1.16757 9.62395 1.11235 9.11892 1.17195C8.61389 1.23154 8.12884 1.4044 7.69995 1.67764C7.54996 1.77577 7.37461 1.82803 7.19537 1.82803C7.01613 1.82803 6.84078 1.77577 6.69079 1.67764C6.14562 1.33133 5.51071 1.15283 4.86495 1.16431H4.87662Z" fill="black"/>
</svg>
