<svg width="16" height="16" viewBox="0 0 16 16" fill="none" xmlns="http://www.w3.org/2000/svg">
<rect width="16" height="16" rx="4" fill="#181C32"/>
<g clip-path="url(#clip0_72_309)">
<path d="M8.01099 8.00739C8.01099 7.13713 8.71648 6.43164 9.58674 6.43164C10.457 6.43164 11.1625 7.13715 11.1625 8.00739C11.1625 8.87767 10.457 9.58314 9.58674 9.58314C8.71646 9.58314 8.01099 8.87765 8.01099 8.00739Z" fill="#00BCFF"/>
<path d="M4.85962 11.1592C4.85962 10.289 5.56511 9.58348 6.43537 9.58348L7.27511 9.14014L8.01112 9.58348V11.1592C8.01112 12.0295 7.30563 12.735 6.43537 12.735C5.56511 12.735 4.85962 12.0295 4.85962 11.1592Z" fill="#00CF7F"/>
<path d="M8.01101 3.28027L7.15356 4.76992L8.01101 6.43178H9.56466C10.4349 6.43178 11.1404 5.72629 11.1404 4.85602C11.1404 3.98576 10.4349 3.28027 9.56466 3.28027H8.01101Z" fill="#FF7361"/>
<path d="M4.8374 4.85602C4.8374 5.72629 5.54289 6.43178 6.41315 6.43178L7.24905 6.75463L8.01101 6.43178V3.28027H6.41313C5.54289 3.28027 4.8374 3.98576 4.8374 4.85602Z" fill="#FF4D12"/>
<path d="M4.85962 8.00741C4.85962 8.87769 5.56511 9.58316 6.43537 9.58316H8.01112V6.43164H6.43537C5.56511 6.43164 4.85962 7.13715 4.85962 8.00741Z" fill="#B659FF"/>
</g>
<defs>
<clipPath id="clip0_72_309">
<rect width="9.45455" height="9.45455" fill="white" transform="translate(3.27271 3.28027)"/>
</clipPath>
</defs>
</svg>
