<svg width="6" height="8" viewBox="0 0 6 8" fill="none" xmlns="http://www.w3.org/2000/svg">
<path d="M5.35884 2.87288L1.5378 0.636308C1.38197 0.546772 1.20545 0.499774 1.02585 0.500001C0.846253 0.500228 0.669852 0.547673 0.514245 0.637602C0.358639 0.727532 0.229267 0.856803 0.139034 1.01252C0.0488018 1.16824 0.000862968 1.34496 0 1.52505V6.47495C0.000862968 6.65504 0.0488018 6.83176 0.139034 6.98748C0.229267 7.1432 0.358639 7.27247 0.514245 7.3624C0.669852 7.45233 0.846253 7.49977 1.02585 7.5C1.20545 7.50023 1.38197 7.45323 1.5378 7.36369L5.35884 5.15066C5.55448 5.03228 5.71631 4.86522 5.82864 4.66569C5.94097 4.46615 6 4.24091 6 4.01177C6 3.78264 5.94097 3.55739 5.82864 3.35785C5.71631 3.15832 5.55448 2.99127 5.35884 2.87288Z" fill="white"/>
</svg>
