<svg width="6" height="7" viewBox="0 0 6 7" fill="none" xmlns="http://www.w3.org/2000/svg">
<path d="M5.35884 2.37288L1.5378 0.136308C1.38197 0.0467722 1.20545 -0.000226246 1.02585 8.18875e-07C0.846253 0.000227883 0.669852 0.0476726 0.514245 0.137602C0.358639 0.227532 0.229267 0.356803 0.139034 0.51252C0.0488018 0.668238 0.000862968 0.844958 0 1.02505V5.97495C0.000862968 6.15504 0.0488018 6.33176 0.139034 6.48748C0.229267 6.6432 0.358639 6.77247 0.514245 6.8624C0.669852 6.95233 0.846253 6.99977 1.02585 7C1.20545 7.00023 1.38197 6.95323 1.5378 6.86369L5.35884 4.65066C5.55448 4.53228 5.71631 4.36522 5.82864 4.16569C5.94097 3.96615 6 3.74091 6 3.51177C6 3.28264 5.94097 3.05739 5.82864 2.85785C5.71631 2.65832 5.55448 2.49127 5.35884 2.37288V2.37288Z" fill="#7E8299"/>
</svg>
