<svg width="22" height="22" viewBox="0 0 22 22" fill="none" xmlns="http://www.w3.org/2000/svg">
<path opacity="0.3" d="M10.9998 21.8337C16.9829 21.8337 21.8332 16.9834 21.8332 11.0003C21.8332 5.01724 16.9829 0.166992 10.9998 0.166992C5.01675 0.166992 0.166504 5.01724 0.166504 11.0003C0.166504 16.9834 5.01675 21.8337 10.9998 21.8337Z" fill="#009EF6"/>
<path d="M10.9997 14.2506C10.7842 14.2506 10.5776 14.165 10.4252 14.0127C10.2728 13.8603 10.1872 13.6536 10.1872 13.4381V12.5498C10.1771 12.0068 10.3201 11.4719 10.5998 11.0063C10.8795 10.5407 11.2847 10.1633 11.7689 9.91731C12.0527 9.77997 12.2946 9.56914 12.4694 9.30672C12.6442 9.04431 12.7455 8.73988 12.7629 8.42506C12.7802 8.11023 12.713 7.7965 12.5681 7.51645C12.4233 7.23641 12.206 7.00025 11.9391 6.83253C11.6721 6.66481 11.365 6.57163 11.0499 6.56267C10.7347 6.55372 10.4229 6.62932 10.1468 6.78162C9.8707 6.93391 9.64044 7.15735 9.4799 7.42873C9.31937 7.7001 9.23442 8.00951 9.23389 8.32481C9.23389 8.54029 9.14828 8.74696 8.99591 8.89933C8.84354 9.0517 8.63688 9.13731 8.42139 9.13731C8.2059 9.13731 7.99924 9.0517 7.84686 8.89933C7.69449 8.74696 7.60889 8.54029 7.60889 8.32481C7.6107 7.82869 7.721 7.33897 7.93208 6.88999C8.14315 6.44101 8.44987 6.04363 8.83075 5.72572C9.21163 5.40781 9.65743 5.17706 10.1369 5.04964C10.6164 4.92223 11.1179 4.90124 11.6064 4.98814C12.2883 5.11643 12.915 5.44957 13.4027 5.94313C13.8905 6.43669 14.2162 7.06722 14.3364 7.75064C14.4731 8.48103 14.3644 9.23611 14.0274 9.89836C13.6904 10.5606 13.144 11.0929 12.4731 11.4123C12.2677 11.5241 12.0973 11.6906 11.9807 11.8933C11.864 12.0959 11.8057 12.3269 11.8122 12.5606V13.449C11.8094 13.6626 11.7225 13.8665 11.5704 14.0165C11.4184 14.1665 11.2133 14.2507 10.9997 14.2506Z" fill="#009EF6"/>
<path d="M10.9995 17.0566C11.4482 17.0566 11.812 16.6929 11.812 16.2441C11.812 15.7954 11.4482 15.4316 10.9995 15.4316C10.5508 15.4316 10.187 15.7954 10.187 16.2441C10.187 16.6929 10.5508 17.0566 10.9995 17.0566Z" fill="#009EF6"/>
</svg>
