<svg width="40" height="40" viewBox="0 0 40 40" fill="none" xmlns="http://www.w3.org/2000/svg">
<path d="M36.875 0H25.6251L9.375 23.7499H20.6249L36.875 0Z" fill="#D9214E"/>
<path d="M3.125 0H14.3749L30.6249 23.7499H19.375L3.125 0Z" fill="#F1416C"/>
<path d="M20.625 12.5C28.25 12.5 34.375 18.625 34.375 26.25C34.375 33.875 28.25 40 20.625 40C13 40 6.875 33.875 6.875 26.25C6.875 18.625 13 12.5 20.625 12.5Z" fill="#C2C5D1"/>
<path d="M20.625 16.25C15.1251 16.25 10.625 20.7499 10.625 26.25C10.625 31.7501 15.1249 36.2501 20.625 36.2501C26.1251 36.2501 30.6251 31.7501 30.6251 26.25C30.6251 20.7499 26.125 16.25 20.625 16.25ZM20.625 33.75C16.5 33.75 13.1251 30.3749 13.1251 26.25C13.1251 22.1251 16.5001 18.7501 20.625 18.7501C24.7499 18.7501 28.125 22.1251 28.125 26.25C28.125 30.3749 24.7499 33.75 20.625 33.75Z" fill="#ABAFBF"/>
<path d="M17.6131 30V28.5085L20.4618 26.152C20.6507 25.9954 20.8123 25.8487 20.9465 25.712C21.0832 25.5728 21.1876 25.4299 21.2597 25.2832C21.3343 25.1365 21.3716 24.9737 21.3716 24.7947C21.3716 24.5984 21.3293 24.4306 21.2448 24.2914C21.1628 24.1522 21.0484 24.0453 20.9018 23.9707C20.7551 23.8936 20.5861 23.8551 20.3947 23.8551C20.2033 23.8551 20.0342 23.8936 19.8876 23.9707C19.7434 24.0478 19.6315 24.1609 19.552 24.31C19.4724 24.4592 19.4327 24.6406 19.4327 24.8544H17.4639C17.4639 24.3175 17.5845 23.8551 17.8256 23.4673C18.0667 23.0795 18.4073 22.7812 18.8473 22.5724C19.2872 22.3636 19.803 22.2592 20.3947 22.2592C21.0062 22.2592 21.5356 22.3574 21.9831 22.5538C22.433 22.7477 22.7798 23.0211 23.0234 23.3741C23.2695 23.7271 23.3925 24.141 23.3925 24.6158C23.3925 24.9091 23.3316 25.2012 23.2098 25.492C23.088 25.7804 22.8693 26.0998 22.5536 26.4503C22.2379 26.8008 21.7892 27.2184 21.2075 27.7031L20.4916 28.2997V28.3445H23.4746V30H17.6131Z" fill="white"/>
</svg>
