<svg width="199" height="187" viewBox="0 0 199 187" fill="none" xmlns="http://www.w3.org/2000/svg">
<path d="M30.9677 95.5192C22.4548 91.7016 16.9673 82.7232 15.7302 73.4712C14.493 64.2193 17.0245 54.7999 21.1197 46.4176C27.1012 34.1687 38.0966 22.81 51.7418 22.4343C57.5518 22.2751 63.2925 24.1369 69.1025 23.8593C78.3708 23.4142 86.4306 17.6777 93.8901 12.1657C101.35 6.65371 109.405 0.913077 118.678 0.468035C127.95 0.0229935 138.153 7.53154 136.802 16.71C136.357 19.7396 134.74 22.7528 135.532 25.717C136.977 31.1065 144.723 31.4617 149.778 29.0977C154.832 26.7337 159.695 22.7569 165.236 23.4306C170.478 24.0716 174.398 28.9425 175.627 34.0748C176.856 39.2071 175.974 44.5884 175.088 49.7901L169.906 80.1101C168.682 87.243 167.22 94.8741 162.063 99.9573C156.486 105.453 148.038 106.555 140.228 107.127C106 109.634 71.5905 107.567 37.9088 100.982" fill="#F4F6F9"/>
<path d="M190.089 101.457C190.269 102.018 190.353 102.606 190.338 103.196C190.302 104.162 189.947 105.09 189.329 105.833C189.342 106.538 189.121 107.228 188.701 107.793C188.424 108.129 188.069 108.392 187.666 108.558C187.264 108.724 186.827 108.788 186.394 108.745C186.757 110.01 186.635 111.464 185.789 112.468C184.944 113.473 182.956 113.53 181.927 112.632L183.707 109.165C182.739 108.293 181.912 107.275 181.257 106.148C180.968 105.755 180.846 105.263 180.918 104.78C181.102 104.139 181.915 103.857 182.552 104.029C182.625 104.049 182.697 104.074 182.768 104.102C182.527 103.894 182.278 103.694 182.029 103.502C181.253 102.898 180.461 102.22 180.155 101.285C179.849 100.35 180.269 99.1088 181.229 98.8965C181.78 98.8304 182.337 98.945 182.817 99.2231C183.176 99.3905 183.527 99.5661 183.879 99.7498C183.425 98.7577 182.976 97.7696 182.523 96.7815C182.408 96.6015 182.334 96.399 182.304 96.1877C182.275 95.9764 182.291 95.7612 182.352 95.5566C182.459 95.3752 182.62 95.2317 182.812 95.1461C183.005 95.0604 183.219 95.037 183.425 95.0789C183.835 95.1745 184.221 95.3553 184.556 95.6097C185.953 96.5243 187.361 97.4511 188.48 98.6883C188.892 99.1399 189.251 99.6371 189.55 100.17C189.608 98.9438 189.291 97.7287 188.639 96.6876C187.869 95.5062 186.987 94.4015 186.006 93.3886C185.414 92.719 184.83 91.6982 185.406 91.0123C185.863 90.4611 186.737 90.5836 187.398 90.8613C188.378 91.2683 189.249 91.8982 189.943 92.7008C190.637 93.5035 191.135 94.4569 191.396 95.4853C191.657 96.5137 191.675 97.5889 191.448 98.6254C191.221 99.6619 190.756 100.631 190.089 101.457ZM73.8798 150.836C73.4603 150.612 73.0602 150.354 72.6835 150.064C72.8668 150.668 72.9455 151.299 72.9162 151.93C72.8185 153.145 72.5618 154.342 72.1527 155.49C71.7614 156.94 71.2138 158.344 70.5195 159.675C69.8159 161.016 68.6932 162.09 67.3226 162.733C66.163 163.223 64.8728 163.272 63.6193 163.281C60.1013 163.308 56.5859 163.078 53.1016 162.591L54.0203 161.002C51.9502 163.897 49.1861 166.31 46.0749 167.515C40.1791 169.768 35.8675 166.179 31.1762 162.448C27.7873 159.749 24.5169 156.732 20.487 155.147C14.9301 152.955 8.01767 153.408 3.95105 149.051C-0.838258 143.923 1.45228 135.663 4.25727 129.233C12.4779 110.401 22.7866 92.5515 34.9897 76.0197L28.8897 49.701C24.1412 49.2111 14.4973 48.1332 14.4973 48.1332C18.9232 40.6491 23.684 32.0463 28.657 23.5619C32.4051 17.164 40.571 12.4277 47.6672 16.6209C48.1957 16.933 48.6958 17.291 49.1616 17.6907C51.5624 19.7566 53.0077 22.7454 53.8243 25.8035C54.6082 28.7228 54.8777 31.7442 55.2656 34.7411C56.522 34.2766 57.8909 34.2096 59.1867 34.5491C60.4824 34.8887 61.6425 35.6184 62.5097 36.6393C63.3769 37.6602 63.9093 38.9231 64.0348 40.2567C64.1602 41.5904 63.8726 42.9304 63.211 44.0951C62.3866 45.5256 61.0569 46.5961 59.4833 47.0961C62.8966 52.5877 66.1181 57.4341 69.5845 62.4602L69.7152 62.2071C81.7966 64.1424 93.7801 68.2703 104.134 74.7908C111.239 104.527 99.7902 129.519 73.8798 150.836Z" fill="white"/>
<path d="M190.939 77.1336L129.608 44.9208C125.424 42.723 120.25 44.3335 118.053 48.5178L70.3969 139.25C68.1991 143.434 69.8096 148.608 73.9939 150.806L135.324 183.019C139.509 185.216 144.682 183.606 146.88 179.422L194.536 88.6894C196.734 84.5051 195.123 79.3314 190.939 77.1336Z" fill="white"/>
<path d="M108.43 90.9911C119.028 90.9911 127.619 82.3995 127.619 71.8012C127.619 61.2029 119.028 52.6113 108.43 52.6113C97.8313 52.6113 89.2397 61.2029 89.2397 71.8012C89.2397 82.3995 97.8313 90.9911 108.43 90.9911Z" fill="#FEAABC"/>
<path d="M146.487 132.43L153.901 120.487C154.685 119.226 155.49 117.915 155.718 116.445C155.947 114.975 155.457 113.285 154.167 112.542C152.803 111.758 151.043 112.26 149.716 113.11C148.389 113.959 147.267 115.126 145.85 115.804C144.433 116.482 142.498 116.523 141.501 115.302C140.42 113.979 140.685 111.542 139.052 110.97C138.145 110.652 137.186 111.178 136.255 111.419C135.324 111.66 134.005 111.317 134.001 110.354C130.796 113.987 129.012 118.368 126.382 122.431" fill="#9ED5F0"/>
<path d="M106.176 72.157C106.519 66.0408 106.863 59.9259 107.209 53.8123C107.254 53.0284 108.479 53.0243 108.434 53.8123C108.102 59.6918 107.77 65.5726 107.438 71.4547H107.462L107.503 71.4833C113.838 70.3754 120.227 69.6067 126.644 69.1805C127.432 69.1315 127.428 70.3564 126.644 70.4054C120.691 70.8011 114.762 71.496 108.879 72.4877L122.626 82.5073C123.259 82.9687 122.647 84.0302 122.01 83.5648L107.054 72.6633C106.965 72.7164 106.864 72.7449 106.761 72.7458C106.657 72.7467 106.556 72.7199 106.466 72.6683C106.376 72.6166 106.302 72.542 106.251 72.4521C106.2 72.3622 106.174 72.2603 106.176 72.157ZM182.854 108.303L145.817 178.849C144.91 180.568 143.358 181.858 141.501 182.436C139.645 183.014 137.635 182.832 135.912 181.931L74.7821 149.827C74.1288 149.909 73.4633 149.954 72.7937 149.978C72.796 149.996 72.796 150.014 72.7937 150.031C73.1796 150.323 73.5894 150.583 74.0186 150.807L135.349 183.013C136.343 183.537 137.431 183.859 138.551 183.962C139.67 184.064 140.799 183.945 141.872 183.611C142.945 183.277 143.942 182.734 144.805 182.014C145.669 181.295 146.382 180.412 146.903 179.416L183.368 109.986L183.707 109.169C183.408 108.901 183.124 108.617 182.854 108.32V108.303ZM190.95 77.1096L129.62 44.9156C128.626 44.392 127.537 44.0698 126.418 43.9673C125.299 43.8648 124.17 43.984 123.097 44.3181C122.024 44.6522 121.027 45.1946 120.164 45.9144C119.3 46.6341 118.587 47.517 118.065 48.5126L115.252 53.8654C115.636 54.0124 116.016 54.1716 116.387 54.3431L119.147 49.0843C119.771 47.8997 120.705 46.9079 121.851 46.2157C122.996 45.5235 124.309 45.1572 125.648 45.1564C126.835 45.1552 128.004 45.4454 129.053 46.0016L190.383 78.208C192.102 79.1154 193.392 80.6673 193.97 82.5238C194.548 84.3804 194.366 86.3902 193.465 88.1132L190.579 93.6088C190.85 94.0422 191.07 94.5052 191.236 94.9889L194.551 88.6807C195.602 86.6701 195.813 84.3252 195.138 82.1595C194.463 79.9938 192.957 78.1839 190.95 77.126V77.1096ZM82.948 129.167C90.2973 133.705 97.7542 138.05 105.319 142.204C107.455 143.377 109.6 144.534 111.753 145.675C112.451 146.042 113.072 144.985 112.374 144.617C104.752 140.575 97.2329 136.34 89.8155 131.911C87.7196 130.656 85.636 129.389 83.5645 128.11C82.8949 127.685 82.2988 128.755 82.948 129.167ZM86.2144 124.598L95.2744 129.522C95.9645 129.898 96.5851 128.841 95.891 128.465L86.8309 123.541C86.1245 123.161 85.508 124.219 86.2021 124.598H86.2144ZM91.0037 118.956C96.4286 121.866 101.972 124.541 107.634 126.983C108.352 127.289 108.977 126.236 108.254 125.921C102.587 123.488 97.0383 120.809 91.6079 117.886C90.9138 117.523 90.2932 118.58 90.9914 118.956H91.0037ZM94.1394 114.362L97.7895 116.608C97.9302 116.689 98.097 116.712 98.2542 116.672C98.4115 116.631 98.5466 116.531 98.6306 116.392C98.7083 116.25 98.7287 116.084 98.6877 115.927C98.6467 115.771 98.5474 115.636 98.4101 115.551L94.76 113.305C94.6189 113.224 94.4517 113.202 94.2944 113.243C94.1371 113.285 94.0023 113.386 93.9189 113.525C93.8415 113.667 93.8212 113.832 93.8622 113.988C93.9032 114.144 94.0024 114.278 94.1394 114.362ZM123.537 119.556C122.847 119.176 122.226 120.234 122.92 120.613L126.272 122.447C125.145 124.388 124.032 126.335 122.932 128.289C122.549 128.979 123.606 129.6 123.99 128.91C125.092 126.942 126.211 124.984 127.346 123.035L146.989 133.81L152.705 136.933L147.806 137.252C147.022 137.301 147.018 138.525 147.806 138.476L156.813 137.893C157.286 137.86 157.695 137.207 157.246 136.847C155.461 135.409 153.993 133.617 152.934 131.584C152.566 130.886 151.509 131.507 151.876 132.205C152.764 133.895 153.921 135.428 155.302 136.745L154.665 136.786C154.645 136.712 154.609 136.643 154.56 136.583C154.512 136.523 154.452 136.474 154.383 136.439L130.294 123.263L127.946 121.969C131.033 116.699 134.233 111.498 137.545 106.364C138.906 104.274 140.277 102.197 141.657 100.133C141.704 100.066 141.735 99.9897 141.749 99.909C141.762 99.8282 141.757 99.7454 141.734 99.6669C141.711 99.5883 141.67 99.516 141.615 99.4554C141.56 99.3948 141.492 99.3474 141.416 99.3168L142.641 98.1164C141.903 100.86 141.161 103.605 140.416 106.352C140.378 106.506 140.401 106.67 140.482 106.807C140.563 106.945 140.693 107.045 140.847 107.088C141.001 107.13 141.165 107.111 141.304 107.035C141.444 106.958 141.549 106.831 141.596 106.678C142.535 103.211 143.472 99.7442 144.409 96.2791C144.442 96.1492 144.431 96.0122 144.38 95.8887C144.328 95.7652 144.237 95.6619 144.121 95.5946C144.005 95.5272 143.871 95.4994 143.738 95.5153C143.605 95.5313 143.48 95.5901 143.384 95.683L135.581 103.294C135.014 103.845 135.879 104.71 136.447 104.159L139.501 101.187C135.1 107.796 130.889 114.53 126.868 121.389L123.537 119.556ZM188.57 81.1763L160.806 67.5065L133.14 53.8817C130.915 52.7875 128.412 51.2931 125.831 51.8402C123.81 52.2485 122.001 54.241 122.544 56.3764C122.736 57.1399 123.92 56.8174 123.724 56.0538C123.239 54.1389 125.48 52.9059 127.089 52.9631C128.193 53.0537 129.269 53.3573 130.257 53.8572C131.327 54.3431 132.376 54.8861 133.434 55.4047L146.675 61.9374L173.063 74.9334L187.949 82.2623C188.631 82.5849 189.272 81.5478 188.545 81.1803L188.57 81.1763ZM169.878 87.6722C169.517 87.2526 169.059 86.9273 168.544 86.7246C168.029 86.5218 167.472 86.4477 166.922 86.5086C166.405 86.591 165.924 86.8272 165.542 87.1864C165.199 87.4885 164.823 88.0029 164.346 87.6436C163.529 87.019 163.627 85.7573 163.492 84.855C163.345 83.8833 162.962 82.8625 161.986 82.4746C161.01 82.0867 160.014 82.5767 159.128 82.985C158.773 83.1975 158.369 83.3116 157.956 83.3157C157.515 83.2463 157.356 82.838 157.299 82.4461C157.148 81.4335 157.36 80.3637 156.784 79.4492C156.444 78.965 155.983 78.5781 155.448 78.3267C154.912 78.0753 154.32 77.9683 153.73 78.0161C152.223 78.1018 150.954 79 149.79 79.8779C149.165 80.3433 149.79 81.409 150.407 80.9354C151.346 80.229 152.391 79.3961 153.595 79.2491C154.469 79.147 155.567 79.4859 155.882 80.3882C156.196 81.2906 155.91 82.2868 156.221 83.1932C156.366 83.6354 156.665 84.011 157.064 84.2521C157.462 84.4932 157.933 84.5839 158.393 84.5079C159.311 84.3773 160.055 83.7403 160.953 83.577C161.949 83.3933 162.214 84.3936 162.325 85.1816C162.464 86.1697 162.464 87.1251 163.047 87.9866C163.631 88.8481 164.546 89.2891 165.497 88.8032C166.052 88.5215 166.387 87.8805 167.004 87.7294C167.266 87.6821 167.534 87.6881 167.794 87.747C168.054 87.8059 168.299 87.9166 168.514 88.0724C169.65 88.8155 169.939 90.3629 170.209 91.5919C170.38 92.3635 171.56 92.0369 171.389 91.2652C171.087 90.0158 170.76 88.693 169.878 87.6722ZM160.079 93.9314C160.171 94.2249 160.356 94.4808 160.605 94.6611C160.855 94.8413 161.156 94.9362 161.463 94.9317C162.214 94.9317 162.774 94.3724 163.439 94.1151C164.578 93.6823 165.836 94.205 166.885 94.65C168.278 95.242 169.658 95.9198 171.197 95.9443C171.359 95.9443 171.515 95.8798 171.63 95.7649C171.745 95.6501 171.809 95.4943 171.809 95.3319C171.809 95.1694 171.745 95.0136 171.63 94.8988C171.515 94.7839 171.359 94.7194 171.197 94.7194C168.474 94.6786 166.101 92.0737 163.301 92.8739C162.98 92.9744 162.671 93.1114 162.382 93.2822C162.178 93.3965 161.614 93.8375 161.353 93.6905C160.994 93.4945 161.508 92.4411 161.594 92.1757C162.031 90.8324 161.692 89.3177 160.336 88.6276C159.983 88.4666 159.6 88.3829 159.212 88.3821C158.823 88.3813 158.44 88.4635 158.086 88.6232C157.732 88.7829 157.416 89.0164 157.16 89.3079C156.904 89.5995 156.713 89.9425 156.6 90.3139C156.368 91.0652 157.548 91.3877 157.784 90.6365C157.867 90.3545 158.034 90.1048 158.264 89.9214C158.493 89.738 158.774 89.6298 159.067 89.6115C159.36 89.5932 159.652 89.6658 159.902 89.8192C160.153 89.9726 160.35 90.1996 160.467 90.4691C160.969 91.6245 159.736 92.7596 160.079 93.9477V93.9314ZM97.5364 87.5987L74.9495 130.649C75.419 130.621 75.8886 130.604 76.3581 130.596L98.5857 88.2683C98.2223 88.056 97.8753 87.8315 97.5364 87.5987Z" fill="#3F4254"/>
<path d="M190.399 92.3295C189.399 91.1454 187.541 89.7287 185.908 90.0635C185.5 90.1375 185.135 90.3639 184.888 90.6967C184.641 91.0296 184.53 91.444 184.577 91.8559C184.671 92.8113 185.336 93.5544 185.945 94.2403C186.896 95.3019 187.986 96.5227 188.558 97.8905C187.366 96.7377 186.036 95.7378 184.597 94.914C183.87 94.473 182.939 94.2281 182.209 94.7956C181.359 95.4489 181.706 96.4574 182.074 97.2699C182.258 97.6782 182.445 98.0865 182.629 98.4948C182.297 98.3346 181.933 98.2552 181.564 98.263C181.196 98.2708 180.835 98.3656 180.51 98.5397C180.159 98.7823 179.877 99.111 179.689 99.4942C179.502 99.8774 179.416 100.302 179.44 100.728C179.485 102.039 180.302 102.847 181.216 103.586C181.011 103.681 180.828 103.816 180.677 103.984C180.526 104.151 180.411 104.348 180.339 104.562C180.028 105.534 180.718 106.514 181.249 107.273C181.838 108.122 182.523 108.9 183.291 109.592C183.87 110.119 184.74 109.257 184.156 108.727C183.156 107.851 182.319 106.806 181.682 105.64C181.445 105.191 181.404 104.713 181.992 104.603C182.159 104.574 182.331 104.59 182.49 104.648C182.845 104.794 183.163 105.017 183.421 105.301C183.683 105.562 183.96 105.864 184.238 106.187C184.566 106.572 184.865 106.982 185.132 107.412C185.503 107.985 185.778 108.613 185.949 109.274C186.07 109.727 186.089 110.201 186.004 110.662C185.92 111.123 185.733 111.56 185.459 111.94C184.858 112.757 183.47 113.206 182.601 112.499C181.996 112.001 181.127 112.863 181.735 113.365C182.322 113.82 183.046 114.061 183.788 114.049C184.53 114.037 185.246 113.773 185.818 113.3C186.998 112.365 187.357 110.768 187.157 109.323C187.916 109.216 188.611 108.841 189.117 108.265C189.629 107.637 189.916 106.855 189.934 106.044C190.414 105.424 190.738 104.697 190.877 103.925C191.008 103.139 190.968 102.334 190.758 101.565C191.734 100.205 192.229 98.5584 192.164 96.8857C192.099 95.2129 191.478 93.6097 190.399 92.3295ZM187.231 108.086C187.109 108.121 186.985 108.144 186.859 108.155C186.267 106.73 185.371 105.451 184.234 104.407C183.882 104.052 183.466 103.767 183.009 103.566C182.338 103.076 181.72 102.516 181.167 101.896C180.947 101.661 180.793 101.371 180.721 101.057C180.649 100.743 180.662 100.415 180.759 100.108C181.074 99.2909 181.841 99.4747 182.498 99.7727C182.797 99.9034 183.095 100.046 183.397 100.181C184.012 100.483 184.612 100.815 185.193 101.177C185.835 101.577 186.441 102.03 187.006 102.533C187.88 103.321 188.639 104.407 188.721 105.595C188.743 105.915 188.714 106.236 188.635 106.546C188.559 106.853 188.42 107.141 188.227 107.392C187.979 107.725 187.629 107.968 187.231 108.086ZM188.864 102.778C187.729 101.275 186.006 100.193 184.336 99.3236C184.254 99.1521 184.177 98.9806 184.099 98.8051C183.727 97.9885 183.282 97.1719 182.984 96.3553C182.65 95.4489 183.568 95.7551 184.046 96.0532C185.749 97.1188 187.798 98.4825 188.917 100.295C189.12 100.625 189.289 100.974 189.423 101.336L189.403 101.361H189.435C189.572 101.739 189.662 102.133 189.705 102.533C189.726 102.708 189.737 102.883 189.738 103.06C189.737 103.407 189.689 103.754 189.595 104.088C189.415 103.607 189.169 103.154 188.864 102.741V102.778ZM190.146 100.05C190.157 98.5906 189.713 97.1636 188.876 95.9674C188.36 95.2187 187.792 94.5065 187.178 93.8361C186.696 93.289 185.953 92.6561 185.81 91.8967C185.663 91.0801 186.72 91.2965 187.178 91.4884C187.867 91.7762 188.496 92.1918 189.031 92.7133C190.123 93.7356 190.81 95.1169 190.967 96.6044C191.076 97.8538 190.815 99.1078 190.215 100.21C190.183 100.099 190.158 100.059 190.134 100.014L190.146 100.05ZM57.6949 81.4852C57.6015 82.1397 57.7131 82.807 58.0143 83.3955C58.3156 83.9841 58.7916 84.4649 59.3771 84.772C59.9173 85.0812 60.5442 85.204 61.1612 85.1214C61.7781 85.0387 62.3507 84.7552 62.7904 84.3147C63.187 83.9031 63.4731 83.3979 63.6223 82.8462C63.7715 82.2944 63.7789 81.7139 63.6438 81.1585C63.4808 80.605 63.1542 80.1137 62.7067 79.7493C62.2592 79.3849 61.7119 79.1645 61.1368 79.1171C60.5126 79.0367 59.8786 79.1437 59.3152 79.4242C58.7518 79.7048 58.2845 80.1465 57.9725 80.6931C57.8981 80.8409 57.8806 81.0109 57.9235 81.1708C57.8113 81.2299 57.7253 81.329 57.6826 81.4484L57.6949 81.4852ZM59.03 81.2974C59.079 81.2076 59.1321 81.1218 59.1852 81.0361V81.0156C59.2178 80.9789 59.2505 80.9381 59.2872 80.9013C59.3464 80.839 59.4105 80.7816 59.4791 80.7298L59.5445 80.6849L59.7119 80.5788L59.8466 80.5094L59.9242 80.4808C60.0057 80.4493 60.0889 80.422 60.1732 80.3991C60.259 80.3746 60.3447 80.3583 60.4305 80.3419H60.508C60.576 80.3378 60.6442 80.3378 60.7122 80.3419H61.0143H61.0674L61.2144 80.3705C61.2962 80.3861 61.3768 80.408 61.4553 80.4359L61.5492 80.4685L61.6758 80.5298C61.7628 80.577 61.8473 80.6288 61.9289 80.6849H61.9493C61.982 80.7217 62.0228 80.7543 62.0596 80.7911L62.1616 80.9013V80.9217C62.2256 81.0206 62.2843 81.1228 62.3372 81.228V81.2525C62.3546 81.2993 62.3696 81.347 62.3821 81.3954C62.4055 81.4787 62.4246 81.5632 62.4393 81.6485C62.4407 81.6743 62.4407 81.7002 62.4393 81.7261C62.4393 81.7751 62.4393 81.8281 62.4393 81.8771C62.4386 81.9822 62.4318 82.0872 62.4189 82.1915C62.4189 82.216 62.3944 82.3467 62.3862 82.3712C62.3657 82.4714 62.3371 82.5697 62.3005 82.6652C62.2921 82.6973 62.2811 82.7287 62.2678 82.7591L62.227 82.8489C62.1735 82.9559 62.1135 83.0595 62.0473 83.1592L61.9861 83.2449L61.9289 83.3184C61.8623 83.3932 61.7914 83.4641 61.7166 83.5307L61.639 83.592L61.5615 83.6451L61.4308 83.7226L61.3083 83.7798C61.2232 83.8131 61.1359 83.8404 61.047 83.8615L60.9368 83.8819H60.8061C60.7218 83.8881 60.6372 83.8881 60.553 83.8819H60.4509C60.3749 83.8658 60.2999 83.8454 60.2263 83.8206L60.0875 83.7757C60.0398 83.7488 59.9907 83.7242 59.9405 83.7022C59.8256 83.642 59.7151 83.5738 59.6098 83.4981L59.5281 83.4327C59.471 83.3797 59.4097 83.3266 59.3567 83.2694C59.3036 83.2123 59.275 83.1837 59.2383 83.1388L59.1852 83.0775C59.176 83.0601 59.1651 83.0437 59.1525 83.0285C59.0749 82.9142 59.0096 82.7958 58.9443 82.6774C58.9361 82.666 58.9292 82.6537 58.9239 82.6407C58.9239 82.6407 58.9239 82.6407 58.9239 82.608C58.9239 82.5753 58.8749 82.461 58.8545 82.3875C58.834 82.314 58.8259 82.2732 58.8136 82.2201V82.1834C58.8114 82.1535 58.8114 82.1234 58.8136 82.0935C58.8136 82.0364 58.8136 81.9751 58.8136 81.918C58.8136 81.8608 58.8422 81.6648 58.8136 81.7873C58.8282 81.6793 58.8199 81.5694 58.7891 81.4648C58.8879 81.4239 58.971 81.3523 59.0259 81.2606L59.03 81.2974ZM87.1983 84.4045C86.8513 86.2296 85.0466 87.3075 83.3032 87.2381C83.4397 87.6606 83.4911 88.1061 83.4542 88.5487C83.2909 90.6514 81.376 92.5255 79.2161 91.5537C78.3653 91.1521 77.7046 90.4343 77.3747 89.5531C77.135 89.7444 76.8732 89.9062 76.5949 90.0349C74.1859 91.1332 71.4953 89.2469 71.3973 86.6624C71.3034 84.1677 74.0512 82.3385 76.3499 83.102C77.0971 83.347 76.7582 84.5311 76.0233 84.282C75.5307 84.1267 75.0038 84.1173 74.506 84.2549C74.0083 84.3926 73.561 84.6714 73.2183 85.0578C72.88 85.4396 72.6758 85.9214 72.6367 86.43C72.5977 86.9386 72.7259 87.446 73.0019 87.875C73.2595 88.3483 73.6676 88.7222 74.1616 88.9374C74.6556 89.1526 75.2073 89.1968 75.7293 89.0631C76.285 88.8935 76.7725 88.5518 77.1216 88.0873C77.1377 87.3974 77.3883 86.7336 77.832 86.2051C77.9184 86.1215 78.0273 86.0649 78.1454 86.0424C78.2635 86.0199 78.3856 86.0325 78.4967 86.0784C78.6077 86.1244 78.7029 86.2019 78.7706 86.3013C78.8382 86.4007 78.8753 86.5177 78.8773 86.6379C78.8551 87.2795 78.6696 87.9049 78.3383 88.4548C78.4894 89.6797 79.5918 90.9045 80.8126 90.5371C82.3437 90.1043 82.801 87.532 81.4454 86.6501C80.7962 86.2132 81.4005 85.1639 82.062 85.5926C82.5079 85.8827 83.0299 86.034 83.5619 86.0274C84.0939 86.0209 84.6119 85.8568 85.0507 85.5559C85.4724 85.2586 85.7852 84.8315 85.9415 84.3398C86.0978 83.8481 86.0889 83.3188 85.9163 82.8326C85.7802 82.3284 85.4832 81.8826 85.0705 81.5627C84.6578 81.2429 84.1519 81.0665 83.6298 81.0606C83.0845 81.0686 82.5545 81.2425 82.1103 81.559C81.6662 81.8755 81.3289 82.3197 81.1433 82.8326C80.9024 83.5797 79.7388 83.2654 79.9633 82.5059C80.1789 81.7708 80.1941 80.9915 80.0075 80.2486C79.8209 79.5056 79.4391 78.826 78.9017 78.2801C77.1134 79.5907 77.1706 82.8326 79.1876 83.9309C79.8817 84.3065 79.261 85.364 78.5669 84.9883C75.6436 83.3919 75.6844 78.5046 78.6649 76.9858C78.7832 76.9221 78.9183 76.897 79.0515 76.9138C79.1847 76.9307 79.3093 76.9886 79.408 77.0797C80.4817 77.9778 81.17 79.2536 81.3311 80.6441C81.8117 80.2784 82.3709 80.0296 82.9643 79.9173C85.5651 79.4274 87.6964 81.8486 87.1983 84.4045ZM80.9432 142.382C81.1127 142.268 81.2653 142.131 81.3964 141.974C81.6698 141.683 81.8445 141.314 81.8958 140.918C81.9471 140.522 81.8724 140.12 81.6822 139.769C81.2739 139.051 80.4002 138.671 79.7061 138.295C78.2374 137.444 76.6608 136.795 75.0189 136.364C73.9228 136.114 72.7978 136.015 71.6749 136.07C72.3976 135.18 73.9001 134.935 74.9821 134.943C76.6725 134.964 79.0937 135.499 80.4124 134.09C81.7312 132.681 80.4778 130.721 78.9181 130.219C77.9375 129.977 76.9234 129.898 75.9171 129.987C74.7953 130.022 73.6762 130.119 72.565 130.276C70.7154 130.542 68.8291 131.02 67.4042 132.318C66.1384 133.457 65.4403 135.098 65.085 136.736C64.3174 140.267 65.2443 144.375 63.2355 147.572C62.2721 149.025 60.8117 150.078 59.128 150.532C58.9769 150.577 58.8259 150.61 58.6707 150.642C58.7973 149.235 58.7767 147.819 58.6095 146.416C58.2067 143.095 57.0716 139.904 55.2859 137.075C54.7065 136.169 54.061 135.308 53.3547 134.498C54.7388 132.591 55.584 130.174 56.3271 128.076C57.7644 124.016 58.7756 119.818 59.3444 115.549C59.6273 113.454 59.8045 111.346 59.8752 109.233C59.9038 108.445 58.6789 108.445 58.6503 109.233C58.472 114.518 57.6172 119.758 56.1066 124.826C55.4265 127.272 54.5344 129.655 53.4405 131.946C53.1592 132.512 52.84 133.057 52.485 133.58C52.3748 133.469 52.2727 133.355 52.1625 133.245C50.9376 132.073 49.5535 130.889 47.9734 130.26C46.4994 129.676 44.707 129.742 43.6577 131.056C43.2856 131.557 43.0293 132.135 42.9071 132.747C42.785 133.359 42.8001 133.991 42.9514 134.596C43.6863 137.883 47.5365 138.438 50.1986 137.222C51.0964 136.8 51.9024 136.207 52.5708 135.474C53.7876 136.913 54.8053 138.508 55.5963 140.218C57.3734 144.003 57.9504 148.24 57.2499 152.361C56.4382 156.563 54.361 160.417 51.2969 163.406C48.1775 166.468 43.87 168.562 39.5053 167.043C37.4108 166.313 35.553 164.977 33.8096 163.638C31.8947 162.164 30.0533 160.605 28.1588 159.11C26.3238 157.585 24.3276 156.266 22.2059 155.174C20.2912 154.294 18.2794 153.643 16.2121 153.235C12.3415 152.382 7.89104 151.871 4.89824 148.997C1.79111 146.012 1.5298 141.549 2.30556 137.565C3.1834 133.024 5.20446 128.802 7.12345 124.63C11.4334 115.263 16.267 106.146 21.6016 97.323C24.2691 92.9107 27.0591 88.5773 29.9716 84.3228C31.4252 82.1943 32.91 80.0875 34.4261 78.0024C34.6752 77.6635 35.1366 77.1858 35.4346 76.7204C40.7522 77.6635 46.2043 77.5372 51.4725 76.3488C53.2756 75.9084 55.0409 75.3255 56.7517 74.6054C56.7004 74.6932 56.6749 74.7937 56.6782 74.8953C56.7455 76.6216 56.4041 78.3395 55.6818 79.9089C54.9595 81.4783 53.8768 82.855 52.5218 83.9268C51.1628 84.9647 49.5697 85.6531 47.8825 85.9314C46.1953 86.2098 44.4656 86.0696 42.8452 85.5232C40.983 84.9321 39.3201 83.8386 38.0396 82.363C37.521 81.7669 36.6595 82.6366 37.1699 83.2286C38.4275 84.6458 39.9994 85.7488 41.7599 86.4493C43.5204 87.1498 45.4204 87.4283 47.3079 87.2626C49.2062 87.072 51.0289 86.4189 52.6162 85.3604C54.2036 84.302 55.5072 82.8704 56.4128 81.1912C57.3086 79.5752 57.8186 77.774 57.9031 75.9283C60.3664 77.1013 63.1483 77.4271 65.8159 76.8551C68.0084 76.3486 70.0175 75.2439 71.6199 73.6639C73.2222 72.0839 74.355 70.0905 74.8923 67.9053C75.076 67.1377 73.896 66.8111 73.7123 67.5786C73.1019 70.0439 71.6652 72.2256 69.6416 73.7602C67.9161 75.0389 65.8516 75.7799 63.7068 75.8903C61.562 76.0007 59.4323 75.4756 57.5847 74.3809C57.5377 74.3528 57.4868 74.3322 57.4336 74.3196C60.3096 73.0641 63.0051 71.4301 65.4484 69.4609C67.7272 67.5995 69.7751 65.4722 71.5483 63.1242C77.7047 64.2142 83.7424 65.8918 89.5787 68.1339C89.6549 67.7284 89.7447 67.3282 89.8481 66.9335C86.0311 65.461 82.1239 64.2336 78.1505 63.2589C75.4557 62.5975 72.7338 62.0531 69.9846 61.6257C69.9411 61.6216 69.8974 61.6216 69.8539 61.6257C69.0047 60.4008 68.1677 59.1759 67.3307 57.9143C70.1773 56.52 72.6981 54.5412 74.7284 52.107C76.7588 49.6728 78.2532 46.8379 79.1141 43.7873C79.2284 43.379 79.306 42.84 78.9793 42.5624C78.4812 42.1092 77.734 42.6767 77.2645 43.1626C75.5727 44.9226 73.2747 45.973 70.8367 46.1003C68.3988 46.2277 66.0038 45.4227 64.1378 43.8485C64.5938 42.7529 64.7834 41.5647 64.6912 40.3815C64.5989 39.1984 64.2274 38.054 63.607 37.0423C64.1923 35.1013 64.6022 33.1117 64.8319 31.0975C65.4239 25.4508 63.0395 18.1872 57.3438 13.6796C52.8933 10.1601 43.674 9.18836 39.5503 13.0835C33.4585 10.7521 27.3667 19.1181 27.9138 23.7849C26.5787 25.8999 25.4151 28.1496 24.182 30.3176C20.834 36.1563 17.535 42.0235 14.1135 47.8212C14.0622 47.9147 14.036 48.0199 14.0372 48.1265C14.0384 48.2331 14.067 48.3376 14.1204 48.4299C14.1737 48.5222 14.2499 48.5993 14.3417 48.6536C14.4334 48.7079 14.5377 48.7376 14.6442 48.7399C19.2743 49.2584 23.9003 49.7729 28.5263 50.2547L30.4983 58.7554C31.5871 63.4807 32.6759 68.2047 33.7647 72.9273C33.9934 73.9113 34.2179 74.8912 34.4466 75.8752C24.336 89.6055 15.5238 104.246 8.12377 119.608C6.33135 123.327 4.53077 127.071 3.02008 130.913C1.75845 134.127 0.749959 137.552 0.700963 141.031C0.651968 144.297 1.63188 147.539 4.02857 149.842C6.42526 152.145 9.7447 153.076 12.9335 153.77C16.4326 154.529 19.899 155.162 23.0388 156.983C26.5216 159.025 29.5062 161.809 32.6705 164.271C35.3897 166.39 38.3866 168.521 41.9388 168.762C45.4909 169.003 48.9125 167.178 51.5011 164.863C52.0965 164.324 52.6635 163.755 53.1996 163.156C55.3799 163.455 57.5724 163.667 59.769 163.773C61.8963 163.875 64.1378 164.034 66.2446 163.671C70.5439 162.928 72.022 158.526 73.0999 154.872C73.5771 153.484 73.7348 152.006 73.5612 150.548C74.8412 150.498 76.1086 150.277 77.3298 149.891C78.2526 149.577 80.3512 148.764 79.5918 147.384C79.1864 146.79 78.5853 146.356 77.8933 146.159C78.816 146.29 79.8082 146.531 80.7064 146.265C81.1178 146.171 81.4898 145.952 81.7713 145.637C82.0528 145.323 82.2299 144.929 82.2784 144.51C82.3314 143.607 81.6945 142.856 80.9432 142.382ZM48.6879 136.462C46.8342 136.944 44.6049 136.331 44.1395 134.265C43.7312 132.404 44.9561 130.726 46.9608 131.203C48.7736 131.636 50.4313 133.139 51.7379 134.531C50.9322 135.461 49.8674 136.129 48.6797 136.45L48.6879 136.462ZM32.842 63.4181C31.8267 59.0466 30.8114 54.6724 29.7961 50.2955C29.7389 50.0424 29.6777 49.7851 29.6205 49.5279C29.5829 49.3995 29.5051 49.2866 29.3985 49.2058C29.292 49.1249 29.1622 49.0804 29.0285 49.0788C24.5658 48.6174 20.1032 48.1234 15.6405 47.6253C18.3475 43.0197 20.981 38.3774 23.6267 33.7432C25.0966 31.171 26.5719 28.6055 28.0527 26.0469C29.2775 23.9319 30.4738 21.8741 32.2295 20.1388C33.1955 19.184 34.2698 18.3454 35.4306 17.6401C35.1819 19.379 35.1326 21.1406 35.2836 22.8907C35.5163 24.9526 36.2798 27.0186 37.7823 28.4476C39.5707 30.1502 42.1388 30.73 44.5968 30.9587C46.7281 31.1587 48.9574 31.1301 50.9049 30.236L51.4521 31.024C51.9355 32.4661 52.4971 33.8809 53.1342 35.2621C52.8798 35.4541 52.6397 35.6642 52.4156 35.8909C52.3523 35.9465 52.3011 36.0147 52.2653 36.0911C52.2295 36.1675 52.2099 36.2505 52.2077 36.3348C52.2054 36.4191 52.2207 36.503 52.2524 36.5812C52.2841 36.6594 52.3316 36.7301 52.392 36.7891C52.4523 36.848 52.5242 36.8939 52.6031 36.9237C52.682 36.9536 52.7662 36.9668 52.8505 36.9626C52.9347 36.9584 53.0172 36.9368 53.0927 36.8992C53.1683 36.8617 53.2352 36.8089 53.2894 36.7442C54.0435 35.9682 54.9938 35.4112 56.0392 35.1323C57.0847 34.8534 58.1862 34.8631 59.2266 35.1604C60.267 35.4577 61.2073 36.0315 61.9476 36.8206C62.6878 37.6098 63.2003 38.5849 63.4305 39.6421C63.6608 40.6994 63.6001 41.7992 63.255 42.8247C62.9099 43.8503 62.2932 44.763 61.4707 45.466C60.6481 46.169 59.6504 46.6358 58.5836 46.8169C57.5169 46.9979 56.421 46.8865 55.4125 46.4943C55.2609 46.4353 55.0921 46.4389 54.9432 46.5044C54.7942 46.5698 54.6774 46.6918 54.6184 46.8434C54.5594 46.995 54.563 47.1638 54.6285 47.3127C54.6939 47.4617 54.8159 47.5785 54.9675 47.6375C55.7558 47.9398 56.5934 48.0934 57.4377 48.0907C58.0912 48.0886 58.7416 48.0022 59.373 47.8335C62.5278 52.8882 65.7996 57.8653 69.1884 62.7648C69.2392 62.844 69.307 62.9109 69.3868 62.9606C69.4667 63.0103 69.5566 63.0415 69.6501 63.0521C69.7436 63.0626 69.8382 63.0522 69.9271 63.0216C70.0161 62.991 70.0971 62.9409 70.1642 62.8751H70.2132C67.1989 66.733 63.4014 69.9085 59.0709 72.1924C54.5904 74.4957 49.6661 75.8061 44.6335 76.0344C41.6487 76.1752 38.6575 75.9917 35.7123 75.4873H35.6347C34.6983 71.4643 33.7647 67.4371 32.8338 63.4059L32.842 63.4181ZM78.5424 148.017V148.037V148.017ZM79.6612 145.191C78.7507 145.155 77.8361 144.959 76.9256 144.873C76.0151 144.787 75.1373 144.734 74.2431 144.706C72.9502 144.667 71.6586 144.691 70.3684 144.775C69.6849 144.709 68.9952 144.756 68.3269 144.914C68.2816 144.925 68.2378 144.942 68.1963 144.963C68.1582 144.961 68.12 144.961 68.0819 144.963C67.3062 145.053 67.298 146.282 68.0819 146.188C68.7025 146.11 69.3068 146.057 69.9438 146.012C70.4296 146.012 70.9155 146.053 71.3973 146.098C72.7288 146.224 74.0506 146.438 75.3537 146.739C76.3867 146.976 77.5135 147.217 78.3587 147.821C78.3179 147.792 78.3995 147.858 78.473 147.923L78.5098 147.952C78.4634 147.991 78.4197 148.033 78.3791 148.078C78.0452 148.303 77.6845 148.486 77.3053 148.621C74.8555 149.56 72.12 149.381 69.5477 149.385C69.3853 149.385 69.2295 149.449 69.1146 149.564C68.9998 149.679 68.9353 149.835 68.9353 149.997C68.9353 150.16 68.9998 150.315 69.1146 150.43C69.2295 150.545 69.3853 150.61 69.5477 150.61C70.4664 150.61 71.4054 150.61 72.3445 150.61C72.3851 150.799 72.4137 150.992 72.4303 151.185C72.5895 153.137 71.7852 155.178 71.1564 156.999C70.5684 158.694 69.7396 160.437 68.2616 161.544C66.7019 162.707 64.7176 162.65 62.8639 162.642C60.7734 162.642 58.6857 162.541 56.6007 162.34C55.7841 162.264 54.9675 162.171 54.1509 162.062C56.4634 159.11 57.9764 155.611 58.5442 151.904H58.6585C60.2721 151.595 61.7678 150.843 62.9782 149.732C65.7056 147.245 65.7465 143.489 65.9098 140.067C65.9264 138.443 66.222 136.835 66.7835 135.311C67.0841 134.561 67.5417 133.884 68.1255 133.325C68.7093 132.767 69.4058 132.34 70.1683 132.073C71.9811 131.428 73.9981 131.256 75.9089 131.211C76.8276 131.187 77.8688 131.105 78.7425 131.456C79.3386 131.697 80.0613 132.473 79.604 133.143C79.1957 133.743 78.224 133.788 77.583 133.804C76.55 133.829 75.5211 133.69 74.4922 133.727C73.0019 133.776 71.385 134.282 70.5194 135.58C70.3929 135.771 70.2914 135.976 70.2173 136.193C69.8988 136.233 69.5844 136.278 69.266 136.336C68.4902 136.47 68.8209 137.654 69.5926 137.516C71.0356 137.227 72.5175 137.188 73.9736 137.401C75.3076 137.651 76.5988 138.091 77.8075 138.708C78.5098 139.047 79.1998 139.418 79.8735 139.806C80.4369 140.129 81.0331 140.623 80.4288 141.235C80.198 141.456 79.9038 141.599 79.5877 141.643C78.1561 140.976 76.6476 140.488 75.0964 140.19C72.8306 139.744 70.5052 139.689 68.2207 140.027C67.445 140.141 67.7757 141.321 68.5474 141.211C71.0624 140.848 73.6251 141.006 76.0763 141.676H75.5129L69.2333 141.566C69.0709 141.566 68.9151 141.63 68.8003 141.745C68.6854 141.86 68.6209 142.016 68.6209 142.178C68.6209 142.341 68.6854 142.496 68.8003 142.611C68.9151 142.726 69.0709 142.791 69.2333 142.791L75.8395 142.864C76.8848 142.864 77.9382 142.925 78.9834 142.889L79.3917 142.864C80.0042 143.134 80.6942 143.477 80.9759 144.02C81.4005 144.91 80.3022 145.208 79.653 145.179L79.6612 145.191ZM52.926 41.6887C53.5776 40.6084 54.4644 39.6891 55.5206 38.9991C56.5767 38.3091 57.7749 37.8663 59.0259 37.7037C59.3526 37.6588 59.6384 38.0222 59.6384 38.3161C59.6342 38.4773 59.5684 38.6306 59.4544 38.7446C59.3405 38.8586 59.1871 38.9244 59.0259 38.9286C57.9874 39.0832 56.9963 39.4667 56.1242 40.0514C55.2521 40.6361 54.5209 41.4073 53.9835 42.3093C53.9012 42.4495 53.7666 42.5513 53.6092 42.5923C53.4519 42.6332 53.2847 42.61 53.1444 42.5277C53.0042 42.4454 52.9024 42.3108 52.8615 42.1534C52.8205 41.9961 52.8437 41.8289 52.926 41.6887ZM38.9705 57.8653C40.1836 57.6042 41.3389 57.1241 42.3797 56.4485C43.3841 57.3141 44.6989 58.1593 46.0299 57.6448C47.3609 57.1304 47.9489 55.5666 47.7529 54.1866C47.5786 53.3004 47.2716 52.4456 46.8424 51.6511C46.7891 51.5507 46.7045 51.4704 46.6015 51.4224C47.0751 50.3153 47.3515 49.1338 47.4181 47.9315C47.4589 47.1435 46.234 47.1435 46.1932 47.9315C46.1356 48.9988 45.8867 50.0471 45.4583 51.0264C45.1916 50.7337 44.8552 50.5132 44.4805 50.3854C44.1057 50.2576 43.7047 50.2267 43.3147 50.2955C42.7558 50.3929 42.2557 50.7016 41.9182 51.1577C41.5807 51.6138 41.4316 52.1823 41.5019 52.7453C41.2033 52.8298 40.9273 52.9799 40.6942 53.1848C40.4611 53.3897 40.2767 53.644 40.1545 53.9293C40.0113 54.2513 39.9761 54.611 40.0541 54.9546C40.1321 55.2983 40.3191 55.6075 40.5873 55.8361C40.6425 55.8815 40.7012 55.9225 40.7629 55.9586C40.0913 56.2897 39.3807 56.5353 38.6479 56.6894C37.8722 56.8446 38.2029 58.0245 38.9705 57.8653ZM45.593 53.2802C45.695 53.2767 45.7947 53.2499 45.8846 53.2017C45.9745 53.1536 46.0522 53.0854 46.1116 53.0025C46.3251 53.4582 46.4722 53.9422 46.5484 54.4397C46.5894 54.7492 46.5714 55.0637 46.4954 55.3665C46.4304 55.6207 46.3182 55.8603 46.1646 56.0729C45.9915 56.296 45.7503 56.4565 45.4777 56.5302C45.2051 56.6039 44.9159 56.5867 44.6539 56.4812C44.184 56.3095 43.7514 56.0489 43.3801 55.7136C44.2353 55.0177 44.9812 54.1974 45.593 53.2802ZM42.6941 52.288C42.7094 52.2243 42.7285 52.1616 42.7513 52.1002C42.7309 52.1533 42.8942 51.8838 42.8615 51.9205C42.9064 51.8715 42.9514 51.8225 43.0003 51.7776L43.0861 51.7082C43.1394 51.669 43.1953 51.6336 43.2535 51.6021L43.3719 51.549L43.5475 51.4959H43.5924H43.6455C43.8598 51.4681 44.0773 51.5142 44.262 51.6266C44.5101 51.7697 44.7136 51.9789 44.8499 52.2308C44.6066 52.6356 44.3337 53.0218 44.0333 53.3863C43.6604 53.0812 43.2279 52.8573 42.7635 52.729C42.7635 52.6881 42.7635 52.7045 42.7635 52.729C42.7429 52.6717 42.7265 52.613 42.7145 52.5534C42.7145 52.5534 42.7145 52.4309 42.7145 52.4268C42.7179 52.4093 42.7179 52.3913 42.7145 52.3737C42.7127 52.3442 42.7058 52.3152 42.6941 52.288ZM41.2447 54.5132C41.2554 54.4403 41.2819 54.3706 41.3223 54.3091C41.3999 54.1768 41.5101 54.0665 41.6422 53.9886C41.7744 53.9108 41.9242 53.8679 42.0776 53.864C42.3355 54.1305 42.6596 54.3235 43.0167 54.4234C42.8289 54.5949 42.6329 54.7582 42.4287 54.9133C42.3426 54.867 42.2455 54.8448 42.1477 54.8492C42.05 54.8535 41.9552 54.8841 41.8735 54.9378C41.8389 54.9642 41.802 54.9874 41.7632 55.0072H41.6734C41.6734 55.0072 41.5713 54.9705 41.5468 54.9664C41.5083 54.9382 41.4673 54.9136 41.4243 54.8929C41.3937 54.8664 41.3651 54.8378 41.3386 54.8072C41.3276 54.786 41.3153 54.7656 41.3018 54.7459C41.3018 54.7255 41.3018 54.7051 41.3018 54.6888C41.3018 54.6724 41.3018 54.6071 41.3018 54.5908C41.3018 54.5744 41.3018 54.5622 41.3018 54.5622C41.2826 54.5427 41.2606 54.5262 41.2365 54.5132H41.2447ZM34.5691 30.8321L33.2339 33.7759C33.1507 33.9145 33.0163 34.0149 32.8597 34.0554C32.7031 34.0959 32.5369 34.0732 32.3969 33.9923C32.2592 33.9082 32.1593 33.7742 32.1182 33.6182C32.0771 33.4621 32.098 33.2963 32.1764 33.1553L33.5034 30.1911C33.5871 30.0586 33.7175 29.9624 33.8687 29.9216C34.02 29.8808 34.181 29.8982 34.32 29.9706C34.4607 30.0528 34.5643 30.1861 34.6092 30.3428C34.6541 30.4995 34.6368 30.6674 34.5609 30.8117L34.5691 30.8321ZM31.8008 29.8889L30.2493 33.1145C30.2104 33.187 30.1574 33.251 30.0932 33.3026C30.0291 33.3541 29.9553 33.3923 29.8761 33.4147C29.7969 33.4371 29.714 33.4433 29.6324 33.4329C29.5507 33.4226 29.472 33.3959 29.4009 33.3544C29.3298 33.313 29.2678 33.2576 29.2186 33.1917C29.1694 33.1257 29.1339 33.0505 29.1144 32.9706C29.0949 32.8907 29.0917 32.8076 29.105 32.7264C29.1183 32.6452 29.1478 32.5675 29.1918 32.4979L30.7433 29.2683C30.8256 29.1281 30.9603 29.0263 31.1176 28.9853C31.275 28.9444 31.4421 28.9676 31.5824 29.0499C31.7226 29.1322 31.8244 29.2668 31.8654 29.4242C31.9063 29.5815 31.8831 29.7487 31.8008 29.8889ZM29.8165 25.5324C29.7961 25.452 29.7961 25.3678 29.8165 25.2874C29.8203 25.2073 29.8457 25.1297 29.89 25.0629C29.9725 24.9259 30.1038 24.8253 30.2575 24.7811L31.074 24.5566C31.234 24.5169 31.4031 24.5388 31.5477 24.6178C31.6835 24.7015 31.7838 24.8323 31.8294 24.9853C31.8519 25.0654 31.8519 25.1502 31.8294 25.2303C31.8249 25.3115 31.7996 25.3903 31.7559 25.4589C31.6738 25.5945 31.5443 25.6949 31.3925 25.7406L30.5759 25.9611C30.4161 26.0029 30.2463 25.9809 30.1023 25.8999C30.0292 25.8589 29.9654 25.8034 29.9148 25.7366C29.8643 25.6699 29.828 25.5934 29.8083 25.512L29.8165 25.5324ZM36.0512 29.0029C35.8893 29.0002 35.7346 28.936 35.6184 28.8233L34.5119 27.6392C34.3999 27.5226 34.3358 27.3681 34.3322 27.2064C34.3314 27.1259 34.3469 27.046 34.3778 26.9716C34.4086 26.8972 34.4543 26.8299 34.5119 26.7736C34.6266 26.6587 34.7823 26.5941 34.9447 26.594C35.1069 26.595 35.2622 26.6595 35.3775 26.7736L36.484 27.9577C36.5967 28.0739 36.6609 28.2286 36.6636 28.3905C36.6642 28.471 36.6486 28.5508 36.6178 28.6251C36.5869 28.6995 36.5414 28.7669 36.484 28.8233C36.4245 28.8775 36.355 28.9194 36.2793 28.9468C36.2037 28.9741 36.1234 28.9862 36.043 28.9825L36.0512 29.0029Z" fill="#3F4254"/>
</svg>
