<svg width="15" height="12" viewBox="0 0 15 12" fill="none" xmlns="http://www.w3.org/2000/svg">
<path d="M9.00005 11.8341C8.86744 11.8341 8.74026 11.7814 8.64649 11.6876C8.55273 11.5939 8.50005 11.4667 8.50005 11.3341C8.50005 11.2015 8.55273 11.0743 8.64649 10.9805C8.74026 10.8868 8.86744 10.8341 9.00005 10.8341C9.16756 10.8189 9.3304 10.7707 9.47916 10.6922C9.62792 10.6137 9.75964 10.5065 9.86671 10.3768L12.6894 7.54742C12.9542 7.33127 13.1243 7.02034 13.1634 6.68076C13.1262 6.33773 12.9563 6.02285 12.69 5.80342L8.42338 1.53009C8.21444 1.31896 7.93462 1.19282 7.63805 1.17609C7.57231 1.17194 7.50803 1.15483 7.44893 1.12573C7.38984 1.09664 7.33708 1.05613 7.2937 1.00656C7.25032 0.956986 7.21718 0.899318 7.19619 0.83688C7.1752 0.774442 7.16677 0.708467 7.17138 0.642756C7.18435 0.511766 7.2467 0.390626 7.34576 0.303947C7.44482 0.217268 7.57316 0.171553 7.70471 0.176089C8.24585 0.20831 8.75592 0.439601 9.13671 0.825423L13.4034 5.09542C13.6309 5.29488 13.816 5.53808 13.9476 5.81056C14.0792 6.08303 14.1546 6.3792 14.1694 6.68142C14.1533 6.98207 14.0769 7.27642 13.9447 7.54694C13.8126 7.81746 13.6273 8.05863 13.4 8.25609L10.5807 11.0808C10.3823 11.3071 10.1397 11.4907 9.86797 11.6202C9.5962 11.7497 9.30088 11.8225 9.00005 11.8341ZM10.3834 7.90076L7.56138 10.7274C7.41733 10.916 7.23175 11.0687 7.01907 11.1739C6.80638 11.279 6.57231 11.3337 6.33505 11.3337C6.09778 11.3337 5.86372 11.279 5.65103 11.1739C5.43834 11.0687 5.25276 10.916 5.10871 10.7274L0.842048 6.45609C0.516482 6.13032 0.333532 5.68865 0.333381 5.22809V1.82809C0.332854 1.67586 0.362384 1.52502 0.420276 1.38422C0.478168 1.24343 0.563284 1.11545 0.670743 1.00762C0.778202 0.899785 0.90589 0.814228 1.04648 0.75585C1.18708 0.697472 1.33781 0.667422 1.49005 0.667423H4.89005C5.11791 0.667419 5.34354 0.712343 5.55403 0.799625C5.76451 0.886908 5.95572 1.01484 6.11671 1.17609L10.3834 5.44742C10.5742 5.59021 10.7291 5.77551 10.8358 5.98862C10.9425 6.20172 10.998 6.43677 10.998 6.67509C10.998 6.91341 10.9425 7.14846 10.8358 7.36156C10.7291 7.57467 10.5742 7.75997 10.3834 7.90276V7.90076ZM3.36671 3.03409C3.36671 2.85728 3.29648 2.68771 3.17145 2.56268C3.04643 2.43766 2.87686 2.36742 2.70005 2.36742H2.69538C2.56373 2.36834 2.4353 2.40823 2.32628 2.48204C2.21726 2.55585 2.13254 2.66029 2.0828 2.78218C2.03306 2.90408 2.02052 3.03797 2.04677 3.16699C2.07301 3.296 2.13687 3.41435 2.23029 3.50712C2.32371 3.59989 2.4425 3.66292 2.57169 3.68827C2.70089 3.71361 2.83469 3.70014 2.95624 3.64955C3.07778 3.59896 3.18163 3.51351 3.25468 3.40398C3.32773 3.29445 3.36671 3.16574 3.36671 3.03409Z" fill="white"/>
</svg>
